<?xml version="1.0" encoding="UTF-8" standalone="no"?>
<!DOCTYPE svg PUBLIC "-//W3C//DTD SVG 1.1//EN"
 "http://www.w3.org/Graphics/SVG/1.1/DTD/svg11.dtd">
<!-- Generated by graphviz version 2.43.0 (0)
 -->
<!-- Title: AddDialog::cancelled Pages: 1 -->
<svg width="465pt" height="101pt"
 viewBox="0.00 0.00 465.00 101.00" xmlns="http://www.w3.org/2000/svg" xmlns:xlink="http://www.w3.org/1999/xlink">
<g id="graph0" class="graph" transform="scale(1 1) rotate(0) translate(4 97)">
<title>AddDialog::cancelled</title>
<!-- Node1 -->
<g id="Node000001" class="node">
<title>Node1</title>
<g id="a_Node000001"><a xlink:title=" ">
<polygon fill="#999999" stroke="#666666" points="457,-56 338,-56 338,-37 457,-37 457,-56"/>
<text text-anchor="middle" x="397.5" y="-44" font-family="Helvetica,sans-Serif" font-size="10.00">AddDialog::cancelled</text>
</a>
</g>
</g>
<!-- Node2 -->
<g id="Node000002" class="node">
<title>Node2</title>
<g id="a_Node000002"><a xlink:href="classMainWindow.html#a31750b622110b0edfcd341556c44ef3c" target="_top" xlink:title="Abre el diálogo para agregar un nuevo componente al inventario.">
<polygon fill="white" stroke="#666666" points="301,-93 185,-93 185,-74 301,-74 301,-93"/>
<text text-anchor="middle" x="243" y="-81" font-family="Helvetica,sans-Serif" font-size="10.00">MainWindow::onAdd</text>
</a>
</g>
</g>
<!-- Node1&#45;&gt;Node2 -->
<g id="edge1_Node000001_Node000002" class="edge">
<title>Node1&#45;&gt;Node2</title>
<g id="a_edge1_Node000001_Node000002"><a xlink:title=" ">
<path fill="none" stroke="#63b8ff" d="M347.35,-58.43C326.66,-63.44 302.91,-69.21 283.4,-73.94"/>
<polygon fill="#63b8ff" stroke="#63b8ff" points="348.33,-61.79 357.23,-56.03 346.68,-54.98 348.33,-61.79"/>
</a>
</g>
</g>
<!-- Node4 -->
<g id="Node000004" class="node">
<title>Node4</title>
<g id="a_Node000004"><a xlink:href="classAddDialog.html#a3f35887c64e8de108ef4e45850d560a9" target="_top" xlink:title="Slot llamado al presionar &quot;Cancelar&quot;.">
<polygon fill="white" stroke="#666666" points="302,-19 184,-19 184,0 302,0 302,-19"/>
<text text-anchor="middle" x="243" y="-7" font-family="Helvetica,sans-Serif" font-size="10.00">AddDialog::onCancel</text>
</a>
</g>
</g>
<!-- Node1&#45;&gt;Node4 -->
<g id="edge3_Node000001_Node000004" class="edge">
<title>Node1&#45;&gt;Node4</title>
<g id="a_edge3_Node000001_Node000004"><a xlink:title=" ">
<path fill="none" stroke="#63b8ff" d="M347.35,-34.57C326.66,-29.56 302.91,-23.79 283.4,-19.06"/>
<polygon fill="#63b8ff" stroke="#63b8ff" points="346.68,-38.02 357.23,-36.97 348.33,-31.21 346.68,-38.02"/>
</a>
</g>
</g>
<!-- Node6 -->
<g id="Node000006" class="node">
<title>Node6</title>
<g id="a_Node000006"><a xlink:href="classMainWindow.html#a9480c0a26284df09cf4d595b0d1952fe" target="_top" xlink:title="Inicia el proceso de edición del componente seleccionado.">
<polygon fill="white" stroke="#666666" points="301,-56 185,-56 185,-37 301,-37 301,-56"/>
<text text-anchor="middle" x="243" y="-44" font-family="Helvetica,sans-Serif" font-size="10.00">MainWindow::onEdit</text>
</a>
</g>
</g>
<!-- Node1&#45;&gt;Node6 -->
<g id="edge5_Node000001_Node000006" class="edge">
<title>Node1&#45;&gt;Node6</title>
<g id="a_edge5_Node000001_Node000006"><a xlink:title=" ">
<path fill="none" stroke="#63b8ff" d="M327.94,-46.5C318.97,-46.5 309.86,-46.5 301.11,-46.5"/>
<polygon fill="#63b8ff" stroke="#63b8ff" points="327.98,-50 337.98,-46.5 327.98,-43 327.98,-50"/>
</a>
</g>
</g>
<!-- Node3 -->
<g id="Node000003" class="node">
<title>Node3</title>
<g id="a_Node000003"><a xlink:href="classMainWindow.html#af6ed98f8230fd8f941c6cb7732160ed5" target="_top" xlink:title="Constructor de la ventana principal.">
<polygon fill="white" stroke="#666666" points="148,-74 0,-74 0,-55 148,-55 148,-74"/>
<text text-anchor="middle" x="74" y="-62" font-family="Helvetica,sans-Serif" font-size="10.00">MainWindow::MainWindow</text>
</a>
</g>
</g>
<!-- Node2&#45;&gt;Node3 -->
<g id="edge2_Node000002_Node000003" class="edge">
<title>Node2&#45;&gt;Node3</title>
<g id="a_edge2_Node000002_Node000003"><a xlink:title=" ">
<path fill="none" stroke="#63b8ff" d="M174.87,-75.86C166.12,-74.87 157.12,-73.84 148.28,-72.84"/>
<polygon fill="#63b8ff" stroke="#63b8ff" points="174.66,-79.36 185,-77.01 175.45,-72.41 174.66,-79.36"/>
</a>
</g>
</g>
<!-- Node5 -->
<g id="Node000005" class="node">
<title>Node5</title>
<g id="a_Node000005"><a xlink:href="classAddDialog.html#a4751c7ced2d3c0497b03a97018c25630" target="_top" xlink:title="Constructor de la clase AddDialog.">
<polygon fill="white" stroke="#666666" points="135.5,-19 12.5,-19 12.5,0 135.5,0 135.5,-19"/>
<text text-anchor="middle" x="74" y="-7" font-family="Helvetica,sans-Serif" font-size="10.00">AddDialog::AddDialog</text>
</a>
</g>
</g>
<!-- Node4&#45;&gt;Node5 -->
<g id="edge4_Node000004_Node000005" class="edge">
<title>Node4&#45;&gt;Node5</title>
<g id="a_edge4_Node000004_Node000005"><a xlink:title=" ">
<path fill="none" stroke="#63b8ff" d="M173.25,-9.5C160.78,-9.5 147.86,-9.5 135.64,-9.5"/>
<polygon fill="#63b8ff" stroke="#63b8ff" points="173.59,-13 183.59,-9.5 173.59,-6 173.59,-13"/>
</a>
</g>
</g>
<!-- Node6&#45;&gt;Node3 -->
<g id="edge6_Node000006_Node000003" class="edge">
<title>Node6&#45;&gt;Node3</title>
<g id="a_edge6_Node000006_Node000003"><a xlink:title=" ">
<path fill="none" stroke="#63b8ff" d="M174.87,-53.74C166.12,-54.68 157.12,-55.65 148.28,-56.6"/>
<polygon fill="#63b8ff" stroke="#63b8ff" points="175.43,-57.2 185,-52.64 174.68,-50.24 175.43,-57.2"/>
</a>
</g>
</g>
</g>
</svg>
