<?xml version="1.0" encoding="UTF-8" standalone="no"?>
<!DOCTYPE svg PUBLIC "-//W3C//DTD SVG 1.1//EN"
 "http://www.w3.org/Graphics/SVG/1.1/DTD/svg11.dtd">
<!-- Generated by graphviz version 2.43.0 (0)
 -->
<!-- Title: MainWindow::onAdd Pages: 1 -->
<svg width="312pt" height="360pt"
 viewBox="0.00 0.00 312.00 360.00" xmlns="http://www.w3.org/2000/svg" xmlns:xlink="http://www.w3.org/1999/xlink">
<g id="graph0" class="graph" transform="scale(1 1) rotate(0) translate(4 356)">
<title>MainWindow::onAdd</title>
<!-- Node1 -->
<g id="Node000001" class="node">
<title>Node1</title>
<g id="a_Node000001"><a xlink:title="Abre el diálogo para agregar un nuevo componente al inventario.">
<polygon fill="#999999" stroke="#666666" points="116,-185 0,-185 0,-166 116,-166 116,-185"/>
<text text-anchor="middle" x="58" y="-173" font-family="Helvetica,sans-Serif" font-size="10.00">MainWindow::onAdd</text>
</a>
</g>
</g>
<!-- Node2 -->
<g id="Node000002" class="node">
<title>Node2</title>
<g id="a_Node000002"><a xlink:href="classAddDialog.html#a98fd2634696182392e30d750fec4fa35" target="_top" xlink:title=" ">
<polygon fill="white" stroke="#666666" points="286.5,-352 169.5,-352 169.5,-333 286.5,-333 286.5,-352"/>
<text text-anchor="middle" x="228" y="-340" font-family="Helvetica,sans-Serif" font-size="10.00">AddDialog::accepted</text>
</a>
</g>
</g>
<!-- Node1&#45;&gt;Node2 -->
<g id="edge1_Node000001_Node000002" class="edge">
<title>Node1&#45;&gt;Node2</title>
<g id="a_edge1_Node000001_Node000002"><a xlink:title=" ">
<path fill="none" stroke="#63b8ff" d="M62.15,-185.34C71.31,-212.24 100.53,-287.43 152,-324.5 154.53,-326.32 157.21,-327.96 160.01,-329.43"/>
<polygon fill="#63b8ff" stroke="#63b8ff" points="158.7,-332.68 169.25,-333.6 161.57,-326.3 158.7,-332.68"/>
</a>
</g>
</g>
<!-- Node3 -->
<g id="Node000003" class="node">
<title>Node3</title>
<g id="a_Node000003"><a xlink:href="classInventoryManager.html#acb286cf95731b5a8f8b55bea861b6885" target="_top" xlink:title="Inserta un nuevo elemento en la tabla inventario.">
<polygon fill="white" stroke="#666666" points="304,-315 152,-315 152,-296 304,-296 304,-315"/>
<text text-anchor="middle" x="228" y="-303" font-family="Helvetica,sans-Serif" font-size="10.00">InventoryManager::addItem</text>
</a>
</g>
</g>
<!-- Node1&#45;&gt;Node3 -->
<g id="edge2_Node000001_Node000003" class="edge">
<title>Node1&#45;&gt;Node3</title>
<g id="a_edge2_Node000001_Node000003"><a xlink:title=" ">
<path fill="none" stroke="#63b8ff" d="M64.06,-185.07C76.14,-206.92 108.87,-260.66 152,-287.5 154.64,-289.14 157.42,-290.64 160.3,-292"/>
<polygon fill="#63b8ff" stroke="#63b8ff" points="159.15,-295.31 169.73,-295.89 161.82,-288.84 159.15,-295.31"/>
</a>
</g>
</g>
<!-- Node4 -->
<g id="Node000004" class="node">
<title>Node4</title>
<g id="a_Node000004"><a xlink:href="classAddDialog.html#a5120327b094f97585324f46bf09a1224" target="_top" xlink:title=" ">
<polygon fill="white" stroke="#666666" points="287.5,-278 168.5,-278 168.5,-259 287.5,-259 287.5,-278"/>
<text text-anchor="middle" x="228" y="-266" font-family="Helvetica,sans-Serif" font-size="10.00">AddDialog::cancelled</text>
</a>
</g>
</g>
<!-- Node1&#45;&gt;Node4 -->
<g id="edge3_Node000001_Node000004" class="edge">
<title>Node1&#45;&gt;Node4</title>
<g id="a_edge3_Node000001_Node000004"><a xlink:title=" ">
<path fill="none" stroke="#63b8ff" d="M68.04,-185.18C83.61,-201.25 117.19,-233.38 152,-250.5 155.85,-252.39 159.92,-254.1 164.08,-255.63"/>
<polygon fill="#63b8ff" stroke="#63b8ff" points="163.32,-259.06 173.91,-258.89 165.52,-252.42 163.32,-259.06"/>
</a>
</g>
</g>
<!-- Node5 -->
<g id="Node000005" class="node">
<title>Node5</title>
<g id="a_Node000005"><a xlink:href="mainwindow_8cpp.html#a62c004692be56c8a628ec733b07c4c40" target="_top" xlink:title="Convierte un objeto QDate a una cadena con formato estándar de base de datos.">
<polygon fill="white" stroke="#666666" points="266.5,-241 189.5,-241 189.5,-222 266.5,-222 266.5,-241"/>
<text text-anchor="middle" x="228" y="-229" font-family="Helvetica,sans-Serif" font-size="10.00">dateToString</text>
</a>
</g>
</g>
<!-- Node1&#45;&gt;Node5 -->
<g id="edge4_Node000001_Node000005" class="edge">
<title>Node1&#45;&gt;Node5</title>
<g id="a_edge4_Node000001_Node000005"><a xlink:title=" ">
<path fill="none" stroke="#63b8ff" d="M79.72,-185.03C98.34,-193.34 126.6,-205.32 152,-213.5 160.8,-216.34 170.3,-218.95 179.5,-221.26"/>
<polygon fill="#63b8ff" stroke="#63b8ff" points="178.76,-224.68 189.3,-223.64 180.41,-217.88 178.76,-224.68"/>
</a>
</g>
</g>
<!-- Node6 -->
<g id="Node000006" class="node">
<title>Node6</title>
<g id="a_Node000006"><a xlink:href="classAddDialog.html#ab6038c606013470cf474c272357d2830" target="_top" xlink:title="Obtiene la fecha de adquisición seleccionada.">
<polygon fill="white" stroke="#666666" points="284,-204 172,-204 172,-185 284,-185 284,-204"/>
<text text-anchor="middle" x="228" y="-192" font-family="Helvetica,sans-Serif" font-size="10.00">AddDialog::getDate</text>
</a>
</g>
</g>
<!-- Node1&#45;&gt;Node6 -->
<g id="edge5_Node000001_Node000006" class="edge">
<title>Node1&#45;&gt;Node6</title>
<g id="a_edge5_Node000001_Node000006"><a xlink:title=" ">
<path fill="none" stroke="#63b8ff" d="M116.35,-181.99C130.94,-183.64 146.74,-185.42 161.7,-187.11"/>
<polygon fill="#63b8ff" stroke="#63b8ff" points="161.57,-190.62 171.9,-188.27 162.36,-183.67 161.57,-190.62"/>
</a>
</g>
</g>
<!-- Node7 -->
<g id="Node000007" class="node">
<title>Node7</title>
<g id="a_Node000007"><a xlink:href="classAddDialog.html#acddb648cd31785710468adfd345dc9bf" target="_top" xlink:title="Obtiene la ubicación física del componente.">
<polygon fill="white" stroke="#666666" points="293,-167 163,-167 163,-148 293,-148 293,-167"/>
<text text-anchor="middle" x="228" y="-155" font-family="Helvetica,sans-Serif" font-size="10.00">AddDialog::getLocation</text>
</a>
</g>
</g>
<!-- Node1&#45;&gt;Node7 -->
<g id="edge6_Node000001_Node000007" class="edge">
<title>Node1&#45;&gt;Node7</title>
<g id="a_edge6_Node000001_Node000007"><a xlink:title=" ">
<path fill="none" stroke="#63b8ff" d="M116.35,-169.36C128.08,-168.1 140.59,-166.76 152.81,-165.45"/>
<polygon fill="#63b8ff" stroke="#63b8ff" points="153.42,-168.9 162.99,-164.36 152.68,-161.94 153.42,-168.9"/>
</a>
</g>
</g>
<!-- Node8 -->
<g id="Node000008" class="node">
<title>Node8</title>
<g id="a_Node000008"><a xlink:href="classAddDialog.html#ab1cf40e875c67ed9f4afbb9c15002fd9" target="_top" xlink:title="Obtiene el nombre ingresado por el usuario.">
<polygon fill="white" stroke="#666666" points="287,-130 169,-130 169,-111 287,-111 287,-130"/>
<text text-anchor="middle" x="228" y="-118" font-family="Helvetica,sans-Serif" font-size="10.00">AddDialog::getName</text>
</a>
</g>
</g>
<!-- Node1&#45;&gt;Node8 -->
<g id="edge7_Node000001_Node000008" class="edge">
<title>Node1&#45;&gt;Node8</title>
<g id="a_edge7_Node000001_Node000008"><a xlink:title=" ">
<path fill="none" stroke="#63b8ff" d="M81.28,-166C99.95,-158.25 127.42,-147.34 152,-139.5 159.56,-137.09 167.62,-134.78 175.55,-132.65"/>
<polygon fill="#63b8ff" stroke="#63b8ff" points="176.69,-135.97 185.48,-130.06 174.92,-129.2 176.69,-135.97"/>
</a>
</g>
</g>
<!-- Node9 -->
<g id="Node000009" class="node">
<title>Node9</title>
<g id="a_Node000009"><a xlink:href="classAddDialog.html#ace328ac19c27ec775541e29b893faeb6" target="_top" xlink:title="Obtiene la cantidad seleccionada.">
<polygon fill="white" stroke="#666666" points="293.5,-93 162.5,-93 162.5,-74 293.5,-74 293.5,-93"/>
<text text-anchor="middle" x="228" y="-81" font-family="Helvetica,sans-Serif" font-size="10.00">AddDialog::getQuantity</text>
</a>
</g>
</g>
<!-- Node1&#45;&gt;Node9 -->
<g id="edge8_Node000001_Node000009" class="edge">
<title>Node1&#45;&gt;Node9</title>
<g id="a_edge8_Node000001_Node000009"><a xlink:title=" ">
<path fill="none" stroke="#63b8ff" d="M68.37,-165.89C84.17,-150.25 117.74,-119.34 152,-102.5 156.9,-100.09 162.13,-97.97 167.47,-96.11"/>
<polygon fill="#63b8ff" stroke="#63b8ff" points="168.67,-99.39 177.14,-93.02 166.54,-92.73 168.67,-99.39"/>
</a>
</g>
</g>
<!-- Node10 -->
<g id="Node000010" class="node">
<title>Node10</title>
<g id="a_Node000010"><a xlink:href="classAddDialog.html#a681938827598fc3404fea3175825ec04" target="_top" xlink:title="Obtiene el tipo de componente ingresado.">
<polygon fill="white" stroke="#666666" points="283.5,-56 172.5,-56 172.5,-37 283.5,-37 283.5,-56"/>
<text text-anchor="middle" x="228" y="-44" font-family="Helvetica,sans-Serif" font-size="10.00">AddDialog::getType</text>
</a>
</g>
</g>
<!-- Node1&#45;&gt;Node10 -->
<g id="edge9_Node000001_Node000010" class="edge">
<title>Node1&#45;&gt;Node10</title>
<g id="a_edge9_Node000001_Node000010"><a xlink:title=" ">
<path fill="none" stroke="#63b8ff" d="M64.31,-165.82C76.68,-144.23 109.58,-92.01 152,-65.5 155.43,-63.36 159.08,-61.46 162.87,-59.77"/>
<polygon fill="#63b8ff" stroke="#63b8ff" points="164.45,-62.91 172.48,-56.01 161.9,-56.39 164.45,-62.91"/>
</a>
</g>
</g>
<!-- Node11 -->
<g id="Node000011" class="node">
<title>Node11</title>
<g id="a_Node000011"><a xlink:href="classMainWindow.html#ae709637342f1faac100901a15e338308" target="_top" xlink:title="Actualiza la vista recargando los datos desde la base de datos SQL.">
<polygon fill="white" stroke="#666666" points="302.5,-19 153.5,-19 153.5,0 302.5,0 302.5,-19"/>
<text text-anchor="middle" x="228" y="-7" font-family="Helvetica,sans-Serif" font-size="10.00">MainWindow::refreshModel</text>
</a>
</g>
</g>
<!-- Node1&#45;&gt;Node11 -->
<g id="edge10_Node000001_Node000011" class="edge">
<title>Node1&#45;&gt;Node11</title>
<g id="a_edge10_Node000001_Node000011"><a xlink:title=" ">
<path fill="none" stroke="#63b8ff" d="M62.22,-165.82C71.54,-139.37 101.15,-65.38 152,-28.5 154.66,-26.57 157.51,-24.83 160.47,-23.27"/>
<polygon fill="#63b8ff" stroke="#63b8ff" points="161.99,-26.42 169.64,-19.1 159.09,-20.05 161.99,-26.42"/>
</a>
</g>
</g>
</g>
</svg>
