<?xml version="1.0" encoding="UTF-8" standalone="no"?>
<!DOCTYPE svg PUBLIC "-//W3C//DTD SVG 1.1//EN"
 "http://www.w3.org/Graphics/SVG/1.1/DTD/svg11.dtd">
<!-- Generated by graphviz version 2.43.0 (0)
 -->
<!-- Title: InventoryManager::addItem Pages: 1 -->
<svg width="753pt" height="103pt"
 viewBox="0.00 0.00 753.00 103.00" xmlns="http://www.w3.org/2000/svg" xmlns:xlink="http://www.w3.org/1999/xlink">
<g id="graph0" class="graph" transform="scale(1 1) rotate(0) translate(4 99)">
<title>InventoryManager::addItem</title>
<!-- Node1 -->
<g id="Node000001" class="node">
<title>Node1</title>
<g id="a_Node000001"><a xlink:title="Inserta un nuevo elemento en la tabla inventario.">
<polygon fill="#999999" stroke="#666666" points="745,-76 593,-76 593,-57 745,-57 745,-76"/>
<text text-anchor="middle" x="669" y="-64" font-family="Helvetica,sans-Serif" font-size="10.00">InventoryManager::addItem</text>
</a>
</g>
</g>
<!-- Node2 -->
<g id="Node000002" class="node">
<title>Node2</title>
<g id="a_Node000002"><a xlink:href="classMainWindow.html#a31750b622110b0edfcd341556c44ef3c" target="_top" xlink:title="Abre el diálogo para agregar un nuevo componente al inventario.">
<polygon fill="white" stroke="#666666" points="330,-95 214,-95 214,-76 330,-76 330,-95"/>
<text text-anchor="middle" x="272" y="-83" font-family="Helvetica,sans-Serif" font-size="10.00">MainWindow::onAdd</text>
</a>
</g>
</g>
<!-- Node1&#45;&gt;Node2 -->
<g id="edge1_Node000001_Node000002" class="edge">
<title>Node1&#45;&gt;Node2</title>
<g id="a_edge1_Node000001_Node000002"><a xlink:title=" ">
<path fill="none" stroke="#63b8ff" d="M582.69,-70.6C506.26,-74.28 396.29,-79.57 330.03,-82.76"/>
<polygon fill="#63b8ff" stroke="#63b8ff" points="582.95,-74.09 592.77,-70.12 582.62,-67.1 582.95,-74.09"/>
</a>
</g>
</g>
<!-- Node4 -->
<g id="Node000004" class="node">
<title>Node4</title>
<g id="a_Node000004"><a xlink:href="classMainWindow.html#aec037789de5a4356126afe86a8831276" target="_top" xlink:title="Carga un conjunto de datos de prueba (Seed Data).">
<polygon fill="white" stroke="#666666" points="557,-57 396,-57 396,-38 557,-38 557,-57"/>
<text text-anchor="middle" x="476.5" y="-45" font-family="Helvetica,sans-Serif" font-size="10.00">MainWindow::onLoadDefaults</text>
</a>
</g>
</g>
<!-- Node1&#45;&gt;Node4 -->
<g id="edge3_Node000001_Node000004" class="edge">
<title>Node1&#45;&gt;Node4</title>
<g id="a_edge3_Node000001_Node000004"><a xlink:title=" ">
<path fill="none" stroke="#63b8ff" d="M582.97,-58.02C574.38,-57.16 565.68,-56.3 557.15,-55.44"/>
<polygon fill="#63b8ff" stroke="#63b8ff" points="582.68,-61.51 592.98,-59.02 583.38,-54.54 582.68,-61.51"/>
</a>
</g>
</g>
<!-- Node3 -->
<g id="Node000003" class="node">
<title>Node3</title>
<g id="a_Node000003"><a xlink:href="classMainWindow.html#af6ed98f8230fd8f941c6cb7732160ed5" target="_top" xlink:title="Constructor de la ventana principal.">
<polygon fill="white" stroke="#666666" points="148,-57 0,-57 0,-38 148,-38 148,-57"/>
<text text-anchor="middle" x="74" y="-45" font-family="Helvetica,sans-Serif" font-size="10.00">MainWindow::MainWindow</text>
</a>
</g>
</g>
<!-- Node2&#45;&gt;Node3 -->
<g id="edge2_Node000002_Node000003" class="edge">
<title>Node2&#45;&gt;Node3</title>
<g id="a_edge2_Node000002_Node000003"><a xlink:title=" ">
<path fill="none" stroke="#63b8ff" d="M211.74,-74.01C183.77,-68.59 150.79,-62.19 124.23,-57.04"/>
<polygon fill="#63b8ff" stroke="#63b8ff" points="211.31,-77.49 221.79,-75.96 212.64,-70.62 211.31,-77.49"/>
</a>
</g>
</g>
<!-- Node4&#45;&gt;Node3 -->
<g id="edge4_Node000004_Node000003" class="edge">
<title>Node4&#45;&gt;Node3</title>
<g id="a_edge4_Node000004_Node000003"><a xlink:title=" ">
<path fill="none" stroke="#63b8ff" d="M385.53,-47.5C313.88,-47.5 214.85,-47.5 148.05,-47.5"/>
<polygon fill="#63b8ff" stroke="#63b8ff" points="385.9,-51 395.9,-47.5 385.9,-44 385.9,-51"/>
</a>
</g>
</g>
<!-- Node5 -->
<g id="Node000005" class="node">
<title>Node5</title>
<g id="a_Node000005"><a xlink:href="classMainWindow.html#a061b3d00f9f4ec5381813290c884135b" target="_top" xlink:title="Restaura la base de datos a su estado original (vacía y luego recargada).">
<polygon fill="white" stroke="#666666" points="360,-19 184,-19 184,0 360,0 360,-19"/>
<text text-anchor="middle" x="272" y="-7" font-family="Helvetica,sans-Serif" font-size="10.00">MainWindow::onRestoreDefaults</text>
</a>
</g>
</g>
<!-- Node4&#45;&gt;Node5 -->
<g id="edge5_Node000004_Node000005" class="edge">
<title>Node4&#45;&gt;Node5</title>
<g id="a_edge5_Node000004_Node000005"><a xlink:title=" ">
<path fill="none" stroke="#63b8ff" d="M414.65,-36.08C385.68,-30.64 351.42,-24.22 323.86,-19.04"/>
<polygon fill="#63b8ff" stroke="#63b8ff" points="414.19,-39.56 424.66,-37.96 415.48,-32.68 414.19,-39.56"/>
</a>
</g>
</g>
<!-- Node5&#45;&gt;Node3 -->
<g id="edge6_Node000005_Node000003" class="edge">
<title>Node5&#45;&gt;Node3</title>
<g id="a_edge6_Node000005_Node000003"><a xlink:title=" ">
<path fill="none" stroke="#63b8ff" d="M211.74,-20.99C183.77,-26.41 150.79,-32.81 124.23,-37.96"/>
<polygon fill="#63b8ff" stroke="#63b8ff" points="212.64,-24.38 221.79,-19.04 211.31,-17.51 212.64,-24.38"/>
</a>
</g>
</g>
</g>
</svg>
