<?xml version="1.0" encoding="UTF-8" standalone="no"?>
<!DOCTYPE svg PUBLIC "-//W3C//DTD SVG 1.1//EN"
 "http://www.w3.org/Graphics/SVG/1.1/DTD/svg11.dtd">
<!-- Generated by graphviz version 2.43.0 (0)
 -->
<!-- Title: AddDialog::accepted Pages: 1 -->
<svg width="461pt" height="101pt"
 viewBox="0.00 0.00 461.00 101.00" xmlns="http://www.w3.org/2000/svg" xmlns:xlink="http://www.w3.org/1999/xlink">
<g id="graph0" class="graph" transform="scale(1 1) rotate(0) translate(4 97)">
<title>AddDialog::accepted</title>
<!-- Node1 -->
<g id="Node000001" class="node">
<title>Node1</title>
<g id="a_Node000001"><a xlink:title=" ">
<polygon fill="#999999" stroke="#666666" points="453,-56 336,-56 336,-37 453,-37 453,-56"/>
<text text-anchor="middle" x="394.5" y="-44" font-family="Helvetica,sans-Serif" font-size="10.00">AddDialog::accepted</text>
</a>
</g>
</g>
<!-- Node2 -->
<g id="Node000002" class="node">
<title>Node2</title>
<g id="a_Node000002"><a xlink:href="classMainWindow.html#a31750b622110b0edfcd341556c44ef3c" target="_top" xlink:title="Abre el diálogo para agregar un nuevo componente al inventario.">
<polygon fill="white" stroke="#666666" points="300,-93 184,-93 184,-74 300,-74 300,-93"/>
<text text-anchor="middle" x="242" y="-81" font-family="Helvetica,sans-Serif" font-size="10.00">MainWindow::onAdd</text>
</a>
</g>
</g>
<!-- Node1&#45;&gt;Node2 -->
<g id="edge1_Node000001_Node000002" class="edge">
<title>Node1&#45;&gt;Node2</title>
<g id="a_edge1_Node000001_Node000002"><a xlink:title=" ">
<path fill="none" stroke="#63b8ff" d="M344.99,-58.43C324.58,-63.44 301.14,-69.21 281.89,-73.94"/>
<polygon fill="#63b8ff" stroke="#63b8ff" points="345.87,-61.81 354.74,-56.03 344.2,-55.02 345.87,-61.81"/>
</a>
</g>
</g>
<!-- Node4 -->
<g id="Node000004" class="node">
<title>Node4</title>
<g id="a_Node000004"><a xlink:href="classMainWindow.html#a9480c0a26284df09cf4d595b0d1952fe" target="_top" xlink:title="Inicia el proceso de edición del componente seleccionado.">
<polygon fill="white" stroke="#666666" points="300,-56 184,-56 184,-37 300,-37 300,-56"/>
<text text-anchor="middle" x="242" y="-44" font-family="Helvetica,sans-Serif" font-size="10.00">MainWindow::onEdit</text>
</a>
</g>
</g>
<!-- Node1&#45;&gt;Node4 -->
<g id="edge3_Node000001_Node000004" class="edge">
<title>Node1&#45;&gt;Node4</title>
<g id="a_edge3_Node000001_Node000004"><a xlink:title=" ">
<path fill="none" stroke="#63b8ff" d="M325.56,-46.5C317.14,-46.5 308.59,-46.5 300.35,-46.5"/>
<polygon fill="#63b8ff" stroke="#63b8ff" points="325.74,-50 335.74,-46.5 325.74,-43 325.74,-50"/>
</a>
</g>
</g>
<!-- Node5 -->
<g id="Node000005" class="node">
<title>Node5</title>
<g id="a_Node000005"><a xlink:href="classAddDialog.html#a78803d57593ddd157af57178901297ff" target="_top" xlink:title="Slot llamado al presionar &quot;Agregar/Aceptar&quot;.">
<polygon fill="white" stroke="#666666" points="291,-19 193,-19 193,0 291,0 291,-19"/>
<text text-anchor="middle" x="242" y="-7" font-family="Helvetica,sans-Serif" font-size="10.00">AddDialog::onOk</text>
</a>
</g>
</g>
<!-- Node1&#45;&gt;Node5 -->
<g id="edge5_Node000001_Node000005" class="edge">
<title>Node1&#45;&gt;Node5</title>
<g id="a_edge5_Node000001_Node000005"><a xlink:title=" ">
<path fill="none" stroke="#63b8ff" d="M344.99,-34.57C324.58,-29.56 301.14,-23.79 281.89,-19.06"/>
<polygon fill="#63b8ff" stroke="#63b8ff" points="344.2,-37.98 354.74,-36.97 345.87,-31.19 344.2,-37.98"/>
</a>
</g>
</g>
<!-- Node3 -->
<g id="Node000003" class="node">
<title>Node3</title>
<g id="a_Node000003"><a xlink:href="classMainWindow.html#af6ed98f8230fd8f941c6cb7732160ed5" target="_top" xlink:title="Constructor de la ventana principal.">
<polygon fill="white" stroke="#666666" points="148,-74 0,-74 0,-55 148,-55 148,-74"/>
<text text-anchor="middle" x="74" y="-62" font-family="Helvetica,sans-Serif" font-size="10.00">MainWindow::MainWindow</text>
</a>
</g>
</g>
<!-- Node2&#45;&gt;Node3 -->
<g id="edge2_Node000002_Node000003" class="edge">
<title>Node2&#45;&gt;Node3</title>
<g id="a_edge2_Node000002_Node000003"><a xlink:title=" ">
<path fill="none" stroke="#63b8ff" d="M173.71,-75.8C165.26,-74.83 156.59,-73.84 148.06,-72.86"/>
<polygon fill="#63b8ff" stroke="#63b8ff" points="173.54,-79.3 183.87,-76.96 174.34,-72.35 173.54,-79.3"/>
</a>
</g>
</g>
<!-- Node4&#45;&gt;Node3 -->
<g id="edge4_Node000004_Node000003" class="edge">
<title>Node4&#45;&gt;Node3</title>
<g id="a_edge4_Node000004_Node000003"><a xlink:title=" ">
<path fill="none" stroke="#63b8ff" d="M173.71,-53.8C165.26,-54.71 156.59,-55.65 148.06,-56.58"/>
<polygon fill="#63b8ff" stroke="#63b8ff" points="174.31,-57.25 183.87,-52.69 173.55,-50.29 174.31,-57.25"/>
</a>
</g>
</g>
<!-- Node6 -->
<g id="Node000006" class="node">
<title>Node6</title>
<g id="a_Node000006"><a xlink:href="classAddDialog.html#a4751c7ced2d3c0497b03a97018c25630" target="_top" xlink:title="Constructor de la clase AddDialog.">
<polygon fill="white" stroke="#666666" points="135.5,-19 12.5,-19 12.5,0 135.5,0 135.5,-19"/>
<text text-anchor="middle" x="74" y="-7" font-family="Helvetica,sans-Serif" font-size="10.00">AddDialog::AddDialog</text>
</a>
</g>
</g>
<!-- Node5&#45;&gt;Node6 -->
<g id="edge6_Node000005_Node000006" class="edge">
<title>Node5&#45;&gt;Node6</title>
<g id="a_edge6_Node000005_Node000006"><a xlink:title=" ">
<path fill="none" stroke="#63b8ff" d="M182.66,-9.5C167.43,-9.5 150.97,-9.5 135.62,-9.5"/>
<polygon fill="#63b8ff" stroke="#63b8ff" points="182.99,-13 192.99,-9.5 182.99,-6 182.99,-13"/>
</a>
</g>
</g>
</g>
</svg>
