<?xml version="1.0" encoding="UTF-8" standalone="no"?>
<!DOCTYPE svg PUBLIC "-//W3C//DTD SVG 1.1//EN"
 "http://www.w3.org/Graphics/SVG/1.1/DTD/svg11.dtd">
<!-- Generated by graphviz version 2.43.0 (0)
 -->
<!-- Title: MainWindow::MainWindow Pages: 1 -->
<!--zoomable 675 -->

<svg id="main" version="1.1" xmlns="http://www.w3.org/2000/svg" xmlns:xlink="http://www.w3.org/1999/xlink" xml:space="preserve" onload="init(evt)">
<style type="text/css"><![CDATA[
.node, .edge {opacity: 0.7;}
.node.selected, .edge.selected {opacity: 1;}
.edge:hover path { stroke: red; }
.edge:hover polygon { stroke: red; fill: red; }
]]></style>

<defs>
  <circle id="rim" cx="0" cy="0" r="7"/>
  <circle id="rim2" cx="0" cy="0" r="3.5"/>
  <g id="zoomPlus">
    <use xlink:href="#rim" fill="#404040"><set attributeName="fill" to="#808080" begin="zoomplus.mouseover" end="zoomplus.mouseout"/></use>
    <path d="M-4,0h8M0,-4v8" fill="none" stroke="white" stroke-width="1.5" pointer-events="none"/>
  </g>
  <g id="zoomMin">
    <use xlink:href="#rim" fill="#404040"><set attributeName="fill" to="#808080" begin="zoomminus.mouseover" end="zoomminus.mouseout"/></use>
    <path d="M-4,0h8" fill="none" stroke="white" stroke-width="1.5" pointer-events="none"/>
  </g>
  <g id="arrowUp" transform="translate(30 24)">
    <use xlink:href="#rim"/>
    <path pointer-events="none" fill="none" stroke="white" stroke-width="1.5" d="M0,-3.0v7 M-2.5,-0.5L0,-3.0L2.5,-0.5"/>
  </g>
  <g id="arrowRight" transform="rotate(90) translate(36 -43)">
    <use xlink:href="#rim"/>
    <path pointer-events="none" fill="none" stroke="white" stroke-width="1.5" d="M0,-3.0v7 M-2.5,-0.5L0,-3.0L2.5,-0.5"/>
  </g>
  <g id="arrowDown" transform="rotate(180) translate(-30 -48)">
    <use xlink:href="#rim"/>
    <path pointer-events="none" fill="none" stroke="white" stroke-width="1.5" d="M0,-3.0v7 M-2.5,-0.5L0,-3.0L2.5,-0.5"/>
  </g>
  <g id="arrowLeft" transform="rotate(270) translate(-36 17)">
    <use xlink:href="#rim"/>
    <path pointer-events="none" fill="none" stroke="white" stroke-width="1.5" d="M0,-3.0v7 M-2.5,-0.5L0,-3.0L2.5,-0.5"/>
  </g>
  <g id="resetDef">
    <use xlink:href="#rim2" fill="#404040"><set attributeName="fill" to="#808080" begin="reset.mouseover" end="reset.mouseout"/></use>
  </g>
</defs>
<script type="application/ecmascript">
var viewWidth = 764;
var viewHeight = 675;
var sectionId = 'dynsection-2';
</script>
<script type="application/ecmascript" xlink:href="svg.min.js"/>
<svg id="graph" class="graph">
<g id="viewport">
<title>MainWindow::MainWindow</title>
<!-- Node1 -->
<g id="Node000001" class="node">
<title>Node1</title>
<g id="a_Node000001"><a xlink:title="Constructor de la ventana principal.">
<polygon fill="#999999" stroke="#666666" points="148,-199.5 0,-199.5 0,-180.5 148,-180.5 148,-199.5"/>
<text text-anchor="middle" x="74" y="-187.5" font-family="Helvetica,sans-Serif" font-size="10.00">MainWindow::MainWindow</text>
</a>
</g>
</g>
<!-- Node2 -->
<g id="Node000002" class="node">
<title>Node2</title>
<g id="a_Node000002"><a xlink:href="classInventoryManager.html#ac1308250ed0c8c11edc6b6b84bc8d5a2" target="_top" xlink:title="Crea la tabla principal del inventario si no existe.">
<polygon fill="white" stroke="#666666" points="343.5,-530 200.5,-530 200.5,-500 343.5,-500 343.5,-530"/>
<text text-anchor="start" x="208.5" y="-518" font-family="Helvetica,sans-Serif" font-size="10.00">InventoryManager::create</text>
<text text-anchor="middle" x="272" y="-507" font-family="Helvetica,sans-Serif" font-size="10.00">Table</text>
</a>
</g>
</g>
<!-- Node1&#45;&gt;Node2 -->
<g id="edge1_Node000001_Node000002" class="edge">
<title>Node1&#45;&gt;Node2</title>
<g id="a_edge1_Node000001_Node000002"><a xlink:title=" ">
<path fill="none" stroke="#63b8ff" d="M75.43,-199.52C77.83,-240.91 93,-406.86 184,-491 186.34,-493.16 188.86,-495.14 191.51,-496.93"/>
<polygon fill="#63b8ff" stroke="#63b8ff" points="189.98,-500.09 200.39,-502.09 193.5,-494.04 189.98,-500.09"/>
</a>
</g>
</g>
<!-- Node3 -->
<g id="Node000003" class="node">
<title>Node3</title>
<g id="a_Node000003"><a xlink:href="classMainWindow.html#a31750b622110b0edfcd341556c44ef3c" target="_top" xlink:title="Abre el diálogo para agregar un nuevo componente al inventario.">
<polygon fill="white" stroke="#666666" points="330,-407.5 214,-407.5 214,-388.5 330,-388.5 330,-407.5"/>
<text text-anchor="middle" x="272" y="-395.5" font-family="Helvetica,sans-Serif" font-size="10.00">MainWindow::onAdd</text>
</a>
</g>
</g>
<!-- Node1&#45;&gt;Node3 -->
<g id="edge2_Node000001_Node000003" class="edge">
<title>Node1&#45;&gt;Node3</title>
<g id="a_edge2_Node000001_Node000003"><a xlink:title=" ">
<path fill="none" stroke="#63b8ff" d="M84.19,-199.75C114.98,-232.43 214.81,-338.37 254.5,-380.49"/>
<polygon fill="#63b8ff" stroke="#63b8ff" points="252.2,-383.15 261.6,-388.03 257.29,-378.35 252.2,-383.15"/>
</a>
</g>
</g>
<!-- Node13 -->
<g id="Node000013" class="node">
<title>Node13</title>
<g id="a_Node000013"><a xlink:href="classMainWindow.html#ae709637342f1faac100901a15e338308" target="_top" xlink:title="Actualiza la vista recargando los datos desde la base de datos SQL.">
<polygon fill="white" stroke="#666666" points="754.5,-199.5 605.5,-199.5 605.5,-180.5 754.5,-180.5 754.5,-199.5"/>
<text text-anchor="middle" x="680" y="-187.5" font-family="Helvetica,sans-Serif" font-size="10.00">MainWindow::refreshModel</text>
</a>
</g>
</g>
<!-- Node1&#45;&gt;Node13 -->
<g id="edge36_Node000001_Node000013" class="edge">
<title>Node1&#45;&gt;Node13</title>
<g id="a_edge36_Node000001_Node000013"><a xlink:title=" ">
<path fill="none" stroke="#63b8ff" d="M148.16,-190C260.92,-190 476.57,-190 595.36,-190"/>
<polygon fill="#63b8ff" stroke="#63b8ff" points="595.5,-193.5 605.5,-190 595.5,-186.5 595.5,-193.5"/>
</a>
</g>
</g>
<!-- Node14 -->
<g id="Node000014" class="node">
<title>Node14</title>
<g id="a_Node000014"><a xlink:href="classMainWindow.html#a3f29a7235acf922406190b6477167a80" target="_top" xlink:title="Elimina el registro seleccionado en la tabla.">
<polygon fill="white" stroke="#666666" points="336.5,-142.5 207.5,-142.5 207.5,-123.5 336.5,-123.5 336.5,-142.5"/>
<text text-anchor="middle" x="272" y="-130.5" font-family="Helvetica,sans-Serif" font-size="10.00">MainWindow::onDelete</text>
</a>
</g>
</g>
<!-- Node1&#45;&gt;Node14 -->
<g id="edge13_Node000001_Node000014" class="edge">
<title>Node1&#45;&gt;Node14</title>
<g id="a_edge13_Node000001_Node000014"><a xlink:title=" ">
<path fill="none" stroke="#63b8ff" d="M105.95,-180.41C127.73,-173.71 157.6,-164.64 184,-157 197.43,-153.11 212.07,-149.02 225.45,-145.34"/>
<polygon fill="#63b8ff" stroke="#63b8ff" points="226.67,-148.63 235.39,-142.61 224.82,-141.88 226.67,-148.63"/>
</a>
</g>
</g>
<!-- Node16 -->
<g id="Node000016" class="node">
<title>Node16</title>
<g id="a_Node000016"><a xlink:href="classMainWindow.html#a9480c0a26284df09cf4d595b0d1952fe" target="_top" xlink:title="Inicia el proceso de edición del componente seleccionado.">
<polygon fill="white" stroke="#666666" points="330,-481.5 214,-481.5 214,-462.5 330,-462.5 330,-481.5"/>
<text text-anchor="middle" x="272" y="-469.5" font-family="Helvetica,sans-Serif" font-size="10.00">MainWindow::onEdit</text>
</a>
</g>
</g>
<!-- Node1&#45;&gt;Node16 -->
<g id="edge16_Node000001_Node000016" class="edge">
<title>Node1&#45;&gt;Node16</title>
<g id="a_edge16_Node000001_Node000016"><a xlink:title=" ">
<path fill="none" stroke="#63b8ff" d="M77.55,-199.73C86.78,-233.35 121.21,-346.47 184,-417 199.48,-434.39 221.74,-448.33 239.87,-457.82"/>
<polygon fill="#63b8ff" stroke="#63b8ff" points="238.4,-461 248.91,-462.37 241.55,-454.75 238.4,-461"/>
</a>
</g>
</g>
<!-- Node19 -->
<g id="Node000019" class="node">
<title>Node19</title>
<g id="a_Node000019"><a xlink:href="classMainWindow.html#aae43dfb8457343a5cd68ae9e4f0947b3" target="_top" xlink:title="Genera y exporta un reporte del inventario en formato CSV.">
<polygon fill="white" stroke="#666666" points="336,-105.5 208,-105.5 208,-86.5 336,-86.5 336,-105.5"/>
<text text-anchor="middle" x="272" y="-93.5" font-family="Helvetica,sans-Serif" font-size="10.00">MainWindow::onExport</text>
</a>
</g>
</g>
<!-- Node1&#45;&gt;Node19 -->
<g id="edge26_Node000001_Node000019" class="edge">
<title>Node1&#45;&gt;Node19</title>
<g id="a_edge26_Node000001_Node000019"><a xlink:title=" ">
<path fill="none" stroke="#63b8ff" d="M85.9,-180.31C104.59,-164.22 144.59,-132.08 184,-115 189.87,-112.46 196.1,-110.24 202.45,-108.31"/>
<polygon fill="#63b8ff" stroke="#63b8ff" points="203.77,-111.58 212.45,-105.51 201.88,-104.84 203.77,-111.58"/>
</a>
</g>
</g>
<!-- Node22 -->
<g id="Node000022" class="node">
<title>Node22</title>
<g id="a_Node000022"><a xlink:href="classMainWindow.html#aec037789de5a4356126afe86a8831276" target="_top" xlink:title="Carga un conjunto de datos de prueba (Seed Data).">
<polygon fill="white" stroke="#666666" points="562.5,-218.5 401.5,-218.5 401.5,-199.5 562.5,-199.5 562.5,-218.5"/>
<text text-anchor="middle" x="482" y="-206.5" font-family="Helvetica,sans-Serif" font-size="10.00">MainWindow::onLoadDefaults</text>
</a>
</g>
</g>
<!-- Node1&#45;&gt;Node22 -->
<g id="edge29_Node000001_Node000022" class="edge">
<title>Node1&#45;&gt;Node22</title>
<g id="a_edge29_Node000001_Node000022"><a xlink:title=" ">
<path fill="none" stroke="#63b8ff" d="M95.75,-199.59C117.28,-208.97 152.19,-222.61 184,-228 266.95,-242.04 364.53,-230.54 424.58,-220.3"/>
<polygon fill="#63b8ff" stroke="#63b8ff" points="425.37,-223.71 434.61,-218.54 424.16,-216.82 425.37,-223.71"/>
</a>
</g>
</g>
<!-- Node23 -->
<g id="Node000023" class="node">
<title>Node23</title>
<g id="a_Node000023"><a xlink:href="classMainWindow.html#aa203add17c8e3a5835b8dee710ca3d63" target="_top" xlink:title="Analiza el stock actual y resalta visualmente los ítems críticos.">
<polygon fill="white" stroke="#666666" points="343.5,-68.5 200.5,-68.5 200.5,-49.5 343.5,-49.5 343.5,-68.5"/>
<text text-anchor="middle" x="272" y="-56.5" font-family="Helvetica,sans-Serif" font-size="10.00">MainWindow::onLowStock</text>
</a>
</g>
</g>
<!-- Node1&#45;&gt;Node23 -->
<g id="edge32_Node000001_Node000023" class="edge">
<title>Node1&#45;&gt;Node23</title>
<g id="a_edge32_Node000001_Node000023"><a xlink:title=" ">
<path fill="none" stroke="#63b8ff" d="M81.33,-180.38C96.32,-158.42 136.32,-104.48 184,-78 188.17,-75.68 192.6,-73.65 197.17,-71.86"/>
<polygon fill="#63b8ff" stroke="#63b8ff" points="198.41,-75.13 206.7,-68.53 196.1,-68.53 198.41,-75.13"/>
</a>
</g>
</g>
<!-- Node24 -->
<g id="Node000024" class="node">
<title>Node24</title>
<g id="a_Node000024"><a xlink:href="classMainWindow.html#a061b3d00f9f4ec5381813290c884135b" target="_top" xlink:title="Restaura la base de datos a su estado original (vacía y luego recargada).">
<polygon fill="white" stroke="#666666" points="360,-218.5 184,-218.5 184,-199.5 360,-199.5 360,-218.5"/>
<text text-anchor="middle" x="272" y="-206.5" font-family="Helvetica,sans-Serif" font-size="10.00">MainWindow::onRestoreDefaults</text>
</a>
</g>
</g>
<!-- Node1&#45;&gt;Node24 -->
<g id="edge33_Node000001_Node000024" class="edge">
<title>Node1&#45;&gt;Node24</title>
<g id="a_edge33_Node000001_Node000024"><a xlink:title=" ">
<path fill="none" stroke="#63b8ff" d="M148.26,-197.1C156.62,-197.91 165.24,-198.75 173.85,-199.58"/>
<polygon fill="#63b8ff" stroke="#63b8ff" points="173.65,-203.08 183.94,-200.56 174.33,-196.11 173.65,-203.08"/>
</a>
</g>
</g>
<!-- Node25 -->
<g id="Node000025" class="node">
<title>Node25</title>
<g id="a_Node000025"><a xlink:href="classMainWindow.html#a294de4fcf7148338a254b10dbd5a132c" target="_top" xlink:title="Filtra la tabla en tiempo real según el texto ingresado.">
<polygon fill="white" stroke="#666666" points="337,-31.5 207,-31.5 207,-12.5 337,-12.5 337,-31.5"/>
<text text-anchor="middle" x="272" y="-19.5" font-family="Helvetica,sans-Serif" font-size="10.00">MainWindow::onSearch</text>
</a>
</g>
</g>
<!-- Node1&#45;&gt;Node25 -->
<g id="edge35_Node000001_Node000025" class="edge">
<title>Node1&#45;&gt;Node25</title>
<g id="a_edge35_Node000001_Node000025"><a xlink:title=" ">
<path fill="none" stroke="#63b8ff" d="M78.96,-180.38C90.59,-153.38 127.47,-76.49 184,-40 188.08,-37.37 192.47,-35.11 197.03,-33.18"/>
<polygon fill="#63b8ff" stroke="#63b8ff" points="198.43,-36.39 206.6,-29.64 196.01,-29.82 198.43,-36.39"/>
</a>
</g>
</g>
<!-- Node4 -->
<g id="Node000004" class="node">
<title>Node4</title>
<g id="a_Node000004"><a xlink:href="classAddDialog.html#a98fd2634696182392e30d750fec4fa35" target="_top" xlink:title=" ">
<polygon fill="white" stroke="#666666" points="540.5,-592.5 423.5,-592.5 423.5,-573.5 540.5,-573.5 540.5,-592.5"/>
<text text-anchor="middle" x="482" y="-580.5" font-family="Helvetica,sans-Serif" font-size="10.00">AddDialog::accepted</text>
</a>
</g>
</g>
<!-- Node3&#45;&gt;Node4 -->
<g id="edge3_Node000003_Node000004" class="edge">
<title>Node3&#45;&gt;Node4</title>
<g id="a_edge3_Node000003_Node000004"><a xlink:title=" ">
<path fill="none" stroke="#63b8ff" d="M296.16,-407.51C315.79,-416.68 343.34,-432.37 360,-454 391.64,-495.09 357.45,-530.3 396,-565 401.12,-569.61 407.12,-573.15 413.53,-575.85"/>
<polygon fill="#63b8ff" stroke="#63b8ff" points="412.55,-579.22 423.14,-579.24 414.87,-572.61 412.55,-579.22"/>
</a>
</g>
</g>
<!-- Node5 -->
<g id="Node000005" class="node">
<title>Node5</title>
<g id="a_Node000005"><a xlink:href="classInventoryManager.html#acb286cf95731b5a8f8b55bea861b6885" target="_top" xlink:title="Inserta un nuevo elemento en la tabla inventario.">
<polygon fill="white" stroke="#666666" points="756,-236.5 604,-236.5 604,-217.5 756,-217.5 756,-236.5"/>
<text text-anchor="middle" x="680" y="-224.5" font-family="Helvetica,sans-Serif" font-size="10.00">InventoryManager::addItem</text>
</a>
</g>
</g>
<!-- Node3&#45;&gt;Node5 -->
<g id="edge4_Node000003_Node000005" class="edge">
<title>Node3&#45;&gt;Node5</title>
<g id="a_edge4_Node000003_Node000005"><a xlink:title=" ">
<path fill="none" stroke="#63b8ff" d="M291.3,-388.44C314.93,-376.41 357.61,-355.8 396,-343 470.36,-318.21 496.26,-335.58 568,-304 603.47,-288.38 639.39,-260.85 660.41,-243.29"/>
<polygon fill="#63b8ff" stroke="#63b8ff" points="662.86,-245.8 668.21,-236.65 658.32,-240.47 662.86,-245.8"/>
</a>
</g>
</g>
<!-- Node6 -->
<g id="Node000006" class="node">
<title>Node6</title>
<g id="a_Node000006"><a xlink:href="classAddDialog.html#a5120327b094f97585324f46bf09a1224" target="_top" xlink:title=" ">
<polygon fill="white" stroke="#666666" points="541.5,-555.5 422.5,-555.5 422.5,-536.5 541.5,-536.5 541.5,-555.5"/>
<text text-anchor="middle" x="482" y="-543.5" font-family="Helvetica,sans-Serif" font-size="10.00">AddDialog::cancelled</text>
</a>
</g>
</g>
<!-- Node3&#45;&gt;Node6 -->
<g id="edge5_Node000003_Node000006" class="edge">
<title>Node3&#45;&gt;Node6</title>
<g id="a_edge5_Node000003_Node000006"><a xlink:title=" ">
<path fill="none" stroke="#63b8ff" d="M294.31,-407.55C313.52,-417.04 341.52,-433.18 360,-454 384.28,-481.36 367.18,-505.48 396,-528 400.99,-531.9 406.63,-535.01 412.58,-537.47"/>
<polygon fill="#63b8ff" stroke="#63b8ff" points="411.52,-540.81 422.12,-540.84 413.86,-534.21 411.52,-540.81"/>
</a>
</g>
</g>
<!-- Node7 -->
<g id="Node000007" class="node">
<title>Node7</title>
<g id="a_Node000007"><a xlink:href="mainwindow_8cpp.html#a62c004692be56c8a628ec733b07c4c40" target="_top" xlink:title="Convierte un objeto QDate a una cadena con formato estándar de base de datos.">
<polygon fill="white" stroke="#666666" points="520.5,-294.5 443.5,-294.5 443.5,-275.5 520.5,-275.5 520.5,-294.5"/>
<text text-anchor="middle" x="482" y="-282.5" font-family="Helvetica,sans-Serif" font-size="10.00">dateToString</text>
</a>
</g>
</g>
<!-- Node3&#45;&gt;Node7 -->
<g id="edge6_Node000003_Node000007" class="edge">
<title>Node3&#45;&gt;Node7</title>
<g id="a_edge6_Node000003_Node000007"><a xlink:title=" ">
<path fill="none" stroke="#63b8ff" d="M283.68,-388.23C304.04,-370.09 350.45,-331.05 396,-309 407.65,-303.36 420.87,-298.83 433.34,-295.29"/>
<polygon fill="#63b8ff" stroke="#63b8ff" points="434.39,-298.63 443.14,-292.66 432.58,-291.87 434.39,-298.63"/>
</a>
</g>
</g>
<!-- Node8 -->
<g id="Node000008" class="node">
<title>Node8</title>
<g id="a_Node000008"><a xlink:href="classAddDialog.html#ab6038c606013470cf474c272357d2830" target="_top" xlink:title="Obtiene la fecha de adquisición seleccionada.">
<polygon fill="white" stroke="#666666" points="538,-518.5 426,-518.5 426,-499.5 538,-499.5 538,-518.5"/>
<text text-anchor="middle" x="482" y="-506.5" font-family="Helvetica,sans-Serif" font-size="10.00">AddDialog::getDate</text>
</a>
</g>
</g>
<!-- Node3&#45;&gt;Node8 -->
<g id="edge7_Node000003_Node000008" class="edge">
<title>Node3&#45;&gt;Node8</title>
<g id="a_edge7_Node000003_Node000008"><a xlink:title=" ">
<path fill="none" stroke="#63b8ff" d="M290.46,-407.65C308.62,-418.05 337.47,-435.58 360,-454 377.76,-468.52 375.91,-479.92 396,-491 402.27,-494.45 409.13,-497.25 416.15,-499.5"/>
<polygon fill="#63b8ff" stroke="#63b8ff" points="415.21,-502.88 425.79,-502.26 417.14,-496.15 415.21,-502.88"/>
</a>
</g>
</g>
<!-- Node9 -->
<g id="Node000009" class="node">
<title>Node9</title>
<g id="a_Node000009"><a xlink:href="classAddDialog.html#acddb648cd31785710468adfd345dc9bf" target="_top" xlink:title="Obtiene la ubicación física del componente.">
<polygon fill="white" stroke="#666666" points="547,-481.5 417,-481.5 417,-462.5 547,-462.5 547,-481.5"/>
<text text-anchor="middle" x="482" y="-469.5" font-family="Helvetica,sans-Serif" font-size="10.00">AddDialog::getLocation</text>
</a>
</g>
</g>
<!-- Node3&#45;&gt;Node9 -->
<g id="edge8_Node000003_Node000009" class="edge">
<title>Node3&#45;&gt;Node9</title>
<g id="a_edge8_Node000003_Node000009"><a xlink:title=" ">
<path fill="none" stroke="#63b8ff" d="M290.84,-407.63C314.33,-419.95 357.22,-441.24 396,-454 402.8,-456.24 409.99,-458.26 417.21,-460.08"/>
<polygon fill="#63b8ff" stroke="#63b8ff" points="416.48,-463.5 427.02,-462.43 418.11,-456.7 416.48,-463.5"/>
</a>
</g>
</g>
<!-- Node10 -->
<g id="Node000010" class="node">
<title>Node10</title>
<g id="a_Node000010"><a xlink:href="classAddDialog.html#ab1cf40e875c67ed9f4afbb9c15002fd9" target="_top" xlink:title="Obtiene el nombre ingresado por el usuario.">
<polygon fill="white" stroke="#666666" points="541,-444.5 423,-444.5 423,-425.5 541,-425.5 541,-444.5"/>
<text text-anchor="middle" x="482" y="-432.5" font-family="Helvetica,sans-Serif" font-size="10.00">AddDialog::getName</text>
</a>
</g>
</g>
<!-- Node3&#45;&gt;Node10 -->
<g id="edge9_Node000003_Node000010" class="edge">
<title>Node3&#45;&gt;Node10</title>
<g id="a_edge9_Node000003_Node000010"><a xlink:title=" ">
<path fill="none" stroke="#63b8ff" d="M326.57,-407.53C354.24,-412.45 388.2,-418.49 417.21,-423.65"/>
<polygon fill="#63b8ff" stroke="#63b8ff" points="416.8,-427.13 427.26,-425.44 418.02,-420.24 416.8,-427.13"/>
</a>
</g>
</g>
<!-- Node11 -->
<g id="Node000011" class="node">
<title>Node11</title>
<g id="a_Node000011"><a xlink:href="classAddDialog.html#ace328ac19c27ec775541e29b893faeb6" target="_top" xlink:title="Obtiene la cantidad seleccionada.">
<polygon fill="white" stroke="#666666" points="547.5,-407.5 416.5,-407.5 416.5,-388.5 547.5,-388.5 547.5,-407.5"/>
<text text-anchor="middle" x="482" y="-395.5" font-family="Helvetica,sans-Serif" font-size="10.00">AddDialog::getQuantity</text>
</a>
</g>
</g>
<!-- Node3&#45;&gt;Node11 -->
<g id="edge10_Node000003_Node000011" class="edge">
<title>Node3&#45;&gt;Node11</title>
<g id="a_edge10_Node000003_Node000011"><a xlink:title=" ">
<path fill="none" stroke="#63b8ff" d="M330.11,-398C353.58,-398 381.07,-398 406.12,-398"/>
<polygon fill="#63b8ff" stroke="#63b8ff" points="406.31,-401.5 416.31,-398 406.31,-394.5 406.31,-401.5"/>
</a>
</g>
</g>
<!-- Node12 -->
<g id="Node000012" class="node">
<title>Node12</title>
<g id="a_Node000012"><a xlink:href="classAddDialog.html#a681938827598fc3404fea3175825ec04" target="_top" xlink:title="Obtiene el tipo de componente ingresado.">
<polygon fill="white" stroke="#666666" points="537.5,-370.5 426.5,-370.5 426.5,-351.5 537.5,-351.5 537.5,-370.5"/>
<text text-anchor="middle" x="482" y="-358.5" font-family="Helvetica,sans-Serif" font-size="10.00">AddDialog::getType</text>
</a>
</g>
</g>
<!-- Node3&#45;&gt;Node12 -->
<g id="edge11_Node000003_Node000012" class="edge">
<title>Node3&#45;&gt;Node12</title>
<g id="a_edge11_Node000003_Node000012"><a xlink:title=" ">
<path fill="none" stroke="#63b8ff" d="M326.57,-388.47C354.24,-383.55 388.2,-377.51 417.21,-372.35"/>
<polygon fill="#63b8ff" stroke="#63b8ff" points="418.02,-375.76 427.26,-370.56 416.8,-368.87 418.02,-375.76"/>
</a>
</g>
</g>
<!-- Node3&#45;&gt;Node13 -->
<g id="edge12_Node000003_Node000013" class="edge">
<title>Node3&#45;&gt;Node13</title>
<g id="a_edge12_Node000003_Node000013"><a xlink:title=" ">
<path fill="none" stroke="#63b8ff" d="M279.09,-388.26C295.01,-363.66 340.5,-298.77 396,-267 464.03,-228.06 494.48,-255.19 568,-228 584.97,-221.72 587.11,-215.49 604,-209 610.4,-206.54 617.23,-204.31 624.07,-202.3"/>
<polygon fill="#63b8ff" stroke="#63b8ff" points="625.34,-205.58 634.04,-199.54 623.47,-198.84 625.34,-205.58"/>
</a>
</g>
</g>
<!-- Node14&#45;&gt;Node13 -->
<g id="edge14_Node000014_Node000013" class="edge">
<title>Node14&#45;&gt;Node13</title>
<g id="a_edge14_Node000014_Node000013"><a xlink:title=" ">
<path fill="none" stroke="#63b8ff" d="M336.52,-134.36C396.6,-136.55 489.08,-142.23 568,-157 593.42,-161.76 621.32,-170.07 642.79,-177.16"/>
<polygon fill="#63b8ff" stroke="#63b8ff" points="641.87,-180.54 652.47,-180.41 644.11,-173.91 641.87,-180.54"/>
</a>
</g>
</g>
<!-- Node15 -->
<g id="Node000015" class="node">
<title>Node15</title>
<g id="a_Node000015"><a xlink:href="classInventoryManager.html#a2466a14f063a0a33ee43fb44396821fa" target="_top" xlink:title="Elimina un elemento del inventario.">
<polygon fill="white" stroke="#666666" points="568,-104.5 396,-104.5 396,-85.5 568,-85.5 568,-104.5"/>
<text text-anchor="middle" x="482" y="-92.5" font-family="Helvetica,sans-Serif" font-size="10.00">InventoryManager::removeItem</text>
</a>
</g>
</g>
<!-- Node14&#45;&gt;Node15 -->
<g id="edge15_Node000014_Node000015" class="edge">
<title>Node14&#45;&gt;Node15</title>
<g id="a_edge15_Node000014_Node000015"><a xlink:title=" ">
<path fill="none" stroke="#63b8ff" d="M325.22,-123.46C353.65,-118.27 389.02,-111.8 418.87,-106.35"/>
<polygon fill="#63b8ff" stroke="#63b8ff" points="419.55,-109.78 428.76,-104.54 418.29,-102.9 419.55,-109.78"/>
</a>
</g>
</g>
<!-- Node16&#45;&gt;Node4 -->
<g id="edge17_Node000016_Node000004" class="edge">
<title>Node16&#45;&gt;Node4</title>
<g id="a_edge17_Node000016_Node000004"><a xlink:title=" ">
<path fill="none" stroke="#63b8ff" d="M330.12,-476.79C340.84,-479.73 351.37,-484.21 360,-491 388.75,-513.61 367.18,-542.48 396,-565 401.35,-569.18 407.45,-572.45 413.86,-574.99"/>
<polygon fill="#63b8ff" stroke="#63b8ff" points="412.85,-578.34 423.44,-578.23 415.09,-571.71 412.85,-578.34"/>
</a>
</g>
</g>
<!-- Node16&#45;&gt;Node6 -->
<g id="edge18_Node000016_Node000006" class="edge">
<title>Node16&#45;&gt;Node6</title>
<g id="a_edge18_Node000016_Node000006"><a xlink:title=" ">
<path fill="none" stroke="#63b8ff" d="M330.44,-479.55C340.67,-482.27 350.94,-485.97 360,-491 380.06,-502.14 375.91,-516.92 396,-528 401.16,-530.85 406.73,-533.24 412.46,-535.26"/>
<polygon fill="#63b8ff" stroke="#63b8ff" points="411.62,-538.66 422.2,-538.31 413.71,-531.98 411.62,-538.66"/>
</a>
</g>
</g>
<!-- Node16&#45;&gt;Node8 -->
<g id="edge19_Node000016_Node000008" class="edge">
<title>Node16&#45;&gt;Node8</title>
<g id="a_edge19_Node000016_Node000008"><a xlink:title=" ">
<path fill="none" stroke="#63b8ff" d="M326.57,-481.53C354.24,-486.45 388.2,-492.49 417.21,-497.65"/>
<polygon fill="#63b8ff" stroke="#63b8ff" points="416.8,-501.13 427.26,-499.44 418.02,-494.24 416.8,-501.13"/>
</a>
</g>
</g>
<!-- Node16&#45;&gt;Node9 -->
<g id="edge21_Node000016_Node000009" class="edge">
<title>Node16&#45;&gt;Node9</title>
<g id="a_edge21_Node000016_Node000009"><a xlink:title=" ">
<path fill="none" stroke="#63b8ff" d="M330.11,-472C353.68,-472 381.32,-472 406.45,-472"/>
<polygon fill="#63b8ff" stroke="#63b8ff" points="406.68,-475.5 416.68,-472 406.68,-468.5 406.68,-475.5"/>
</a>
</g>
</g>
<!-- Node16&#45;&gt;Node10 -->
<g id="edge22_Node000016_Node000010" class="edge">
<title>Node16&#45;&gt;Node10</title>
<g id="a_edge22_Node000016_Node000010"><a xlink:title=" ">
<path fill="none" stroke="#63b8ff" d="M326.57,-462.47C354.24,-457.55 388.2,-451.51 417.21,-446.35"/>
<polygon fill="#63b8ff" stroke="#63b8ff" points="418.02,-449.76 427.26,-444.56 416.8,-442.87 418.02,-449.76"/>
</a>
</g>
</g>
<!-- Node16&#45;&gt;Node11 -->
<g id="edge23_Node000016_Node000011" class="edge">
<title>Node16&#45;&gt;Node11</title>
<g id="a_edge23_Node000016_Node000011"><a xlink:title=" ">
<path fill="none" stroke="#63b8ff" d="M291.29,-462.42C314.92,-450.38 357.59,-429.74 396,-417 403.94,-414.37 412.42,-411.98 420.84,-409.87"/>
<polygon fill="#63b8ff" stroke="#63b8ff" points="421.75,-413.25 430.65,-407.5 420.11,-406.44 421.75,-413.25"/>
</a>
</g>
</g>
<!-- Node16&#45;&gt;Node12 -->
<g id="edge24_Node000016_Node000012" class="edge">
<title>Node16&#45;&gt;Node12</title>
<g id="a_edge24_Node000016_Node000012"><a xlink:title=" ">
<path fill="none" stroke="#63b8ff" d="M290.82,-462.39C309.01,-452.2 337.66,-435.12 360,-417 377.82,-402.55 375.97,-391.19 396,-380 402.35,-376.45 409.32,-373.56 416.45,-371.22"/>
<polygon fill="#63b8ff" stroke="#63b8ff" points="417.62,-374.52 426.22,-368.34 415.64,-367.81 417.62,-374.52"/>
</a>
</g>
</g>
<!-- Node17 -->
<g id="Node000017" class="node">
<title>Node17</title>
<g id="a_Node000017"><a xlink:href="classInventoryManager.html#a9d7c6193009d6b10a2063d8ae5bfabaa" target="_top" xlink:title="Obtiene un único elemento del inventario según su id.">
<polygon fill="white" stroke="#666666" points="568,-666.5 396,-666.5 396,-647.5 568,-647.5 568,-666.5"/>
<text text-anchor="middle" x="482" y="-654.5" font-family="Helvetica,sans-Serif" font-size="10.00">InventoryManager::getItemById</text>
</a>
</g>
</g>
<!-- Node16&#45;&gt;Node17 -->
<g id="edge20_Node000016_Node000017" class="edge">
<title>Node16&#45;&gt;Node17</title>
<g id="a_edge20_Node000016_Node000017"><a xlink:title=" ">
<path fill="none" stroke="#63b8ff" d="M330.43,-475.16C341.38,-478.18 351.93,-483.11 360,-491 408.43,-538.3 347.42,-591.85 396,-639 396.97,-639.95 397.98,-640.85 399.03,-641.71"/>
<polygon fill="#63b8ff" stroke="#63b8ff" points="397.36,-644.8 407.61,-647.49 401.28,-639 397.36,-644.8"/>
</a>
</g>
</g>
<!-- Node18 -->
<g id="Node000018" class="node">
<title>Node18</title>
<g id="a_Node000018"><a xlink:href="classInventoryManager.html#ac9a100ac0e1fbbfd270a750b420bb88f" target="_top" xlink:title="Actualiza todos los campos de un elemento del inventario.">
<polygon fill="white" stroke="#666666" points="566,-629.5 398,-629.5 398,-610.5 566,-610.5 566,-629.5"/>
<text text-anchor="middle" x="482" y="-617.5" font-family="Helvetica,sans-Serif" font-size="10.00">InventoryManager::updateItem</text>
</a>
</g>
</g>
<!-- Node16&#45;&gt;Node18 -->
<g id="edge25_Node000016_Node000018" class="edge">
<title>Node16&#45;&gt;Node18</title>
<g id="a_edge25_Node000016_Node000018"><a xlink:title=" ">
<path fill="none" stroke="#63b8ff" d="M330.44,-475.75C341.26,-478.75 351.75,-483.53 360,-491 398.44,-525.82 357.45,-567.3 396,-602 397.16,-603.04 398.36,-604.03 399.6,-604.96"/>
<polygon fill="#63b8ff" stroke="#63b8ff" points="397.96,-608.07 408.29,-610.4 401.67,-602.13 397.96,-608.07"/>
</a>
</g>
</g>
<!-- Node20 -->
<g id="Node000020" class="node">
<title>Node20</title>
<g id="a_Node000020"><a xlink:href="classCSVReport.html#a5051c763dbb1b15197528448727af40e" target="_top" xlink:title="Genera un archivo CSV con la lista de items proporcionada.">
<polygon fill="white" stroke="#666666" points="541,-67.5 423,-67.5 423,-48.5 541,-48.5 541,-67.5"/>
<text text-anchor="middle" x="482" y="-55.5" font-family="Helvetica,sans-Serif" font-size="10.00">CSVReport::generate</text>
</a>
</g>
</g>
<!-- Node19&#45;&gt;Node20 -->
<g id="edge27_Node000019_Node000020" class="edge">
<title>Node19&#45;&gt;Node20</title>
<g id="a_edge27_Node000019_Node000020"><a xlink:title=" ">
<path fill="none" stroke="#63b8ff" d="M325.22,-86.46C353.65,-81.27 389.02,-74.8 418.87,-69.35"/>
<polygon fill="#63b8ff" stroke="#63b8ff" points="419.55,-72.78 428.76,-67.54 418.29,-65.9 419.55,-72.78"/>
</a>
</g>
</g>
<!-- Node21 -->
<g id="Node000021" class="node">
<title>Node21</title>
<g id="a_Node000021"><a xlink:href="classInventoryManager.html#aea0e4299cec1881036f2176c23323b74" target="_top" xlink:title="Obtiene todos los registros almacenados en la tabla inventario.">
<polygon fill="white" stroke="#666666" points="552,-30 412,-30 412,0 552,0 552,-30"/>
<text text-anchor="start" x="420" y="-18" font-family="Helvetica,sans-Serif" font-size="10.00">InventoryManager::getAll</text>
<text text-anchor="middle" x="482" y="-7" font-family="Helvetica,sans-Serif" font-size="10.00">Items</text>
</a>
</g>
</g>
<!-- Node19&#45;&gt;Node21 -->
<g id="edge28_Node000019_Node000021" class="edge">
<title>Node19&#45;&gt;Node21</title>
<g id="a_edge28_Node000019_Node000021"><a xlink:title=" ">
<path fill="none" stroke="#63b8ff" d="M336.02,-87.86C344.39,-85.39 352.62,-82.18 360,-78 380.53,-66.39 375.89,-51.34 396,-39 398.81,-37.28 401.75,-35.67 404.77,-34.18"/>
<polygon fill="#63b8ff" stroke="#63b8ff" points="406.36,-37.31 414.06,-30.04 403.5,-30.91 406.36,-37.31"/>
</a>
</g>
</g>
<!-- Node22&#45;&gt;Node5 -->
<g id="edge30_Node000022_Node000005" class="edge">
<title>Node22&#45;&gt;Node5</title>
<g id="a_edge30_Node000022_Node000005"><a xlink:title=" ">
<path fill="none" stroke="#63b8ff" d="M562.72,-216.32C572.9,-217.26 583.34,-218.22 593.6,-219.16"/>
<polygon fill="#63b8ff" stroke="#63b8ff" points="593.5,-222.66 603.78,-220.09 594.14,-215.69 593.5,-222.66"/>
</a>
</g>
</g>
<!-- Node22&#45;&gt;Node13 -->
<g id="edge31_Node000022_Node000013" class="edge">
<title>Node22&#45;&gt;Node13</title>
<g id="a_edge31_Node000022_Node000013"><a xlink:title=" ">
<path fill="none" stroke="#63b8ff" d="M562.72,-201.27C573.4,-200.24 584.39,-199.17 595.14,-198.13"/>
<polygon fill="#63b8ff" stroke="#63b8ff" points="595.74,-201.59 605.35,-197.14 595.06,-194.62 595.74,-201.59"/>
</a>
</g>
</g>
<!-- Node24&#45;&gt;Node22 -->
<g id="edge34_Node000024_Node000022" class="edge">
<title>Node24&#45;&gt;Node22</title>
<g id="a_edge34_Node000024_Node000022"><a xlink:title=" ">
<path fill="none" stroke="#63b8ff" d="M360.01,-209C370.28,-209 380.77,-209 391.08,-209"/>
<polygon fill="#63b8ff" stroke="#63b8ff" points="391.31,-212.5 401.31,-209 391.31,-205.5 391.31,-212.5"/>
</a>
</g>
</g>
</g>
</svg>

<g id="navigator" transform="translate(0 0)" fill="#404254">
  <rect fill="#f2f5e9" fill-opacity="0.5" stroke="#606060" stroke-width=".5" x="0" y="0" width="60" height="60"/>
  <use id="zoomplus" xlink:href="#zoomPlus" x="17" y="9" onmousedown="handleZoom(evt,'in')"/>
  <use id="zoomminus" xlink:href="#zoomMin" x="42" y="9" onmousedown="handleZoom(evt,'out')"/>
  <use id="reset" xlink:href="#resetDef" x="30" y="36" onmousedown="handleReset()"/>
   <use id="arrowup" xlink:href="#arrowUp" x="0" y="0" onmousedown="handlePan(0,-1)"/>
  <use id="arrowright" xlink:href="#arrowRight" x="0" y="0" onmousedown="handlePan(1,0)"/>
  <use id="arrowdown" xlink:href="#arrowDown" x="0" y="0" onmousedown="handlePan(0,1)"/>
  <use id="arrowleft" xlink:href="#arrowLeft" x="0" y="0" onmousedown="handlePan(-1,0)"/>
</g>
<svg viewBox="0 0 15 15" width="100%" height="30px" preserveAspectRatio="xMaxYMin meet">
 <g id="arrow_out" transform="scale(0.3 0.3)">
  <a xlink:href="classMainWindow_af6ed98f8230fd8f941c6cb7732160ed5_cgraph_org.svg" target="_base">
   <rect id="button" ry="5" rx="5" y="6" x="6" height="38" width="38"
        fill="#f2f5e9" fill-opacity="0.5" stroke="#606060" stroke-width="1.0"/>
   <path id="arrow"
     d="M 11.500037,31.436501 C 11.940474,20.09759 22.043105,11.32322 32.158766,21.979434 L 37.068811,17.246167 C 37.068811,17.246167 37.088388,32 37.088388,32 L 22.160133,31.978069 C 22.160133,31.978069 26.997745,27.140456 26.997745,27.140456 C 18.528582,18.264221 13.291696,25.230495 11.500037,31.436501 z"
     style="fill:#404040;"/>
  </a>
 </g>
</svg>

<style type='text/css'>
<![CDATA[
[data-mouse-over-selected='false'] { opacity: 0.7; }
[data-mouse-over-selected='true']  { opacity: 1.0; }
]]>
</style>
<script type="application/ecmascript"><![CDATA[
document.addEventListener('DOMContentLoaded', (event) => {
  highlightEdges();
  highlightAdjacentNodes();
});
]]></script>
</svg>
