<?xml version="1.0" encoding="UTF-8" standalone="no"?>
<!DOCTYPE svg PUBLIC "-//W3C//DTD SVG 1.1//EN"
 "http://www.w3.org/Graphics/SVG/1.1/DTD/svg11.dtd">
<!-- Generated by graphviz version 2.43.0 (0)
 -->
<!-- Title: MainWindow::onLoadDefaults Pages: 1 -->
<svg width="565pt" height="46pt"
 viewBox="0.00 0.00 565.00 46.00" xmlns="http://www.w3.org/2000/svg" xmlns:xlink="http://www.w3.org/1999/xlink">
<g id="graph0" class="graph" transform="scale(1 1) rotate(0) translate(4 42)">
<title>MainWindow::onLoadDefaults</title>
<!-- Node1 -->
<g id="Node000001" class="node">
<title>Node1</title>
<g id="a_Node000001"><a xlink:title="Carga un conjunto de datos de prueba (Seed Data).">
<polygon fill="#999999" stroke="#666666" points="557,-38 396,-38 396,-19 557,-19 557,-38"/>
<text text-anchor="middle" x="476.5" y="-26" font-family="Helvetica,sans-Serif" font-size="10.00">MainWindow::onLoadDefaults</text>
</a>
</g>
</g>
<!-- Node2 -->
<g id="Node000002" class="node">
<title>Node2</title>
<g id="a_Node000002"><a xlink:href="classMainWindow.html#af6ed98f8230fd8f941c6cb7732160ed5" target="_top" xlink:title="Constructor de la ventana principal.">
<polygon fill="white" stroke="#666666" points="148,-38 0,-38 0,-19 148,-19 148,-38"/>
<text text-anchor="middle" x="74" y="-26" font-family="Helvetica,sans-Serif" font-size="10.00">MainWindow::MainWindow</text>
</a>
</g>
</g>
<!-- Node1&#45;&gt;Node2 -->
<g id="edge1_Node000001_Node000002" class="edge">
<title>Node1&#45;&gt;Node2</title>
<g id="a_edge1_Node000001_Node000002"><a xlink:title=" ">
<path fill="none" stroke="#63b8ff" d="M385.53,-28.5C313.88,-28.5 214.85,-28.5 148.05,-28.5"/>
<polygon fill="#63b8ff" stroke="#63b8ff" points="385.9,-32 395.9,-28.5 385.9,-25 385.9,-32"/>
</a>
</g>
</g>
<!-- Node3 -->
<g id="Node000003" class="node">
<title>Node3</title>
<g id="a_Node000003"><a xlink:href="classMainWindow.html#a061b3d00f9f4ec5381813290c884135b" target="_top" xlink:title="Restaura la base de datos a su estado original (vacía y luego recargada).">
<polygon fill="white" stroke="#666666" points="360,-19 184,-19 184,0 360,0 360,-19"/>
<text text-anchor="middle" x="272" y="-7" font-family="Helvetica,sans-Serif" font-size="10.00">MainWindow::onRestoreDefaults</text>
</a>
</g>
</g>
<!-- Node1&#45;&gt;Node3 -->
<g id="edge2_Node000001_Node000003" class="edge">
<title>Node1&#45;&gt;Node3</title>
<g id="a_edge2_Node000001_Node000003"><a xlink:title=" ">
<path fill="none" stroke="#63b8ff" d="M385.78,-20.08C377.22,-19.28 368.55,-18.47 360.02,-17.66"/>
<polygon fill="#63b8ff" stroke="#63b8ff" points="385.47,-23.57 395.76,-21.02 386.13,-16.6 385.47,-23.57"/>
</a>
</g>
</g>
<!-- Node3&#45;&gt;Node2 -->
<g id="edge3_Node000003_Node000002" class="edge">
<title>Node3&#45;&gt;Node2</title>
<g id="a_edge3_Node000003_Node000002"><a xlink:title=" ">
<path fill="none" stroke="#63b8ff" d="M173.76,-18.93C165.12,-19.76 156.46,-20.6 148.07,-21.42"/>
<polygon fill="#63b8ff" stroke="#63b8ff" points="174.27,-22.39 183.89,-17.94 173.6,-15.43 174.27,-22.39"/>
</a>
</g>
</g>
</g>
</svg>
