<?xml version="1.0" encoding="UTF-8" standalone="no"?>
<!DOCTYPE svg PUBLIC "-//W3C//DTD SVG 1.1//EN"
 "http://www.w3.org/Graphics/SVG/1.1/DTD/svg11.dtd">
<!-- Generated by graphviz version 2.43.0 (0)
 -->
<!-- Title: InventoryManager::getAllItems Pages: 1 -->
<svg width="496pt" height="38pt"
 viewBox="0.00 0.00 496.00 38.00" xmlns="http://www.w3.org/2000/svg" xmlns:xlink="http://www.w3.org/1999/xlink">
<g id="graph0" class="graph" transform="scale(1 1) rotate(0) translate(4 34)">
<title>InventoryManager::getAllItems</title>
<!-- Node1 -->
<g id="Node000001" class="node">
<title>Node1</title>
<g id="a_Node000001"><a xlink:title="Obtiene todos los registros almacenados en la tabla inventario.">
<polygon fill="#999999" stroke="#666666" points="488,-30 348,-30 348,0 488,0 488,-30"/>
<text text-anchor="start" x="356" y="-18" font-family="Helvetica,sans-Serif" font-size="10.00">InventoryManager::getAll</text>
<text text-anchor="middle" x="418" y="-7" font-family="Helvetica,sans-Serif" font-size="10.00">Items</text>
</a>
</g>
</g>
<!-- Node2 -->
<g id="Node000002" class="node">
<title>Node2</title>
<g id="a_Node000002"><a xlink:href="classMainWindow.html#aae43dfb8457343a5cd68ae9e4f0947b3" target="_top" xlink:title="Genera y exporta un reporte del inventario en formato CSV.">
<polygon fill="white" stroke="#666666" points="312,-24.5 184,-24.5 184,-5.5 312,-5.5 312,-24.5"/>
<text text-anchor="middle" x="248" y="-12.5" font-family="Helvetica,sans-Serif" font-size="10.00">MainWindow::onExport</text>
</a>
</g>
</g>
<!-- Node1&#45;&gt;Node2 -->
<g id="edge1_Node000001_Node000002" class="edge">
<title>Node1&#45;&gt;Node2</title>
<g id="a_edge1_Node000001_Node000002"><a xlink:title=" ">
<path fill="none" stroke="#63b8ff" d="M337.43,-15C328.97,-15 320.45,-15 312.22,-15"/>
<polygon fill="#63b8ff" stroke="#63b8ff" points="337.7,-18.5 347.7,-15 337.7,-11.5 337.7,-18.5"/>
</a>
</g>
</g>
<!-- Node3 -->
<g id="Node000003" class="node">
<title>Node3</title>
<g id="a_Node000003"><a xlink:href="classMainWindow.html#af6ed98f8230fd8f941c6cb7732160ed5" target="_top" xlink:title="Constructor de la ventana principal.">
<polygon fill="white" stroke="#666666" points="148,-24.5 0,-24.5 0,-5.5 148,-5.5 148,-24.5"/>
<text text-anchor="middle" x="74" y="-12.5" font-family="Helvetica,sans-Serif" font-size="10.00">MainWindow::MainWindow</text>
</a>
</g>
</g>
<!-- Node2&#45;&gt;Node3 -->
<g id="edge2_Node000002_Node000003" class="edge">
<title>Node2&#45;&gt;Node3</title>
<g id="a_edge2_Node000002_Node000003"><a xlink:title=" ">
<path fill="none" stroke="#63b8ff" d="M173.74,-15C165.3,-15 156.7,-15 148.26,-15"/>
<polygon fill="#63b8ff" stroke="#63b8ff" points="173.93,-18.5 183.93,-15 173.93,-11.5 173.93,-18.5"/>
</a>
</g>
</g>
</g>
</svg>
