<?xml version="1.0" encoding="UTF-8" standalone="no"?>
<!DOCTYPE svg PUBLIC "-//W3C//DTD SVG 1.1//EN"
 "http://www.w3.org/Graphics/SVG/1.1/DTD/svg11.dtd">
<!-- Generated by graphviz version 2.43.0 (0)
 -->
<!-- Title: AddDialog::AddDialog Pages: 1 -->
<svg width="440pt" height="64pt"
 viewBox="0.00 0.00 440.00 64.00" xmlns="http://www.w3.org/2000/svg" xmlns:xlink="http://www.w3.org/1999/xlink">

<svg id="main" version="1.1" xmlns="http://www.w3.org/2000/svg" xmlns:xlink="http://www.w3.org/1999/xlink" xml:space="preserve" onload="init(evt)">
<style type="text/css"><![CDATA[
.node, .edge {opacity: 0.7;}
.node.selected, .edge.selected {opacity: 1;}
.edge:hover path { stroke: red; }
.edge:hover polygon { stroke: red; fill: red; }
]]></style>
<script type="application/ecmascript" xlink:href="svg.min.js"/>
<svg id="graph" class="graph">
<g id="graph0" class="graph" transform="scale(1 1) rotate(0) translate(4 60)">
<title>AddDialog::AddDialog</title>
<!-- Node1 -->
<g id="Node000001" class="node">
<title>Node1</title>
<g id="a_Node000001"><a xlink:title="Constructor de la clase AddDialog.">
<polygon fill="#999999" stroke="#666666" points="123,-37 0,-37 0,-18 123,-18 123,-37"/>
<text text-anchor="middle" x="61.5" y="-25" font-family="Helvetica,sans-Serif" font-size="10.00">AddDialog::AddDialog</text>
</a>
</g>
</g>
<!-- Node2 -->
<g id="Node000002" class="node">
<title>Node2</title>
<g id="a_Node000002"><a xlink:href="classAddDialog.html#a3f35887c64e8de108ef4e45850d560a9" target="_top" xlink:title="Slot llamado al presionar &quot;Cancelar&quot;.">
<polygon fill="white" stroke="#666666" points="277,-56 159,-56 159,-37 277,-37 277,-56"/>
<text text-anchor="middle" x="218" y="-44" font-family="Helvetica,sans-Serif" font-size="10.00">AddDialog::onCancel</text>
</a>
</g>
</g>
<!-- Node1&#45;&gt;Node2 -->
<g id="edge1_Node000001_Node000002" class="edge">
<title>Node1&#45;&gt;Node2</title>
<g id="a_edge1_Node000001_Node000002"><a xlink:title=" ">
<path fill="none" stroke="#63b8ff" d="M123.12,-34.95C131.57,-35.99 140.29,-37.07 148.86,-38.12"/>
<polygon fill="#63b8ff" stroke="#63b8ff" points="148.48,-41.6 158.83,-39.35 149.33,-34.65 148.48,-41.6"/>
</a>
</g>
</g>
<!-- Node4 -->
<g id="Node000004" class="node">
<title>Node4</title>
<g id="a_Node000004"><a xlink:href="classAddDialog.html#a78803d57593ddd157af57178901297ff" target="_top" xlink:title="Slot llamado al presionar &quot;Agregar/Aceptar&quot;.">
<polygon fill="white" stroke="#666666" points="267,-19 169,-19 169,0 267,0 267,-19"/>
<text text-anchor="middle" x="218" y="-7" font-family="Helvetica,sans-Serif" font-size="10.00">AddDialog::onOk</text>
</a>
</g>
</g>
<!-- Node1&#45;&gt;Node4 -->
<g id="edge3_Node000001_Node000004" class="edge">
<title>Node1&#45;&gt;Node4</title>
<g id="a_edge3_Node000001_Node000004"><a xlink:title=" ">
<path fill="none" stroke="#63b8ff" d="M123.12,-20.44C134.89,-19.07 147.2,-17.63 158.89,-16.27"/>
<polygon fill="#63b8ff" stroke="#63b8ff" points="159.44,-19.73 168.97,-15.1 158.63,-12.78 159.44,-19.73"/>
</a>
</g>
</g>
<!-- Node3 -->
<g id="Node000003" class="node">
<title>Node3</title>
<g id="a_Node000003"><a xlink:href="classAddDialog.html#a5120327b094f97585324f46bf09a1224" target="_top" xlink:title=" ">
<polygon fill="white" stroke="#666666" points="432,-56 313,-56 313,-37 432,-37 432,-56"/>
<text text-anchor="middle" x="372.5" y="-44" font-family="Helvetica,sans-Serif" font-size="10.00">AddDialog::cancelled</text>
</a>
</g>
</g>
<!-- Node2&#45;&gt;Node3 -->
<g id="edge2_Node000002_Node000003" class="edge">
<title>Node2&#45;&gt;Node3</title>
<g id="a_edge2_Node000002_Node000003"><a xlink:title=" ">
<path fill="none" stroke="#63b8ff" d="M277.09,-46.5C285.5,-46.5 294.22,-46.5 302.81,-46.5"/>
<polygon fill="#63b8ff" stroke="#63b8ff" points="302.81,-50 312.81,-46.5 302.81,-43 302.81,-50"/>
</a>
</g>
</g>
<!-- Node5 -->
<g id="Node000005" class="node">
<title>Node5</title>
<g id="a_Node000005"><a xlink:href="classAddDialog.html#a98fd2634696182392e30d750fec4fa35" target="_top" xlink:title=" ">
<polygon fill="white" stroke="#666666" points="431,-19 314,-19 314,0 431,0 431,-19"/>
<text text-anchor="middle" x="372.5" y="-7" font-family="Helvetica,sans-Serif" font-size="10.00">AddDialog::accepted</text>
</a>
</g>
</g>
<!-- Node4&#45;&gt;Node5 -->
<g id="edge4_Node000004_Node000005" class="edge">
<title>Node4&#45;&gt;Node5</title>
<g id="a_edge4_Node000004_Node000005"><a xlink:title=" ">
<path fill="none" stroke="#63b8ff" d="M267.25,-9.5C278.84,-9.5 291.43,-9.5 303.73,-9.5"/>
<polygon fill="#63b8ff" stroke="#63b8ff" points="303.95,-13 313.95,-9.5 303.95,-6 303.95,-13"/>
</a>
</g>
</g>
</g>
</svg>
</svg>

<style type='text/css'>
<![CDATA[
[data-mouse-over-selected='false'] { opacity: 0.7; }
[data-mouse-over-selected='true']  { opacity: 1.0; }
]]>
</style>
<script type="application/ecmascript"><![CDATA[
document.addEventListener('DOMContentLoaded', (event) => {
  highlightEdges();
  highlightAdjacentNodes();
});
]]></script>
</svg>
