<?xml version="1.0" encoding="UTF-8" standalone="no"?>
<!DOCTYPE svg PUBLIC "-//W3C//DTD SVG 1.1//EN"
 "http://www.w3.org/Graphics/SVG/1.1/DTD/svg11.dtd">
<!-- Generated by graphviz version 2.43.0 (0)
 -->
<!-- Title: MainWindow::onRestoreDefaults Pages: 1 -->
<svg width="569pt" height="64pt"
 viewBox="0.00 0.00 569.00 64.00" xmlns="http://www.w3.org/2000/svg" xmlns:xlink="http://www.w3.org/1999/xlink">
<g id="graph0" class="graph" transform="scale(1 1) rotate(0) translate(4 60)">
<title>MainWindow::onRestoreDefaults</title>
<!-- Node1 -->
<g id="Node000001" class="node">
<title>Node1</title>
<g id="a_Node000001"><a xlink:title="Restaura la base de datos a su estado original (vacía y luego recargada).">
<polygon fill="#999999" stroke="#666666" points="176,-37 0,-37 0,-18 176,-18 176,-37"/>
<text text-anchor="middle" x="88" y="-25" font-family="Helvetica,sans-Serif" font-size="10.00">MainWindow::onRestoreDefaults</text>
</a>
</g>
</g>
<!-- Node2 -->
<g id="Node000002" class="node">
<title>Node2</title>
<g id="a_Node000002"><a xlink:href="classMainWindow.html#aec037789de5a4356126afe86a8831276" target="_top" xlink:title="Carga un conjunto de datos de prueba (Seed Data).">
<polygon fill="white" stroke="#666666" points="373,-37 212,-37 212,-18 373,-18 373,-37"/>
<text text-anchor="middle" x="292.5" y="-25" font-family="Helvetica,sans-Serif" font-size="10.00">MainWindow::onLoadDefaults</text>
</a>
</g>
</g>
<!-- Node1&#45;&gt;Node2 -->
<g id="edge1_Node000001_Node000002" class="edge">
<title>Node1&#45;&gt;Node2</title>
<g id="a_edge1_Node000001_Node000002"><a xlink:title=" ">
<path fill="none" stroke="#63b8ff" d="M176.05,-27.5C184.61,-27.5 193.3,-27.5 201.87,-27.5"/>
<polygon fill="#63b8ff" stroke="#63b8ff" points="201.88,-31 211.88,-27.5 201.88,-24 201.88,-31"/>
</a>
</g>
</g>
<!-- Node3 -->
<g id="Node000003" class="node">
<title>Node3</title>
<g id="a_Node000003"><a xlink:href="classInventoryManager.html#acb286cf95731b5a8f8b55bea861b6885" target="_top" xlink:title="Inserta un nuevo elemento en la tabla inventario.">
<polygon fill="white" stroke="#666666" points="561,-56 409,-56 409,-37 561,-37 561,-56"/>
<text text-anchor="middle" x="485" y="-44" font-family="Helvetica,sans-Serif" font-size="10.00">InventoryManager::addItem</text>
</a>
</g>
</g>
<!-- Node2&#45;&gt;Node3 -->
<g id="edge2_Node000002_Node000003" class="edge">
<title>Node2&#45;&gt;Node3</title>
<g id="a_edge2_Node000002_Node000003"><a xlink:title=" ">
<path fill="none" stroke="#63b8ff" d="M373.19,-35.45C381.69,-36.3 390.36,-37.16 398.92,-38.01"/>
<polygon fill="#63b8ff" stroke="#63b8ff" points="398.6,-41.5 408.9,-39.01 399.29,-34.53 398.6,-41.5"/>
</a>
</g>
</g>
<!-- Node4 -->
<g id="Node000004" class="node">
<title>Node4</title>
<g id="a_Node000004"><a xlink:href="classMainWindow.html#ae709637342f1faac100901a15e338308" target="_top" xlink:title="Actualiza la vista recargando los datos desde la base de datos SQL.">
<polygon fill="white" stroke="#666666" points="559.5,-19 410.5,-19 410.5,0 559.5,0 559.5,-19"/>
<text text-anchor="middle" x="485" y="-7" font-family="Helvetica,sans-Serif" font-size="10.00">MainWindow::refreshModel</text>
</a>
</g>
</g>
<!-- Node2&#45;&gt;Node4 -->
<g id="edge3_Node000002_Node000004" class="edge">
<title>Node2&#45;&gt;Node4</title>
<g id="a_edge3_Node000002_Node000004"><a xlink:title=" ">
<path fill="none" stroke="#63b8ff" d="M373.19,-19.97C382.15,-19.12 391.3,-18.26 400.31,-17.41"/>
<polygon fill="#63b8ff" stroke="#63b8ff" points="400.79,-20.88 410.41,-16.45 400.13,-13.91 400.79,-20.88"/>
</a>
</g>
</g>
</g>
</svg>
