<?xml version="1.0" encoding="UTF-8" standalone="no"?>
<!DOCTYPE svg PUBLIC "-//W3C//DTD SVG 1.1//EN"
 "http://www.w3.org/Graphics/SVG/1.1/DTD/svg11.dtd">
<!-- Generated by graphviz version 2.43.0 (0)
 -->
<!-- Title: MainWindow::refreshModel Pages: 1 -->
<svg width="750pt" height="167pt"
 viewBox="0.00 0.00 750.00 166.69" xmlns="http://www.w3.org/2000/svg" xmlns:xlink="http://www.w3.org/1999/xlink">
<g id="graph0" class="graph" transform="scale(1 1) rotate(0) translate(4 162.69)">
<title>MainWindow::refreshModel</title>
<!-- Node1 -->
<g id="Node000001" class="node">
<title>Node1</title>
<g id="a_Node000001"><a xlink:title="Actualiza la vista recargando los datos desde la base de datos SQL.">
<polygon fill="#999999" stroke="#666666" points="742,-114 593,-114 593,-95 742,-95 742,-114"/>
<text text-anchor="middle" x="667.5" y="-102" font-family="Helvetica,sans-Serif" font-size="10.00">MainWindow::refreshModel</text>
</a>
</g>
</g>
<!-- Node2 -->
<g id="Node000002" class="node">
<title>Node2</title>
<g id="a_Node000002"><a xlink:href="classMainWindow.html#af6ed98f8230fd8f941c6cb7732160ed5" target="_top" xlink:title="Constructor de la ventana principal.">
<polygon fill="white" stroke="#666666" points="148,-95 0,-95 0,-76 148,-76 148,-95"/>
<text text-anchor="middle" x="74" y="-83" font-family="Helvetica,sans-Serif" font-size="10.00">MainWindow::MainWindow</text>
</a>
</g>
</g>
<!-- Node1&#45;&gt;Node2 -->
<g id="edge1_Node000001_Node000002" class="edge">
<title>Node1&#45;&gt;Node2</title>
<g id="a_edge1_Node000001_Node000002"><a xlink:title=" ">
<path fill="none" stroke="#63b8ff" d="M624.25,-116.66C539.44,-139.16 342.98,-181.56 184,-142.5 146.67,-133.33 107.95,-108.87 88.25,-95.16"/>
<polygon fill="#63b8ff" stroke="#63b8ff" points="625.29,-120.01 634.03,-114.02 623.46,-113.25 625.29,-120.01"/>
</a>
</g>
</g>
<!-- Node3 -->
<g id="Node000003" class="node">
<title>Node3</title>
<g id="a_Node000003"><a xlink:href="classMainWindow.html#a31750b622110b0edfcd341556c44ef3c" target="_top" xlink:title="Abre el diálogo para agregar un nuevo componente al inventario.">
<polygon fill="white" stroke="#666666" points="330,-133 214,-133 214,-114 330,-114 330,-133"/>
<text text-anchor="middle" x="272" y="-121" font-family="Helvetica,sans-Serif" font-size="10.00">MainWindow::onAdd</text>
</a>
</g>
</g>
<!-- Node1&#45;&gt;Node3 -->
<g id="edge2_Node000001_Node000003" class="edge">
<title>Node1&#45;&gt;Node3</title>
<g id="a_edge2_Node000001_Node000003"><a xlink:title=" ">
<path fill="none" stroke="#63b8ff" d="M582.92,-108.54C506.89,-112.21 396.69,-117.53 330.23,-120.74"/>
<polygon fill="#63b8ff" stroke="#63b8ff" points="583.13,-112.03 592.95,-108.05 582.79,-105.04 583.13,-112.03"/>
</a>
</g>
</g>
<!-- Node4 -->
<g id="Node000004" class="node">
<title>Node4</title>
<g id="a_Node000004"><a xlink:href="classMainWindow.html#a3f29a7235acf922406190b6477167a80" target="_top" xlink:title="Elimina el registro seleccionado en la tabla.">
<polygon fill="white" stroke="#666666" points="541,-95 412,-95 412,-76 541,-76 541,-95"/>
<text text-anchor="middle" x="476.5" y="-83" font-family="Helvetica,sans-Serif" font-size="10.00">MainWindow::onDelete</text>
</a>
</g>
</g>
<!-- Node1&#45;&gt;Node4 -->
<g id="edge4_Node000001_Node000004" class="edge">
<title>Node1&#45;&gt;Node4</title>
<g id="a_edge4_Node000001_Node000004"><a xlink:title=" ">
<path fill="none" stroke="#63b8ff" d="M582.77,-96.08C568.78,-94.68 554.47,-93.24 541.09,-91.89"/>
<polygon fill="#63b8ff" stroke="#63b8ff" points="582.59,-99.58 592.89,-97.1 583.29,-92.62 582.59,-99.58"/>
</a>
</g>
</g>
<!-- Node5 -->
<g id="Node000005" class="node">
<title>Node5</title>
<g id="a_Node000005"><a xlink:href="classMainWindow.html#aec037789de5a4356126afe86a8831276" target="_top" xlink:title="Carga un conjunto de datos de prueba (Seed Data).">
<polygon fill="white" stroke="#666666" points="557,-57 396,-57 396,-38 557,-38 557,-57"/>
<text text-anchor="middle" x="476.5" y="-45" font-family="Helvetica,sans-Serif" font-size="10.00">MainWindow::onLoadDefaults</text>
</a>
</g>
</g>
<!-- Node1&#45;&gt;Node5 -->
<g id="edge6_Node000001_Node000005" class="edge">
<title>Node1&#45;&gt;Node5</title>
<g id="a_edge6_Node000001_Node000005"><a xlink:title=" ">
<path fill="none" stroke="#63b8ff" d="M630.54,-91.55C609.28,-84.09 581.76,-74.79 557,-67.5 544.44,-63.8 530.64,-60.18 518.11,-57.06"/>
<polygon fill="#63b8ff" stroke="#63b8ff" points="629.54,-94.9 640.14,-94.93 631.87,-88.3 629.54,-94.9"/>
</a>
</g>
</g>
<!-- Node3&#45;&gt;Node2 -->
<g id="edge3_Node000003_Node000002" class="edge">
<title>Node3&#45;&gt;Node2</title>
<g id="a_edge3_Node000003_Node000002"><a xlink:title=" ">
<path fill="none" stroke="#63b8ff" d="M211.74,-112.01C183.77,-106.59 150.79,-100.19 124.23,-95.04"/>
<polygon fill="#63b8ff" stroke="#63b8ff" points="211.31,-115.49 221.79,-113.96 212.64,-108.62 211.31,-115.49"/>
</a>
</g>
</g>
<!-- Node4&#45;&gt;Node2 -->
<g id="edge5_Node000004_Node000002" class="edge">
<title>Node4&#45;&gt;Node2</title>
<g id="a_edge5_Node000004_Node000002"><a xlink:title=" ">
<path fill="none" stroke="#63b8ff" d="M401.22,-85.5C329.01,-85.5 220.01,-85.5 148.18,-85.5"/>
<polygon fill="#63b8ff" stroke="#63b8ff" points="401.6,-89 411.6,-85.5 401.6,-82 401.6,-89"/>
</a>
</g>
</g>
<!-- Node5&#45;&gt;Node2 -->
<g id="edge7_Node000005_Node000002" class="edge">
<title>Node5&#45;&gt;Node2</title>
<g id="a_edge7_Node000005_Node000002"><a xlink:title=" ">
<path fill="none" stroke="#63b8ff" d="M385.53,-56.04C313.88,-62.84 214.85,-72.23 148.05,-78.57"/>
<polygon fill="#63b8ff" stroke="#63b8ff" points="386.27,-59.48 395.9,-55.05 385.61,-52.51 386.27,-59.48"/>
</a>
</g>
</g>
<!-- Node6 -->
<g id="Node000006" class="node">
<title>Node6</title>
<g id="a_Node000006"><a xlink:href="classMainWindow.html#a061b3d00f9f4ec5381813290c884135b" target="_top" xlink:title="Restaura la base de datos a su estado original (vacía y luego recargada).">
<polygon fill="white" stroke="#666666" points="360,-19 184,-19 184,0 360,0 360,-19"/>
<text text-anchor="middle" x="272" y="-7" font-family="Helvetica,sans-Serif" font-size="10.00">MainWindow::onRestoreDefaults</text>
</a>
</g>
</g>
<!-- Node5&#45;&gt;Node6 -->
<g id="edge8_Node000005_Node000006" class="edge">
<title>Node5&#45;&gt;Node6</title>
<g id="a_edge8_Node000005_Node000006"><a xlink:title=" ">
<path fill="none" stroke="#63b8ff" d="M414.65,-36.08C385.68,-30.64 351.42,-24.22 323.86,-19.04"/>
<polygon fill="#63b8ff" stroke="#63b8ff" points="414.19,-39.56 424.66,-37.96 415.48,-32.68 414.19,-39.56"/>
</a>
</g>
</g>
<!-- Node6&#45;&gt;Node2 -->
<g id="edge9_Node000006_Node000002" class="edge">
<title>Node6&#45;&gt;Node2</title>
<g id="a_edge9_Node000006_Node000002"><a xlink:title=" ">
<path fill="none" stroke="#63b8ff" d="M220.69,-21.76C208.54,-25.16 195.7,-29.13 184,-33.5 150.8,-45.89 113.93,-64.58 92.71,-75.86"/>
<polygon fill="#63b8ff" stroke="#63b8ff" points="221.95,-25.04 230.68,-19.04 220.12,-18.29 221.95,-25.04"/>
</a>
</g>
</g>
</g>
</svg>
