<?xml version="1.0" encoding="UTF-8" standalone="no"?>
<!DOCTYPE svg PUBLIC "-//W3C//DTD SVG 1.1//EN"
 "http://www.w3.org/Graphics/SVG/1.1/DTD/svg11.dtd">
<!-- Generated by graphviz version 2.43.0 (0)
 -->
<!-- Title: MainWindow::onExport Pages: 1 -->
<svg width="312pt" height="76pt"
 viewBox="0.00 0.00 312.00 75.50" xmlns="http://www.w3.org/2000/svg" xmlns:xlink="http://www.w3.org/1999/xlink">
<g id="graph0" class="graph" transform="scale(1 1) rotate(0) translate(4 71.5)">
<title>MainWindow::onExport</title>
<!-- Node1 -->
<g id="Node000001" class="node">
<title>Node1</title>
<g id="a_Node000001"><a xlink:title="Genera y exporta un reporte del inventario en formato CSV.">
<polygon fill="#999999" stroke="#666666" points="128,-45.5 0,-45.5 0,-26.5 128,-26.5 128,-45.5"/>
<text text-anchor="middle" x="64" y="-33.5" font-family="Helvetica,sans-Serif" font-size="10.00">MainWindow::onExport</text>
</a>
</g>
</g>
<!-- Node2 -->
<g id="Node000002" class="node">
<title>Node2</title>
<g id="a_Node000002"><a xlink:href="classCSVReport.html#a5051c763dbb1b15197528448727af40e" target="_top" xlink:title="Genera un archivo CSV con la lista de items proporcionada.">
<polygon fill="white" stroke="#666666" points="293,-67.5 175,-67.5 175,-48.5 293,-48.5 293,-67.5"/>
<text text-anchor="middle" x="234" y="-55.5" font-family="Helvetica,sans-Serif" font-size="10.00">CSVReport::generate</text>
</a>
</g>
</g>
<!-- Node1&#45;&gt;Node2 -->
<g id="edge1_Node000001_Node000002" class="edge">
<title>Node1&#45;&gt;Node2</title>
<g id="a_edge1_Node000001_Node000002"><a xlink:title=" ">
<path fill="none" stroke="#63b8ff" d="M128.03,-44.25C140.04,-45.83 152.65,-47.48 164.8,-49.07"/>
<polygon fill="#63b8ff" stroke="#63b8ff" points="164.51,-52.56 174.88,-50.39 165.42,-45.62 164.51,-52.56"/>
</a>
</g>
</g>
<!-- Node3 -->
<g id="Node000003" class="node">
<title>Node3</title>
<g id="a_Node000003"><a xlink:href="classInventoryManager.html#aea0e4299cec1881036f2176c23323b74" target="_top" xlink:title="Obtiene todos los registros almacenados en la tabla inventario.">
<polygon fill="white" stroke="#666666" points="304,-30 164,-30 164,0 304,0 304,-30"/>
<text text-anchor="start" x="172" y="-18" font-family="Helvetica,sans-Serif" font-size="10.00">InventoryManager::getAll</text>
<text text-anchor="middle" x="234" y="-7" font-family="Helvetica,sans-Serif" font-size="10.00">Items</text>
</a>
</g>
</g>
<!-- Node1&#45;&gt;Node3 -->
<g id="edge2_Node000001_Node000003" class="edge">
<title>Node1&#45;&gt;Node3</title>
<g id="a_edge2_Node000001_Node000003"><a xlink:title=" ">
<path fill="none" stroke="#63b8ff" d="M128.03,-28.12C136.47,-27.07 145.2,-25.97 153.86,-24.89"/>
<polygon fill="#63b8ff" stroke="#63b8ff" points="154.49,-28.34 163.98,-23.63 153.62,-21.39 154.49,-28.34"/>
</a>
</g>
</g>
</g>
</svg>
