<?xml version="1.0" encoding="UTF-8" standalone="no"?>
<!DOCTYPE svg PUBLIC "-//W3C//DTD SVG 1.1//EN"
 "http://www.w3.org/Graphics/SVG/1.1/DTD/svg11.dtd">
<!-- Generated by graphviz version 2.43.0 (0)
 -->
<!-- Title: AddDialog::getType Pages: 1 -->
<svg width="455pt" height="64pt"
 viewBox="0.00 0.00 455.00 64.00" xmlns="http://www.w3.org/2000/svg" xmlns:xlink="http://www.w3.org/1999/xlink">
<g id="graph0" class="graph" transform="scale(1 1) rotate(0) translate(4 60)">
<title>AddDialog::getType</title>
<!-- Node1 -->
<g id="Node000001" class="node">
<title>Node1</title>
<g id="a_Node000001"><a xlink:title="Obtiene el tipo de componente ingresado.">
<polygon fill="#999999" stroke="#666666" points="447,-37 336,-37 336,-18 447,-18 447,-37"/>
<text text-anchor="middle" x="391.5" y="-25" font-family="Helvetica,sans-Serif" font-size="10.00">AddDialog::getType</text>
</a>
</g>
</g>
<!-- Node2 -->
<g id="Node000002" class="node">
<title>Node2</title>
<g id="a_Node000002"><a xlink:href="classMainWindow.html#a31750b622110b0edfcd341556c44ef3c" target="_top" xlink:title="Abre el diálogo para agregar un nuevo componente al inventario.">
<polygon fill="white" stroke="#666666" points="300,-56 184,-56 184,-37 300,-37 300,-56"/>
<text text-anchor="middle" x="242" y="-44" font-family="Helvetica,sans-Serif" font-size="10.00">MainWindow::onAdd</text>
</a>
</g>
</g>
<!-- Node1&#45;&gt;Node2 -->
<g id="edge1_Node000001_Node000002" class="edge">
<title>Node1&#45;&gt;Node2</title>
<g id="a_edge1_Node000001_Node000002"><a xlink:title=" ">
<path fill="none" stroke="#63b8ff" d="M326.03,-35.8C317.45,-36.91 308.69,-38.04 300.25,-39.13"/>
<polygon fill="#63b8ff" stroke="#63b8ff" points="326.52,-39.27 336,-34.52 325.63,-32.33 326.52,-39.27"/>
</a>
</g>
</g>
<!-- Node4 -->
<g id="Node000004" class="node">
<title>Node4</title>
<g id="a_Node000004"><a xlink:href="classMainWindow.html#a9480c0a26284df09cf4d595b0d1952fe" target="_top" xlink:title="Inicia el proceso de edición del componente seleccionado.">
<polygon fill="white" stroke="#666666" points="300,-19 184,-19 184,0 300,0 300,-19"/>
<text text-anchor="middle" x="242" y="-7" font-family="Helvetica,sans-Serif" font-size="10.00">MainWindow::onEdit</text>
</a>
</g>
</g>
<!-- Node1&#45;&gt;Node4 -->
<g id="edge3_Node000001_Node000004" class="edge">
<title>Node1&#45;&gt;Node4</title>
<g id="a_edge3_Node000001_Node000004"><a xlink:title=" ">
<path fill="none" stroke="#63b8ff" d="M326.03,-19.63C317.45,-18.58 308.69,-17.52 300.25,-16.49"/>
<polygon fill="#63b8ff" stroke="#63b8ff" points="325.65,-23.11 336,-20.85 326.49,-16.16 325.65,-23.11"/>
</a>
</g>
</g>
<!-- Node3 -->
<g id="Node000003" class="node">
<title>Node3</title>
<g id="a_Node000003"><a xlink:href="classMainWindow.html#af6ed98f8230fd8f941c6cb7732160ed5" target="_top" xlink:title="Constructor de la ventana principal.">
<polygon fill="white" stroke="#666666" points="148,-37 0,-37 0,-18 148,-18 148,-37"/>
<text text-anchor="middle" x="74" y="-25" font-family="Helvetica,sans-Serif" font-size="10.00">MainWindow::MainWindow</text>
</a>
</g>
</g>
<!-- Node2&#45;&gt;Node3 -->
<g id="edge2_Node000002_Node000003" class="edge">
<title>Node2&#45;&gt;Node3</title>
<g id="a_edge2_Node000002_Node000003"><a xlink:title=" ">
<path fill="none" stroke="#63b8ff" d="M173.71,-38.8C165.26,-37.83 156.59,-36.84 148.06,-35.86"/>
<polygon fill="#63b8ff" stroke="#63b8ff" points="173.54,-42.3 183.87,-39.96 174.34,-35.35 173.54,-42.3"/>
</a>
</g>
</g>
<!-- Node4&#45;&gt;Node3 -->
<g id="edge4_Node000004_Node000003" class="edge">
<title>Node4&#45;&gt;Node3</title>
<g id="a_edge4_Node000004_Node000003"><a xlink:title=" ">
<path fill="none" stroke="#63b8ff" d="M173.71,-16.8C165.26,-17.71 156.59,-18.65 148.06,-19.58"/>
<polygon fill="#63b8ff" stroke="#63b8ff" points="174.31,-20.25 183.87,-15.69 173.55,-13.29 174.31,-20.25"/>
</a>
</g>
</g>
</g>
</svg>
