<?xml version="1.0" encoding="UTF-8" standalone="no"?>
<!DOCTYPE svg PUBLIC "-//W3C//DTD SVG 1.1//EN"
 "http://www.w3.org/Graphics/SVG/1.1/DTD/svg11.dtd">
<!-- Generated by graphviz version 2.43.0 (0)
 -->
<!-- Title: MainWindow Pages: 1 -->
<svg width="226pt" height="554pt"
 viewBox="0.00 0.00 225.50 554.00" xmlns="http://www.w3.org/2000/svg" xmlns:xlink="http://www.w3.org/1999/xlink">
<g id="graph0" class="graph" transform="scale(1 1) rotate(0) translate(4 550)">
<title>MainWindow</title>
<!-- Node1 -->
<g id="Node000001" class="node">
<title>Node1</title>
<g id="a_Node000001"><a xlink:title="Controlador principal de la aplicación de gestión de inventario.">
<polygon fill="#999999" stroke="transparent" points="141,-259 0,-259 0,0 141,0 141,-259"/>
<text text-anchor="start" x="39" y="-246.5" font-family="Helvetica,sans-Serif" font-size="10.00">MainWindow</text>
<text text-anchor="start" x="7" y="-231.5" font-family="Helvetica,sans-Serif" font-size="10.00">&#45;</text>
<text text-anchor="start" x="17.5" y="-231.5" font-family="Helvetica,sans-Serif" font-size="10.00">model</text>
<text text-anchor="start" x="7" y="-216.5" font-family="Helvetica,sans-Serif" font-size="10.00">&#45;</text>
<text text-anchor="start" x="17.5" y="-216.5" font-family="Helvetica,sans-Serif" font-size="10.00">proxy</text>
<text text-anchor="start" x="7" y="-201.5" font-family="Helvetica,sans-Serif" font-size="10.00">&#45;</text>
<text text-anchor="start" x="17.5" y="-201.5" font-family="Helvetica,sans-Serif" font-size="10.00">tableView</text>
<text text-anchor="start" x="7" y="-186.5" font-family="Helvetica,sans-Serif" font-size="10.00">&#45;</text>
<text text-anchor="start" x="17.5" y="-186.5" font-family="Helvetica,sans-Serif" font-size="10.00">searchEdit</text>
<text text-anchor="start" x="7" y="-171.5" font-family="Helvetica,sans-Serif" font-size="10.00">&#45;</text>
<text text-anchor="start" x="17.5" y="-171.5" font-family="Helvetica,sans-Serif" font-size="10.00">lowStockThreshold</text>
<text text-anchor="start" x="4.5" y="-156.5" font-family="Helvetica,sans-Serif" font-size="10.00">+</text>
<text text-anchor="start" x="17.5" y="-156.5" font-family="Helvetica,sans-Serif" font-size="10.00">MainWindow()</text>
<text text-anchor="start" x="7" y="-141.5" font-family="Helvetica,sans-Serif" font-size="10.00">&#45;</text>
<text text-anchor="start" x="17.5" y="-141.5" font-family="Helvetica,sans-Serif" font-size="10.00">refreshModel()</text>
<text text-anchor="start" x="7" y="-126.5" font-family="Helvetica,sans-Serif" font-size="10.00">&#45;</text>
<text text-anchor="start" x="17.5" y="-126.5" font-family="Helvetica,sans-Serif" font-size="10.00">checkLowStockOnStart()</text>
<text text-anchor="start" x="7" y="-111.5" font-family="Helvetica,sans-Serif" font-size="10.00">&#45;</text>
<text text-anchor="start" x="17.5" y="-111.5" font-family="Helvetica,sans-Serif" font-size="10.00">onLoadDefaults()</text>
<text text-anchor="start" x="7" y="-96.5" font-family="Helvetica,sans-Serif" font-size="10.00">&#45;</text>
<text text-anchor="start" x="17.5" y="-96.5" font-family="Helvetica,sans-Serif" font-size="10.00">onRestoreDefaults()</text>
<text text-anchor="start" x="7" y="-81.5" font-family="Helvetica,sans-Serif" font-size="10.00">&#45;</text>
<text text-anchor="start" x="17.5" y="-81.5" font-family="Helvetica,sans-Serif" font-size="10.00">onEdit()</text>
<text text-anchor="start" x="7" y="-66.5" font-family="Helvetica,sans-Serif" font-size="10.00">&#45;</text>
<text text-anchor="start" x="17.5" y="-66.5" font-family="Helvetica,sans-Serif" font-size="10.00">onAdd()</text>
<text text-anchor="start" x="7" y="-51.5" font-family="Helvetica,sans-Serif" font-size="10.00">&#45;</text>
<text text-anchor="start" x="17.5" y="-51.5" font-family="Helvetica,sans-Serif" font-size="10.00">onDelete()</text>
<text text-anchor="start" x="7" y="-36.5" font-family="Helvetica,sans-Serif" font-size="10.00">&#45;</text>
<text text-anchor="start" x="17.5" y="-36.5" font-family="Helvetica,sans-Serif" font-size="10.00">onExport()</text>
<text text-anchor="start" x="7" y="-21.5" font-family="Helvetica,sans-Serif" font-size="10.00">&#45;</text>
<text text-anchor="start" x="17.5" y="-21.5" font-family="Helvetica,sans-Serif" font-size="10.00">onLowStock()</text>
<text text-anchor="start" x="7" y="-6.5" font-family="Helvetica,sans-Serif" font-size="10.00">&#45;</text>
<text text-anchor="start" x="17.5" y="-6.5" font-family="Helvetica,sans-Serif" font-size="10.00">onSearch()</text>
<polygon fill="#666666" stroke="#666666" points="0.5,-241.5 0.5,-241.5 141.5,-241.5 141.5,-241.5 0.5,-241.5"/>
<polygon fill="#666666" stroke="#666666" points="0.5,-166.5 0.5,-166.5 15.5,-166.5 15.5,-166.5 0.5,-166.5"/>
<polygon fill="#666666" stroke="#666666" points="15.5,-166.5 15.5,-166.5 141.5,-166.5 141.5,-166.5 15.5,-166.5"/>
<polygon fill="none" stroke="#666666" points="0,0 0,-259 141,-259 141,0 0,0"/>
</a>
</g>
</g>
<!-- Node2 -->
<g id="Node000002" class="node">
<title>Node2</title>
<g id="a_Node000002"><a xlink:title=" ">
<polygon fill="white" stroke="transparent" points="81,-407.5 28,-407.5 28,-358.5 81,-358.5 81,-407.5"/>
<text text-anchor="start" x="33.5" y="-395" font-family="Helvetica,sans-Serif" font-size="10.00">QWidget</text>
<text text-anchor="start" x="53" y="-380" font-family="Helvetica,sans-Serif" font-size="10.00"> </text>
<text text-anchor="start" x="53" y="-365" font-family="Helvetica,sans-Serif" font-size="10.00"> </text>
<polygon fill="#666666" stroke="#666666" points="28.5,-390 28.5,-390 81.5,-390 81.5,-390 28.5,-390"/>
<polygon fill="#666666" stroke="#666666" points="28.5,-375 28.5,-375 81.5,-375 81.5,-375 28.5,-375"/>
<polygon fill="none" stroke="#666666" points="28,-358.5 28,-407.5 81,-407.5 81,-358.5 28,-358.5"/>
</a>
</g>
</g>
<!-- Node2&#45;&gt;Node1 -->
<g id="edge1_Node000001_Node000002" class="edge">
<title>Node2&#45;&gt;Node1</title>
<g id="a_edge1_Node000001_Node000002"><a xlink:title=" ">
<path fill="none" stroke="#63b8ff" d="M56.65,-348.28C58.13,-324.88 60.22,-292.09 62.32,-259.04"/>
<polygon fill="none" stroke="#63b8ff" points="53.15,-348.14 56.01,-358.34 60.13,-348.58 53.15,-348.14"/>
</a>
</g>
</g>
<!-- Node3 -->
<g id="Node000003" class="node">
<title>Node3</title>
<g id="a_Node000003"><a xlink:href="classInventoryManager.html" target="_top" xlink:title=" ">
<polygon fill="white" stroke="transparent" points="217.5,-460 99.5,-460 99.5,-306 217.5,-306 217.5,-460"/>
<text text-anchor="start" x="113.5" y="-448" font-family="Helvetica,sans-Serif" font-size="10.00">InventoryManager</text>
<text text-anchor="start" x="106" y="-433" font-family="Helvetica,sans-Serif" font-size="10.00">&#45;</text>
<text text-anchor="start" x="116.5" y="-433" font-family="Helvetica,sans-Serif" font-size="10.00">db</text>
<text text-anchor="start" x="103.5" y="-418" font-family="Helvetica,sans-Serif" font-size="10.00">+</text>
<text text-anchor="start" x="116.5" y="-418" font-family="Helvetica,sans-Serif" font-size="10.00">InventoryManager()</text>
<text text-anchor="start" x="103.5" y="-403" font-family="Helvetica,sans-Serif" font-size="10.00">+</text>
<text text-anchor="start" x="116.5" y="-403" font-family="Helvetica,sans-Serif" font-size="10.00">createTable()</text>
<text text-anchor="start" x="103.5" y="-388" font-family="Helvetica,sans-Serif" font-size="10.00">+</text>
<text text-anchor="start" x="116.5" y="-388" font-family="Helvetica,sans-Serif" font-size="10.00">addItem()</text>
<text text-anchor="start" x="103.5" y="-373" font-family="Helvetica,sans-Serif" font-size="10.00">+</text>
<text text-anchor="start" x="116.5" y="-373" font-family="Helvetica,sans-Serif" font-size="10.00">updateQuantity()</text>
<text text-anchor="start" x="103.5" y="-358" font-family="Helvetica,sans-Serif" font-size="10.00">+</text>
<text text-anchor="start" x="116.5" y="-358" font-family="Helvetica,sans-Serif" font-size="10.00">removeItem()</text>
<text text-anchor="start" x="103.5" y="-343" font-family="Helvetica,sans-Serif" font-size="10.00">+</text>
<text text-anchor="start" x="116.5" y="-343" font-family="Helvetica,sans-Serif" font-size="10.00">getAllItems()</text>
<text text-anchor="start" x="103.5" y="-328" font-family="Helvetica,sans-Serif" font-size="10.00">+</text>
<text text-anchor="start" x="116.5" y="-328" font-family="Helvetica,sans-Serif" font-size="10.00">updateItem()</text>
<text text-anchor="start" x="103.5" y="-313" font-family="Helvetica,sans-Serif" font-size="10.00">+</text>
<text text-anchor="start" x="116.5" y="-313" font-family="Helvetica,sans-Serif" font-size="10.00">getItemById()</text>
<polygon fill="#666666" stroke="#666666" points="99.5,-443 99.5,-443 217.5,-443 217.5,-443 99.5,-443"/>
<polygon fill="#666666" stroke="#666666" points="99.5,-428 99.5,-428 114.5,-428 114.5,-428 99.5,-428"/>
<polygon fill="#666666" stroke="#666666" points="114.5,-428 114.5,-428 217.5,-428 217.5,-428 114.5,-428"/>
<polygon fill="none" stroke="#666666" points="99.5,-306 99.5,-460 217.5,-460 217.5,-306 99.5,-306"/>
</a>
</g>
</g>
<!-- Node3&#45;&gt;Node1 -->
<g id="edge2_Node000001_Node000003" class="edge">
<title>Node3&#45;&gt;Node1</title>
<g id="a_edge2_Node000001_Node000003"><a xlink:title=" ">
<path fill="none" stroke="#63b8ff" d="M131.86,-305.86C127.95,-294.68 123.82,-282.89 119.63,-270.91"/>
<polygon fill="none" stroke="#63b8ff" points="119.56,-270.71 113.8,-266.37 115.6,-259.38 121.35,-263.73 119.56,-270.71"/>
</a>
</g>
<text text-anchor="middle" x="150" y="-280" font-family="Helvetica,sans-Serif" font-size="10.00" fill="grey"> &#45;manager</text>
</g>
<!-- Node4 -->
<g id="Node000004" class="node">
<title>Node4</title>
<g id="a_Node000004"><a xlink:title=" ">
<polygon fill="white" stroke="transparent" points="183.5,-546 133.5,-546 133.5,-497 183.5,-497 183.5,-546"/>
<text text-anchor="start" x="138.5" y="-533.5" font-family="Helvetica,sans-Serif" font-size="10.00">QObject</text>
<text text-anchor="start" x="156.5" y="-518.5" font-family="Helvetica,sans-Serif" font-size="10.00"> </text>
<text text-anchor="start" x="156.5" y="-503.5" font-family="Helvetica,sans-Serif" font-size="10.00"> </text>
<polygon fill="#666666" stroke="#666666" points="133.5,-528.5 133.5,-528.5 183.5,-528.5 183.5,-528.5 133.5,-528.5"/>
<polygon fill="#666666" stroke="#666666" points="133.5,-513.5 133.5,-513.5 183.5,-513.5 183.5,-513.5 133.5,-513.5"/>
<polygon fill="none" stroke="#666666" points="133.5,-497 133.5,-546 183.5,-546 183.5,-497 133.5,-497"/>
</a>
</g>
</g>
<!-- Node4&#45;&gt;Node3 -->
<g id="edge3_Node000003_Node000004" class="edge">
<title>Node4&#45;&gt;Node3</title>
<g id="a_edge3_Node000003_Node000004"><a xlink:title=" ">
<path fill="none" stroke="#63b8ff" d="M158.5,-486.61C158.5,-478.48 158.5,-469.48 158.5,-460.28"/>
<polygon fill="none" stroke="#63b8ff" points="155,-486.72 158.5,-496.72 162,-486.72 155,-486.72"/>
</a>
</g>
</g>
</g>
</svg>
