<?xml version="1.0" encoding="UTF-8" standalone="no"?>
<!DOCTYPE svg PUBLIC "-//W3C//DTD SVG 1.1//EN"
 "http://www.w3.org/Graphics/SVG/1.1/DTD/svg11.dtd">
<!-- Generated by graphviz version 2.43.0 (0)
 -->
<!-- Title: MainWindow::onEdit Pages: 1 -->
<svg width="332pt" height="323pt"
 viewBox="0.00 0.00 332.00 323.00" xmlns="http://www.w3.org/2000/svg" xmlns:xlink="http://www.w3.org/1999/xlink">
<g id="graph0" class="graph" transform="scale(1 1) rotate(0) translate(4 319)">
<title>MainWindow::onEdit</title>
<!-- Node1 -->
<g id="Node000001" class="node">
<title>Node1</title>
<g id="a_Node000001"><a xlink:title="Inicia el proceso de edición del componente seleccionado.">
<polygon fill="#999999" stroke="#666666" points="116,-167 0,-167 0,-148 116,-148 116,-167"/>
<text text-anchor="middle" x="58" y="-155" font-family="Helvetica,sans-Serif" font-size="10.00">MainWindow::onEdit</text>
</a>
</g>
</g>
<!-- Node2 -->
<g id="Node000002" class="node">
<title>Node2</title>
<g id="a_Node000002"><a xlink:href="classAddDialog.html#a98fd2634696182392e30d750fec4fa35" target="_top" xlink:title=" ">
<polygon fill="white" stroke="#666666" points="296.5,-315 179.5,-315 179.5,-296 296.5,-296 296.5,-315"/>
<text text-anchor="middle" x="238" y="-303" font-family="Helvetica,sans-Serif" font-size="10.00">AddDialog::accepted</text>
</a>
</g>
</g>
<!-- Node1&#45;&gt;Node2 -->
<g id="edge1_Node000001_Node000002" class="edge">
<title>Node1&#45;&gt;Node2</title>
<g id="a_edge1_Node000001_Node000002"><a xlink:title=" ">
<path fill="none" stroke="#63b8ff" d="M62.93,-167.21C73.39,-191.73 104.39,-256.36 152,-287.5 157.38,-291.02 163.33,-293.87 169.51,-296.17"/>
<polygon fill="#63b8ff" stroke="#63b8ff" points="168.77,-299.61 179.36,-299.35 170.92,-292.95 168.77,-299.61"/>
</a>
</g>
</g>
<!-- Node3 -->
<g id="Node000003" class="node">
<title>Node3</title>
<g id="a_Node000003"><a xlink:href="classAddDialog.html#a5120327b094f97585324f46bf09a1224" target="_top" xlink:title=" ">
<polygon fill="white" stroke="#666666" points="297.5,-278 178.5,-278 178.5,-259 297.5,-259 297.5,-278"/>
<text text-anchor="middle" x="238" y="-266" font-family="Helvetica,sans-Serif" font-size="10.00">AddDialog::cancelled</text>
</a>
</g>
</g>
<!-- Node1&#45;&gt;Node3 -->
<g id="edge2_Node000001_Node000003" class="edge">
<title>Node1&#45;&gt;Node3</title>
<g id="a_edge2_Node000001_Node000003"><a xlink:title=" ">
<path fill="none" stroke="#63b8ff" d="M65.66,-167.21C79.39,-186.42 112.86,-229.27 152,-250.5 157.18,-253.31 162.76,-255.68 168.5,-257.68"/>
<polygon fill="#63b8ff" stroke="#63b8ff" points="167.67,-261.09 178.26,-260.72 169.75,-254.41 167.67,-261.09"/>
</a>
</g>
</g>
<!-- Node4 -->
<g id="Node000004" class="node">
<title>Node4</title>
<g id="a_Node000004"><a xlink:href="classAddDialog.html#ab6038c606013470cf474c272357d2830" target="_top" xlink:title="Obtiene la fecha de adquisición seleccionada.">
<polygon fill="white" stroke="#666666" points="294,-241 182,-241 182,-222 294,-222 294,-241"/>
<text text-anchor="middle" x="238" y="-229" font-family="Helvetica,sans-Serif" font-size="10.00">AddDialog::getDate</text>
</a>
</g>
</g>
<!-- Node1&#45;&gt;Node4 -->
<g id="edge3_Node000001_Node000004" class="edge">
<title>Node1&#45;&gt;Node4</title>
<g id="a_edge3_Node000001_Node000004"><a xlink:title=" ">
<path fill="none" stroke="#63b8ff" d="M71.82,-167.14C89.12,-179.68 121.31,-201.41 152,-213.5 158.32,-215.99 165.04,-218.16 171.83,-220.05"/>
<polygon fill="#63b8ff" stroke="#63b8ff" points="171.24,-223.51 181.79,-222.61 172.98,-216.73 171.24,-223.51"/>
</a>
</g>
</g>
<!-- Node5 -->
<g id="Node000005" class="node">
<title>Node5</title>
<g id="a_Node000005"><a xlink:href="classInventoryManager.html#a9d7c6193009d6b10a2063d8ae5bfabaa" target="_top" xlink:title="Obtiene un único elemento del inventario según su id.">
<polygon fill="white" stroke="#666666" points="324,-204 152,-204 152,-185 324,-185 324,-204"/>
<text text-anchor="middle" x="238" y="-192" font-family="Helvetica,sans-Serif" font-size="10.00">InventoryManager::getItemById</text>
</a>
</g>
</g>
<!-- Node1&#45;&gt;Node5 -->
<g id="edge4_Node000001_Node000005" class="edge">
<title>Node1&#45;&gt;Node5</title>
<g id="a_edge4_Node000001_Node000005"><a xlink:title=" ">
<path fill="none" stroke="#63b8ff" d="M104.84,-167.03C128.11,-171.86 156.57,-177.78 181.11,-182.88"/>
<polygon fill="#63b8ff" stroke="#63b8ff" points="180.5,-186.33 191.01,-184.94 181.93,-179.48 180.5,-186.33"/>
</a>
</g>
</g>
<!-- Node6 -->
<g id="Node000006" class="node">
<title>Node6</title>
<g id="a_Node000006"><a xlink:href="classAddDialog.html#acddb648cd31785710468adfd345dc9bf" target="_top" xlink:title="Obtiene la ubicación física del componente.">
<polygon fill="white" stroke="#666666" points="303,-167 173,-167 173,-148 303,-148 303,-167"/>
<text text-anchor="middle" x="238" y="-155" font-family="Helvetica,sans-Serif" font-size="10.00">AddDialog::getLocation</text>
</a>
</g>
</g>
<!-- Node1&#45;&gt;Node6 -->
<g id="edge5_Node000001_Node000006" class="edge">
<title>Node1&#45;&gt;Node6</title>
<g id="a_edge5_Node000001_Node000006"><a xlink:title=" ">
<path fill="none" stroke="#63b8ff" d="M116.3,-157.5C131.06,-157.5 147.15,-157.5 162.64,-157.5"/>
<polygon fill="#63b8ff" stroke="#63b8ff" points="162.7,-161 172.7,-157.5 162.7,-154 162.7,-161"/>
</a>
</g>
</g>
<!-- Node7 -->
<g id="Node000007" class="node">
<title>Node7</title>
<g id="a_Node000007"><a xlink:href="classAddDialog.html#ab1cf40e875c67ed9f4afbb9c15002fd9" target="_top" xlink:title="Obtiene el nombre ingresado por el usuario.">
<polygon fill="white" stroke="#666666" points="297,-130 179,-130 179,-111 297,-111 297,-130"/>
<text text-anchor="middle" x="238" y="-118" font-family="Helvetica,sans-Serif" font-size="10.00">AddDialog::getName</text>
</a>
</g>
</g>
<!-- Node1&#45;&gt;Node7 -->
<g id="edge6_Node000001_Node000007" class="edge">
<title>Node1&#45;&gt;Node7</title>
<g id="a_edge6_Node000001_Node000007"><a xlink:title=" ">
<path fill="none" stroke="#63b8ff" d="M104.84,-147.97C128.11,-143.14 156.57,-137.22 181.11,-132.12"/>
<polygon fill="#63b8ff" stroke="#63b8ff" points="181.93,-135.52 191.01,-130.06 180.5,-128.67 181.93,-135.52"/>
</a>
</g>
</g>
<!-- Node8 -->
<g id="Node000008" class="node">
<title>Node8</title>
<g id="a_Node000008"><a xlink:href="classAddDialog.html#ace328ac19c27ec775541e29b893faeb6" target="_top" xlink:title="Obtiene la cantidad seleccionada.">
<polygon fill="white" stroke="#666666" points="303.5,-93 172.5,-93 172.5,-74 303.5,-74 303.5,-93"/>
<text text-anchor="middle" x="238" y="-81" font-family="Helvetica,sans-Serif" font-size="10.00">AddDialog::getQuantity</text>
</a>
</g>
</g>
<!-- Node1&#45;&gt;Node8 -->
<g id="edge7_Node000001_Node000008" class="edge">
<title>Node1&#45;&gt;Node8</title>
<g id="a_edge7_Node000001_Node000008"><a xlink:title=" ">
<path fill="none" stroke="#63b8ff" d="M72.17,-147.88C89.6,-135.61 121.65,-114.52 152,-102.5 158.42,-99.96 165.26,-97.72 172.16,-95.75"/>
<polygon fill="#63b8ff" stroke="#63b8ff" points="173.51,-99.02 182.27,-93.07 171.71,-92.25 173.51,-99.02"/>
</a>
</g>
</g>
<!-- Node9 -->
<g id="Node000009" class="node">
<title>Node9</title>
<g id="a_Node000009"><a xlink:href="classAddDialog.html#a681938827598fc3404fea3175825ec04" target="_top" xlink:title="Obtiene el tipo de componente ingresado.">
<polygon fill="white" stroke="#666666" points="293.5,-56 182.5,-56 182.5,-37 293.5,-37 293.5,-56"/>
<text text-anchor="middle" x="238" y="-44" font-family="Helvetica,sans-Serif" font-size="10.00">AddDialog::getType</text>
</a>
</g>
</g>
<!-- Node1&#45;&gt;Node9 -->
<g id="edge8_Node000001_Node000009" class="edge">
<title>Node1&#45;&gt;Node9</title>
<g id="a_edge8_Node000001_Node000009"><a xlink:title=" ">
<path fill="none" stroke="#63b8ff" d="M65.7,-147.93C79.52,-129 113.13,-86.73 152,-65.5 158.39,-62.01 165.38,-59.16 172.52,-56.84"/>
<polygon fill="#63b8ff" stroke="#63b8ff" points="173.68,-60.14 182.3,-53.98 171.72,-53.42 173.68,-60.14"/>
</a>
</g>
</g>
<!-- Node10 -->
<g id="Node000010" class="node">
<title>Node10</title>
<g id="a_Node000010"><a xlink:href="classInventoryManager.html#ac9a100ac0e1fbbfd270a750b420bb88f" target="_top" xlink:title="Actualiza todos los campos de un elemento del inventario.">
<polygon fill="white" stroke="#666666" points="322,-19 154,-19 154,0 322,0 322,-19"/>
<text text-anchor="middle" x="238" y="-7" font-family="Helvetica,sans-Serif" font-size="10.00">InventoryManager::updateItem</text>
</a>
</g>
</g>
<!-- Node1&#45;&gt;Node10 -->
<g id="edge9_Node000001_Node000010" class="edge">
<title>Node1&#45;&gt;Node10</title>
<g id="a_edge9_Node000001_Node000010"><a xlink:title=" ">
<path fill="none" stroke="#63b8ff" d="M62.98,-147.89C73.54,-123.64 104.75,-59.66 152,-28.5 155.08,-26.47 158.36,-24.65 161.75,-23.02"/>
<polygon fill="#63b8ff" stroke="#63b8ff" points="163.1,-26.25 170.97,-19.15 160.39,-19.79 163.1,-26.25"/>
</a>
</g>
</g>
</g>
</svg>
