<?xml version="1.0" encoding="UTF-8" standalone="no"?>
<!DOCTYPE svg PUBLIC "-//W3C//DTD SVG 1.1//EN"
 "http://www.w3.org/Graphics/SVG/1.1/DTD/svg11.dtd">
<!-- Generated by graphviz version 2.43.0 (0)
 -->
<!-- Title: include/component.h Pages: 1 -->
<svg width="294pt" height="137pt"
 viewBox="0.00 0.00 294.00 137.00" xmlns="http://www.w3.org/2000/svg" xmlns:xlink="http://www.w3.org/1999/xlink">
<g id="graph0" class="graph" transform="scale(1 1) rotate(0) translate(4 133)">
<title>include/component.h</title>
<!-- Node1 -->
<g id="Node000001" class="node">
<title>Node1</title>
<g id="a_Node000001"><a xlink:title=" ">
<polygon fill="#999999" stroke="#666666" points="223,-129 104,-129 104,-110 223,-110 223,-129"/>
<text text-anchor="middle" x="163.5" y="-117" font-family="Helvetica,sans-Serif" font-size="10.00">include/component.h</text>
</a>
</g>
</g>
<!-- Node2 -->
<g id="Node000002" class="node">
<title>Node2</title>
<g id="a_Node000002"><a xlink:href="mainwindow_8h.html" target="_top" xlink:title=" ">
<polygon fill="white" stroke="#666666" points="159,-74 34,-74 34,-55 159,-55 159,-74"/>
<text text-anchor="middle" x="96.5" y="-62" font-family="Helvetica,sans-Serif" font-size="10.00">include/mainwindow.h</text>
</a>
</g>
</g>
<!-- Node1&#45;&gt;Node2 -->
<g id="edge1_Node000001_Node000002" class="edge">
<title>Node1&#45;&gt;Node2</title>
<g id="a_edge1_Node000001_Node000002"><a xlink:title=" ">
<path fill="none" stroke="#63b8ff" d="M144.67,-103.6C132.66,-94.11 117.53,-82.13 107.46,-74.17"/>
<polygon fill="#63b8ff" stroke="#63b8ff" points="142.72,-106.53 152.74,-109.98 147.06,-101.04 142.72,-106.53"/>
</a>
</g>
</g>
<!-- Node5 -->
<g id="Node000005" class="node">
<title>Node5</title>
<g id="a_Node000005"><a xlink:href="component_8cpp.html" target="_top" xlink:title=" ">
<polygon fill="white" stroke="#666666" points="286,-74 177,-74 177,-55 286,-55 286,-74"/>
<text text-anchor="middle" x="231.5" y="-62" font-family="Helvetica,sans-Serif" font-size="10.00">src/component.cpp</text>
</a>
</g>
</g>
<!-- Node1&#45;&gt;Node5 -->
<g id="edge4_Node000001_Node000005" class="edge">
<title>Node1&#45;&gt;Node5</title>
<g id="a_edge4_Node000001_Node000005"><a xlink:title=" ">
<path fill="none" stroke="#63b8ff" d="M182.62,-103.6C194.8,-94.11 210.16,-82.13 220.38,-74.17"/>
<polygon fill="#63b8ff" stroke="#63b8ff" points="180.16,-101.08 174.43,-109.98 184.46,-106.6 180.16,-101.08"/>
</a>
</g>
</g>
<!-- Node3 -->
<g id="Node000003" class="node">
<title>Node3</title>
<g id="a_Node000003"><a xlink:href="main_8cpp.html" target="_top" xlink:title="Punto de entrada principal de la aplicación de inventario.">
<polygon fill="white" stroke="#666666" points="79,-19 0,-19 0,0 79,0 79,-19"/>
<text text-anchor="middle" x="39.5" y="-7" font-family="Helvetica,sans-Serif" font-size="10.00">src/main.cpp</text>
</a>
</g>
</g>
<!-- Node2&#45;&gt;Node3 -->
<g id="edge2_Node000002_Node000003" class="edge">
<title>Node2&#45;&gt;Node3</title>
<g id="a_edge2_Node000002_Node000003"><a xlink:title=" ">
<path fill="none" stroke="#63b8ff" d="M79.88,-48.04C69.77,-38.64 57.22,-26.98 48.82,-19.17"/>
<polygon fill="#63b8ff" stroke="#63b8ff" points="77.64,-50.74 87.34,-54.98 82.4,-45.61 77.64,-50.74"/>
</a>
</g>
</g>
<!-- Node4 -->
<g id="Node000004" class="node">
<title>Node4</title>
<g id="a_Node000004"><a xlink:href="mainwindow_8cpp.html" target="_top" xlink:title="Implementación de la lógica de interfaz gráfica para la gestión de inventario.">
<polygon fill="white" stroke="#666666" points="212.5,-19 96.5,-19 96.5,0 212.5,0 212.5,-19"/>
<text text-anchor="middle" x="154.5" y="-7" font-family="Helvetica,sans-Serif" font-size="10.00">src/mainwindow.cpp</text>
</a>
</g>
</g>
<!-- Node2&#45;&gt;Node4 -->
<g id="edge3_Node000002_Node000004" class="edge">
<title>Node2&#45;&gt;Node4</title>
<g id="a_edge3_Node000002_Node000004"><a xlink:title=" ">
<path fill="none" stroke="#63b8ff" d="M113.41,-48.04C123.7,-38.64 136.47,-26.98 145.01,-19.17"/>
<polygon fill="#63b8ff" stroke="#63b8ff" points="110.84,-45.66 105.82,-54.98 115.56,-50.82 110.84,-45.66"/>
</a>
</g>
</g>
</g>
</svg>
