<?xml version="1.0" encoding="UTF-8" standalone="no"?>
<!DOCTYPE svg PUBLIC "-//W3C//DTD SVG 1.1//EN"
 "http://www.w3.org/Graphics/SVG/1.1/DTD/svg11.dtd">
<!-- Generated by graphviz version 2.43.0 (0)
 -->
<!-- Title: src/main.cpp Pages: 1 -->
<svg width="1626pt" height="192pt"
 viewBox="0.00 0.00 1626.00 192.00" xmlns="http://www.w3.org/2000/svg" xmlns:xlink="http://www.w3.org/1999/xlink">
<g id="graph0" class="graph" transform="scale(1 1) rotate(0) translate(4 188)">
<title>src/main.cpp</title>
<!-- Node1 -->
<g id="Node000001" class="node">
<title>Node1</title>
<g id="a_Node000001"><a xlink:title="Punto de entrada principal de la aplicación de inventario.">
<polygon fill="#999999" stroke="#666666" points="236,-184 157,-184 157,-165 236,-165 236,-184"/>
<text text-anchor="middle" x="196.5" y="-172" font-family="Helvetica,sans-Serif" font-size="10.00">src/main.cpp</text>
</a>
</g>
</g>
<!-- Node2 -->
<g id="Node000002" class="node">
<title>Node2</title>
<g id="a_Node000002"><a xlink:title=" ">
<polygon fill="#e0e0e0" stroke="#999999" points="79,-129 0,-129 0,-110 79,-110 79,-129"/>
<text text-anchor="middle" x="39.5" y="-117" font-family="Helvetica,sans-Serif" font-size="10.00">QApplication</text>
</a>
</g>
</g>
<!-- Node1&#45;&gt;Node2 -->
<g id="edge1_Node000001_Node000002" class="edge">
<title>Node1&#45;&gt;Node2</title>
<g id="a_edge1_Node000001_Node000002"><a xlink:title=" ">
<path fill="none" stroke="#63b8ff" d="M171.28,-164.98C145.14,-156.16 104.1,-142.31 74.77,-132.41"/>
<polygon fill="#63b8ff" stroke="#63b8ff" points="75.52,-128.96 64.92,-129.08 73.28,-135.6 75.52,-128.96"/>
</a>
</g>
</g>
<!-- Node3 -->
<g id="Node000003" class="node">
<title>Node3</title>
<g id="a_Node000003"><a xlink:title=" ">
<polygon fill="#e0e0e0" stroke="#999999" points="268.5,-74 182.5,-74 182.5,-55 268.5,-55 268.5,-74"/>
<text text-anchor="middle" x="225.5" y="-62" font-family="Helvetica,sans-Serif" font-size="10.00">QMessageBox</text>
</a>
</g>
</g>
<!-- Node1&#45;&gt;Node3 -->
<g id="edge2_Node000001_Node000003" class="edge">
<title>Node1&#45;&gt;Node3</title>
<g id="a_edge2_Node000001_Node000003"><a xlink:title=" ">
<path fill="none" stroke="#63b8ff" d="M202.63,-164.78C208.36,-156.14 216.58,-142.3 220.5,-129 224.76,-114.54 225.9,-97.48 226.04,-84.69"/>
<polygon fill="#63b8ff" stroke="#63b8ff" points="229.53,-84.3 225.94,-74.33 222.53,-84.37 229.53,-84.3"/>
</a>
</g>
</g>
<!-- Node4 -->
<g id="Node000004" class="node">
<title>Node4</title>
<g id="a_Node000004"><a xlink:href="DatabaseManager_8h.html" target="_top" xlink:title=" ">
<polygon fill="white" stroke="#666666" points="211.5,-129 97.5,-129 97.5,-110 211.5,-110 211.5,-129"/>
<text text-anchor="middle" x="154.5" y="-117" font-family="Helvetica,sans-Serif" font-size="10.00">DatabaseManager.h</text>
</a>
</g>
</g>
<!-- Node1&#45;&gt;Node4 -->
<g id="edge3_Node000001_Node000004" class="edge">
<title>Node1&#45;&gt;Node4</title>
<g id="a_edge3_Node000001_Node000004"><a xlink:title=" ">
<path fill="none" stroke="#63b8ff" d="M189.56,-164.75C183.63,-157.26 174.93,-146.28 167.68,-137.13"/>
<polygon fill="#63b8ff" stroke="#63b8ff" points="170.26,-134.75 161.31,-129.09 164.77,-139.1 170.26,-134.75"/>
</a>
</g>
</g>
<!-- Node6 -->
<g id="Node000006" class="node">
<title>Node6</title>
<g id="a_Node000006"><a xlink:href="mainwindow_8h.html" target="_top" xlink:title=" ">
<polygon fill="white" stroke="#666666" points="938,-129 851,-129 851,-110 938,-110 938,-129"/>
<text text-anchor="middle" x="894.5" y="-117" font-family="Helvetica,sans-Serif" font-size="10.00">mainwindow.h</text>
</a>
</g>
</g>
<!-- Node1&#45;&gt;Node6 -->
<g id="edge5_Node000001_Node000006" class="edge">
<title>Node1&#45;&gt;Node6</title>
<g id="a_edge5_Node000001_Node000006"><a xlink:title=" ">
<path fill="none" stroke="#63b8ff" d="M236.03,-170.5C354.36,-161.51 705.92,-134.82 840.9,-124.57"/>
<polygon fill="#63b8ff" stroke="#63b8ff" points="841.29,-128.05 851,-123.8 840.76,-121.07 841.29,-128.05"/>
</a>
</g>
</g>
<!-- Node5 -->
<g id="Node000005" class="node">
<title>Node5</title>
<g id="a_Node000005"><a xlink:title=" ">
<polygon fill="#e0e0e0" stroke="#999999" points="691.5,-19 605.5,-19 605.5,0 691.5,0 691.5,-19"/>
<text text-anchor="middle" x="648.5" y="-7" font-family="Helvetica,sans-Serif" font-size="10.00">QSqlDatabase</text>
</a>
</g>
</g>
<!-- Node4&#45;&gt;Node5 -->
<g id="edge4_Node000004_Node000005" class="edge">
<title>Node4&#45;&gt;Node5</title>
<g id="a_edge4_Node000004_Node000005"><a xlink:title=" ">
<path fill="none" stroke="#63b8ff" d="M154.27,-109.9C154.42,-95.94 156.95,-68.57 173.5,-55 205.56,-28.72 477.99,-16.33 595.22,-12.17"/>
<polygon fill="#63b8ff" stroke="#63b8ff" points="595.52,-15.67 605.4,-11.82 595.28,-8.67 595.52,-15.67"/>
</a>
</g>
</g>
<!-- Node6&#45;&gt;Node3 -->
<g id="edge17_Node000006_Node000003" class="edge">
<title>Node6&#45;&gt;Node3</title>
<g id="a_edge17_Node000006_Node000003"><a xlink:title=" ">
<path fill="none" stroke="#63b8ff" d="M850.99,-116.71C751.51,-112.33 499.67,-99.6 278.75,-74.04"/>
<polygon fill="#63b8ff" stroke="#63b8ff" points="278.93,-70.53 268.59,-72.85 278.11,-77.49 278.93,-70.53"/>
</a>
</g>
</g>
<!-- Node7 -->
<g id="Node000007" class="node">
<title>Node7</title>
<g id="a_Node000007"><a xlink:title=" ">
<polygon fill="#e0e0e0" stroke="#999999" points="1537,-74 1478,-74 1478,-55 1537,-55 1537,-74"/>
<text text-anchor="middle" x="1507.5" y="-62" font-family="Helvetica,sans-Serif" font-size="10.00">QWidget</text>
</a>
</g>
</g>
<!-- Node6&#45;&gt;Node7 -->
<g id="edge6_Node000006_Node000007" class="edge">
<title>Node6&#45;&gt;Node7</title>
<g id="a_edge6_Node000006_Node000007"><a xlink:title=" ">
<path fill="none" stroke="#63b8ff" d="M938.29,-117.15C1033.07,-113.8 1264.35,-103.24 1467.79,-73.88"/>
<polygon fill="#63b8ff" stroke="#63b8ff" points="1468.38,-77.33 1477.77,-72.42 1467.37,-70.4 1468.38,-77.33"/>
</a>
</g>
</g>
<!-- Node8 -->
<g id="Node000008" class="node">
<title>Node8</title>
<g id="a_Node000008"><a xlink:title=" ">
<polygon fill="#e0e0e0" stroke="#999999" points="1618,-74 1555,-74 1555,-55 1618,-55 1618,-74"/>
<text text-anchor="middle" x="1586.5" y="-62" font-family="Helvetica,sans-Serif" font-size="10.00">QLineEdit</text>
</a>
</g>
</g>
<!-- Node6&#45;&gt;Node8 -->
<g id="edge7_Node000006_Node000008" class="edge">
<title>Node6&#45;&gt;Node8</title>
<g id="a_edge7_Node000006_Node000008"><a xlink:title=" ">
<path fill="none" stroke="#63b8ff" d="M938.21,-117.65C1041.94,-115.16 1311.19,-106.04 1544.66,-74.07"/>
<polygon fill="#63b8ff" stroke="#63b8ff" points="1545.27,-77.52 1554.7,-72.68 1544.31,-70.59 1545.27,-77.52"/>
</a>
</g>
</g>
<!-- Node9 -->
<g id="Node000009" class="node">
<title>Node9</title>
<g id="a_Node000009"><a xlink:title=" ">
<polygon fill="#e0e0e0" stroke="#999999" points="350.5,-74 286.5,-74 286.5,-55 350.5,-55 350.5,-74"/>
<text text-anchor="middle" x="318.5" y="-62" font-family="Helvetica,sans-Serif" font-size="10.00">QSpinBox</text>
</a>
</g>
</g>
<!-- Node6&#45;&gt;Node9 -->
<g id="edge8_Node000006_Node000009" class="edge">
<title>Node6&#45;&gt;Node9</title>
<g id="a_edge8_Node000006_Node000009"><a xlink:title=" ">
<path fill="none" stroke="#63b8ff" d="M850.96,-116.67C761.13,-112.52 548.63,-100.69 360.73,-74"/>
<polygon fill="#63b8ff" stroke="#63b8ff" points="361.06,-70.51 350.66,-72.55 360.06,-77.44 361.06,-70.51"/>
</a>
</g>
</g>
<!-- Node10 -->
<g id="Node000010" class="node">
<title>Node10</title>
<g id="a_Node000010"><a xlink:title=" ">
<polygon fill="#e0e0e0" stroke="#999999" points="434.5,-74 368.5,-74 368.5,-55 434.5,-55 434.5,-74"/>
<text text-anchor="middle" x="401.5" y="-62" font-family="Helvetica,sans-Serif" font-size="10.00">QDateEdit</text>
</a>
</g>
</g>
<!-- Node6&#45;&gt;Node10 -->
<g id="edge9_Node000006_Node000010" class="edge">
<title>Node6&#45;&gt;Node10</title>
<g id="a_edge9_Node000006_Node000010"><a xlink:title=" ">
<path fill="none" stroke="#63b8ff" d="M850.78,-115.67C771.75,-110.22 599.71,-96.9 445.08,-74.1"/>
<polygon fill="#63b8ff" stroke="#63b8ff" points="445.32,-70.59 434.92,-72.58 444.29,-77.52 445.32,-70.59"/>
</a>
</g>
</g>
<!-- Node11 -->
<g id="Node000011" class="node">
<title>Node11</title>
<g id="a_Node000011"><a xlink:title=" ">
<polygon fill="#e0e0e0" stroke="#999999" points="526.5,-74 452.5,-74 452.5,-55 526.5,-55 526.5,-74"/>
<text text-anchor="middle" x="489.5" y="-62" font-family="Helvetica,sans-Serif" font-size="10.00">QTableView</text>
</a>
</g>
</g>
<!-- Node6&#45;&gt;Node11 -->
<g id="edge10_Node000006_Node000011" class="edge">
<title>Node6&#45;&gt;Node11</title>
<g id="a_edge10_Node000006_Node000011"><a xlink:title=" ">
<path fill="none" stroke="#63b8ff" d="M850.73,-113.92C784.85,-106.85 656.07,-92.29 536.67,-74.1"/>
<polygon fill="#63b8ff" stroke="#63b8ff" points="537.04,-70.61 526.62,-72.56 535.98,-77.53 537.04,-70.61"/>
</a>
</g>
</g>
<!-- Node12 -->
<g id="Node000012" class="node">
<title>Node12</title>
<g id="a_Node000012"><a xlink:title=" ">
<polygon fill="#e0e0e0" stroke="#999999" points="642.5,-74 544.5,-74 544.5,-55 642.5,-55 642.5,-74"/>
<text text-anchor="middle" x="593.5" y="-62" font-family="Helvetica,sans-Serif" font-size="10.00">QSqlQueryModel</text>
</a>
</g>
</g>
<!-- Node6&#45;&gt;Node12 -->
<g id="edge11_Node000006_Node000012" class="edge">
<title>Node6&#45;&gt;Node12</title>
<g id="a_edge11_Node000006_Node000012"><a xlink:title=" ">
<path fill="none" stroke="#63b8ff" d="M850.73,-110.79C798.28,-101.56 710.2,-86.05 651.96,-75.79"/>
<polygon fill="#63b8ff" stroke="#63b8ff" points="652.26,-72.29 641.81,-74.01 651.05,-79.19 652.26,-72.29"/>
</a>
</g>
</g>
<!-- Node13 -->
<g id="Node000013" class="node">
<title>Node13</title>
<g id="a_Node000013"><a xlink:title=" ">
<polygon fill="#e0e0e0" stroke="#999999" points="786.5,-74 660.5,-74 660.5,-55 786.5,-55 786.5,-74"/>
<text text-anchor="middle" x="723.5" y="-62" font-family="Helvetica,sans-Serif" font-size="10.00">QSortFilterProxyModel</text>
</a>
</g>
</g>
<!-- Node6&#45;&gt;Node13 -->
<g id="edge12_Node000006_Node000013" class="edge">
<title>Node6&#45;&gt;Node13</title>
<g id="a_edge12_Node000006_Node000013"><a xlink:title=" ">
<path fill="none" stroke="#63b8ff" d="M867.03,-109.98C838.32,-101.09 793.08,-87.07 761.08,-77.15"/>
<polygon fill="#63b8ff" stroke="#63b8ff" points="761.78,-73.7 751.19,-74.08 759.7,-80.39 761.78,-73.7"/>
</a>
</g>
</g>
<!-- Node14 -->
<g id="Node000014" class="node">
<title>Node14</title>
<g id="a_Node000014"><a xlink:title=" ">
<polygon fill="#e0e0e0" stroke="#999999" points="884.5,-74 804.5,-74 804.5,-55 884.5,-55 884.5,-74"/>
<text text-anchor="middle" x="844.5" y="-62" font-family="Helvetica,sans-Serif" font-size="10.00">QPushButton</text>
</a>
</g>
</g>
<!-- Node6&#45;&gt;Node14 -->
<g id="edge13_Node000006_Node000014" class="edge">
<title>Node6&#45;&gt;Node14</title>
<g id="a_edge13_Node000006_Node000014"><a xlink:title=" ">
<path fill="none" stroke="#63b8ff" d="M886.24,-109.75C879.04,-102.11 868.39,-90.82 859.65,-81.56"/>
<polygon fill="#63b8ff" stroke="#63b8ff" points="862.01,-78.96 852.6,-74.09 856.92,-83.76 862.01,-78.96"/>
</a>
</g>
</g>
<!-- Node15 -->
<g id="Node000015" class="node">
<title>Node15</title>
<g id="a_Node000015"><a xlink:title=" ">
<polygon fill="#e0e0e0" stroke="#999999" points="986,-74 903,-74 903,-55 986,-55 986,-74"/>
<text text-anchor="middle" x="944.5" y="-62" font-family="Helvetica,sans-Serif" font-size="10.00">QVBoxLayout</text>
</a>
</g>
</g>
<!-- Node6&#45;&gt;Node15 -->
<g id="edge14_Node000006_Node000015" class="edge">
<title>Node6&#45;&gt;Node15</title>
<g id="a_edge14_Node000006_Node000015"><a xlink:title=" ">
<path fill="none" stroke="#63b8ff" d="M902.76,-109.75C909.96,-102.11 920.61,-90.82 929.35,-81.56"/>
<polygon fill="#63b8ff" stroke="#63b8ff" points="932.08,-83.76 936.4,-74.09 926.99,-78.96 932.08,-83.76"/>
</a>
</g>
</g>
<!-- Node16 -->
<g id="Node000016" class="node">
<title>Node16</title>
<g id="a_Node000016"><a xlink:title=" ">
<polygon fill="#e0e0e0" stroke="#999999" points="1087,-74 1004,-74 1004,-55 1087,-55 1087,-74"/>
<text text-anchor="middle" x="1045.5" y="-62" font-family="Helvetica,sans-Serif" font-size="10.00">QHBoxLayout</text>
</a>
</g>
</g>
<!-- Node6&#45;&gt;Node16 -->
<g id="edge15_Node000006_Node000016" class="edge">
<title>Node6&#45;&gt;Node16</title>
<g id="a_edge15_Node000006_Node000016"><a xlink:title=" ">
<path fill="none" stroke="#63b8ff" d="M918.76,-109.98C943.82,-101.19 983.13,-87.39 1011.33,-77.49"/>
<polygon fill="#63b8ff" stroke="#63b8ff" points="1012.52,-80.78 1020.8,-74.17 1010.2,-74.18 1012.52,-80.78"/>
</a>
</g>
</g>
<!-- Node17 -->
<g id="Node000017" class="node">
<title>Node17</title>
<g id="a_Node000017"><a xlink:title=" ">
<polygon fill="#e0e0e0" stroke="#999999" points="1155.5,-74 1105.5,-74 1105.5,-55 1155.5,-55 1155.5,-74"/>
<text text-anchor="middle" x="1130.5" y="-62" font-family="Helvetica,sans-Serif" font-size="10.00">QLabel</text>
</a>
</g>
</g>
<!-- Node6&#45;&gt;Node17 -->
<g id="edge16_Node000006_Node000017" class="edge">
<title>Node6&#45;&gt;Node17</title>
<g id="a_edge16_Node000006_Node000017"><a xlink:title=" ">
<path fill="none" stroke="#63b8ff" d="M934.22,-109.96C974.8,-101.17 1039.62,-86.97 1095.5,-74 1095.6,-73.98 1095.7,-73.95 1095.8,-73.93"/>
<polygon fill="#63b8ff" stroke="#63b8ff" points="1096.35,-77.4 1105.28,-71.69 1094.74,-70.58 1096.35,-77.4"/>
</a>
</g>
</g>
<!-- Node18 -->
<g id="Node000018" class="node">
<title>Node18</title>
<g id="a_Node000018"><a xlink:href="InventoryManager_8h.html" target="_top" xlink:title=" ">
<polygon fill="white" stroke="#666666" points="1287.5,-74 1173.5,-74 1173.5,-55 1287.5,-55 1287.5,-74"/>
<text text-anchor="middle" x="1230.5" y="-62" font-family="Helvetica,sans-Serif" font-size="10.00">InventoryManager.h</text>
</a>
</g>
</g>
<!-- Node6&#45;&gt;Node18 -->
<g id="edge18_Node000006_Node000018" class="edge">
<title>Node6&#45;&gt;Node18</title>
<g id="a_edge18_Node000006_Node000018"><a xlink:title=" ">
<path fill="none" stroke="#63b8ff" d="M938.08,-111.63C996.18,-102.46 1099.45,-86.17 1166.42,-75.61"/>
<polygon fill="#63b8ff" stroke="#63b8ff" points="1167.11,-79.04 1176.44,-74.03 1166.02,-72.13 1167.11,-79.04"/>
</a>
</g>
</g>
<!-- Node21 -->
<g id="Node000021" class="node">
<title>Node21</title>
<g id="a_Node000021"><a xlink:href="component_8h.html" target="_top" xlink:title=" ">
<polygon fill="white" stroke="#666666" points="1459.5,-74 1379.5,-74 1379.5,-55 1459.5,-55 1459.5,-74"/>
<text text-anchor="middle" x="1419.5" y="-62" font-family="Helvetica,sans-Serif" font-size="10.00">component.h</text>
</a>
</g>
</g>
<!-- Node6&#45;&gt;Node21 -->
<g id="edge22_Node000006_Node000021" class="edge">
<title>Node6&#45;&gt;Node21</title>
<g id="a_edge22_Node000006_Node000021"><a xlink:title=" ">
<path fill="none" stroke="#63b8ff" d="M938.17,-115.51C1022.01,-109.52 1211.22,-94.84 1369.5,-74 1369.6,-73.99 1369.7,-73.97 1369.8,-73.96"/>
<polygon fill="#63b8ff" stroke="#63b8ff" points="1370.02,-77.46 1379.42,-72.59 1369.03,-70.54 1370.02,-77.46"/>
</a>
</g>
</g>
<!-- Node23 -->
<g id="Node000023" class="node">
<title>Node23</title>
<g id="a_Node000023"><a xlink:href="report_8h.html" target="_top" xlink:title=" ">
<polygon fill="white" stroke="#666666" points="1361,-74 1306,-74 1306,-55 1361,-55 1361,-74"/>
<text text-anchor="middle" x="1333.5" y="-62" font-family="Helvetica,sans-Serif" font-size="10.00">report.h</text>
</a>
</g>
</g>
<!-- Node6&#45;&gt;Node23 -->
<g id="edge24_Node000006_Node000023" class="edge">
<title>Node6&#45;&gt;Node23</title>
<g id="a_edge24_Node000006_Node000023"><a xlink:title=" ">
<path fill="none" stroke="#63b8ff" d="M938.16,-115.33C1010.4,-109.72 1159.53,-96.62 1295.51,-73.97"/>
<polygon fill="#63b8ff" stroke="#63b8ff" points="1296.41,-77.37 1305.69,-72.25 1295.25,-70.46 1296.41,-77.37"/>
</a>
</g>
</g>
<!-- Node18&#45;&gt;Node5 -->
<g id="edge21_Node000018_Node000005" class="edge">
<title>Node18&#45;&gt;Node5</title>
<g id="a_edge21_Node000018_Node000005"><a xlink:title=" ">
<path fill="none" stroke="#63b8ff" d="M1173.28,-55.98C1170.31,-55.64 1167.37,-55.31 1164.5,-55 995.82,-36.87 795.49,-21.29 701.79,-14.35"/>
<polygon fill="#63b8ff" stroke="#63b8ff" points="701.94,-10.85 691.71,-13.61 701.43,-17.84 701.94,-10.85"/>
</a>
</g>
</g>
<!-- Node19 -->
<g id="Node000019" class="node">
<title>Node19</title>
<g id="a_Node000019"><a xlink:title=" ">
<polygon fill="#e0e0e0" stroke="#999999" points="1258.5,-19 1202.5,-19 1202.5,0 1258.5,0 1258.5,-19"/>
<text text-anchor="middle" x="1230.5" y="-7" font-family="Helvetica,sans-Serif" font-size="10.00">QObject</text>
</a>
</g>
</g>
<!-- Node18&#45;&gt;Node19 -->
<g id="edge19_Node000018_Node000019" class="edge">
<title>Node18&#45;&gt;Node19</title>
<g id="a_edge19_Node000018_Node000019"><a xlink:title=" ">
<path fill="none" stroke="#63b8ff" d="M1230.5,-54.75C1230.5,-47.8 1230.5,-37.85 1230.5,-29.13"/>
<polygon fill="#63b8ff" stroke="#63b8ff" points="1234,-29.09 1230.5,-19.09 1227,-29.09 1234,-29.09"/>
</a>
</g>
</g>
<!-- Node20 -->
<g id="Node000020" class="node">
<title>Node20</title>
<g id="a_Node000020"><a xlink:title=" ">
<polygon fill="#e0e0e0" stroke="#999999" points="1336,-19 1295,-19 1295,0 1336,0 1336,-19"/>
<text text-anchor="middle" x="1315.5" y="-7" font-family="Helvetica,sans-Serif" font-size="10.00">QList</text>
</a>
</g>
</g>
<!-- Node18&#45;&gt;Node20 -->
<g id="edge20_Node000018_Node000020" class="edge">
<title>Node18&#45;&gt;Node20</title>
<g id="a_edge20_Node000018_Node000020"><a xlink:title=" ">
<path fill="none" stroke="#63b8ff" d="M1244.16,-54.98C1257.34,-46.77 1277.53,-34.18 1293.07,-24.49"/>
<polygon fill="#63b8ff" stroke="#63b8ff" points="1294.96,-27.43 1301.59,-19.17 1291.26,-21.49 1294.96,-27.43"/>
</a>
</g>
</g>
<!-- Node22 -->
<g id="Node000022" class="node">
<title>Node22</title>
<g id="a_Node000022"><a xlink:title=" ">
<polygon fill="#e0e0e0" stroke="#999999" points="1426,-19 1373,-19 1373,0 1426,0 1426,-19"/>
<text text-anchor="middle" x="1399.5" y="-7" font-family="Helvetica,sans-Serif" font-size="10.00">QString</text>
</a>
</g>
</g>
<!-- Node21&#45;&gt;Node22 -->
<g id="edge23_Node000021_Node000022" class="edge">
<title>Node21&#45;&gt;Node22</title>
<g id="a_edge23_Node000021_Node000022"><a xlink:title=" ">
<path fill="none" stroke="#63b8ff" d="M1416.2,-54.75C1413.52,-47.65 1409.65,-37.4 1406.31,-28.56"/>
<polygon fill="#63b8ff" stroke="#63b8ff" points="1409.55,-27.21 1402.74,-19.09 1403,-29.68 1409.55,-27.21"/>
</a>
</g>
</g>
<!-- Node23&#45;&gt;Node20 -->
<g id="edge26_Node000023_Node000020" class="edge">
<title>Node23&#45;&gt;Node20</title>
<g id="a_edge26_Node000023_Node000020"><a xlink:title=" ">
<path fill="none" stroke="#63b8ff" d="M1330.53,-54.75C1328.14,-47.72 1324.71,-37.62 1321.73,-28.84"/>
<polygon fill="#63b8ff" stroke="#63b8ff" points="1324.95,-27.43 1318.42,-19.09 1318.32,-29.68 1324.95,-27.43"/>
</a>
</g>
</g>
<!-- Node23&#45;&gt;Node22 -->
<g id="edge25_Node000023_Node000022" class="edge">
<title>Node23&#45;&gt;Node22</title>
<g id="a_edge25_Node000023_Node000022"><a xlink:title=" ">
<path fill="none" stroke="#63b8ff" d="M1344.1,-54.98C1353.96,-47.07 1368.85,-35.11 1380.72,-25.58"/>
<polygon fill="#63b8ff" stroke="#63b8ff" points="1383.1,-28.16 1388.7,-19.17 1378.71,-22.7 1383.1,-28.16"/>
</a>
</g>
</g>
</g>
</svg>
