<?xml version="1.0" encoding="UTF-8" standalone="no"?>
<!DOCTYPE svg PUBLIC "-//W3C//DTD SVG 1.1//EN"
 "http://www.w3.org/Graphics/SVG/1.1/DTD/svg11.dtd">
<!-- Generated by graphviz version 2.43.0 (0)
 -->
<!-- Title: src/mainwindow.cpp Pages: 1 -->
<svg width="1585pt" height="192pt"
 viewBox="0.00 0.00 1584.50 192.00" xmlns="http://www.w3.org/2000/svg" xmlns:xlink="http://www.w3.org/1999/xlink">
<g id="graph0" class="graph" transform="scale(1 1) rotate(0) translate(4 188)">
<title>src/mainwindow.cpp</title>
<!-- Node1 -->
<g id="Node000001" class="node">
<title>Node1</title>
<g id="a_Node000001"><a xlink:title="Implementaci칩n de la l칩gica de interfaz gr치fica para la gesti칩n de inventario.">
<polygon fill="#999999" stroke="#666666" points="1096.5,-184 980.5,-184 980.5,-165 1096.5,-165 1096.5,-184"/>
<text text-anchor="middle" x="1038.5" y="-172" font-family="Helvetica,sans-Serif" font-size="10.00">src/mainwindow.cpp</text>
</a>
</g>
</g>
<!-- Node2 -->
<g id="Node000002" class="node">
<title>Node2</title>
<g id="a_Node000002"><a xlink:href="mainwindow_8h.html" target="_top" xlink:title=" ">
<polygon fill="white" stroke="#666666" points="762,-129 675,-129 675,-110 762,-110 762,-129"/>
<text text-anchor="middle" x="718.5" y="-117" font-family="Helvetica,sans-Serif" font-size="10.00">mainwindow.h</text>
</a>
</g>
</g>
<!-- Node1&#45;&gt;Node2 -->
<g id="edge1_Node000001_Node000002" class="edge">
<title>Node1&#45;&gt;Node2</title>
<g id="a_edge1_Node000001_Node000002"><a xlink:title=" ">
<path fill="none" stroke="#63b8ff" d="M987.09,-164.98C928.13,-155.22 831.94,-139.29 772.08,-129.37"/>
<polygon fill="#63b8ff" stroke="#63b8ff" points="772.51,-125.9 762.08,-127.72 771.37,-132.8 772.51,-125.9"/>
</a>
</g>
</g>
<!-- Node4 -->
<g id="Node000004" class="node">
<title>Node4</title>
<g id="a_Node000004"><a xlink:title=" ">
<polygon fill="#e0e0e0" stroke="#999999" points="63,-74 0,-74 0,-55 63,-55 63,-74"/>
<text text-anchor="middle" x="31.5" y="-62" font-family="Helvetica,sans-Serif" font-size="10.00">QLineEdit</text>
</a>
</g>
</g>
<!-- Node1&#45;&gt;Node4 -->
<g id="edge26_Node000001_Node000004" class="edge">
<title>Node1&#45;&gt;Node4</title>
<g id="a_edge26_Node000001_Node000004"><a xlink:title=" ">
<path fill="none" stroke="#63b8ff" d="M980.41,-172.16C862.54,-168.9 586.94,-158.52 357.5,-129 254.3,-115.72 134.61,-89.61 72.95,-75.36"/>
<polygon fill="#63b8ff" stroke="#63b8ff" points="73.74,-71.95 63.21,-73.09 72.15,-78.77 73.74,-71.95"/>
</a>
</g>
</g>
<!-- Node5 -->
<g id="Node000005" class="node">
<title>Node5</title>
<g id="a_Node000005"><a xlink:title=" ">
<polygon fill="#e0e0e0" stroke="#999999" points="145.5,-74 81.5,-74 81.5,-55 145.5,-55 145.5,-74"/>
<text text-anchor="middle" x="113.5" y="-62" font-family="Helvetica,sans-Serif" font-size="10.00">QSpinBox</text>
</a>
</g>
</g>
<!-- Node1&#45;&gt;Node5 -->
<g id="edge27_Node000001_Node000005" class="edge">
<title>Node1&#45;&gt;Node5</title>
<g id="a_edge27_Node000001_Node000005"><a xlink:title=" ">
<path fill="none" stroke="#63b8ff" d="M980.42,-170.17C881.33,-164.17 673.37,-150.15 498.5,-129 348.09,-110.81 308.47,-102.31 155.92,-74.2"/>
<polygon fill="#63b8ff" stroke="#63b8ff" points="156.17,-70.69 145.7,-72.32 154.9,-77.57 156.17,-70.69"/>
</a>
</g>
</g>
<!-- Node6 -->
<g id="Node000006" class="node">
<title>Node6</title>
<g id="a_Node000006"><a xlink:title=" ">
<polygon fill="#e0e0e0" stroke="#999999" points="229.5,-74 163.5,-74 163.5,-55 229.5,-55 229.5,-74"/>
<text text-anchor="middle" x="196.5" y="-62" font-family="Helvetica,sans-Serif" font-size="10.00">QDateEdit</text>
</a>
</g>
</g>
<!-- Node1&#45;&gt;Node6 -->
<g id="edge29_Node000001_Node000006" class="edge">
<title>Node1&#45;&gt;Node6</title>
<g id="a_edge29_Node000001_Node000006"><a xlink:title=" ">
<path fill="none" stroke="#63b8ff" d="M980.05,-167.86C849.16,-154.87 522.44,-120.49 239.96,-74.14"/>
<polygon fill="#63b8ff" stroke="#63b8ff" points="240.37,-70.66 229.93,-72.49 239.23,-77.57 240.37,-70.66"/>
</a>
</g>
</g>
<!-- Node10 -->
<g id="Node000010" class="node">
<title>Node10</title>
<g id="a_Node000010"><a xlink:title=" ">
<polygon fill="#e0e0e0" stroke="#999999" points="855.5,-74 775.5,-74 775.5,-55 855.5,-55 855.5,-74"/>
<text text-anchor="middle" x="815.5" y="-62" font-family="Helvetica,sans-Serif" font-size="10.00">QPushButton</text>
</a>
</g>
</g>
<!-- Node1&#45;&gt;Node10 -->
<g id="edge30_Node000001_Node000010" class="edge">
<title>Node1&#45;&gt;Node10</title>
<g id="a_edge30_Node000001_Node000010"><a xlink:title=" ">
<path fill="none" stroke="#63b8ff" d="M1020.63,-164.84C981.55,-145.92 888.32,-100.77 842.23,-78.45"/>
<polygon fill="#63b8ff" stroke="#63b8ff" points="843.67,-75.26 833.15,-74.05 840.62,-81.56 843.67,-75.26"/>
</a>
</g>
</g>
<!-- Node11 -->
<g id="Node000011" class="node">
<title>Node11</title>
<g id="a_Node000011"><a xlink:title=" ">
<polygon fill="#e0e0e0" stroke="#999999" points="957,-74 874,-74 874,-55 957,-55 957,-74"/>
<text text-anchor="middle" x="915.5" y="-62" font-family="Helvetica,sans-Serif" font-size="10.00">QVBoxLayout</text>
</a>
</g>
</g>
<!-- Node1&#45;&gt;Node11 -->
<g id="edge23_Node000001_Node000011" class="edge">
<title>Node1&#45;&gt;Node11</title>
<g id="a_edge23_Node000001_Node000011"><a xlink:title=" ">
<path fill="none" stroke="#63b8ff" d="M1028.43,-164.66C1007.52,-146.3 959.13,-103.81 933,-80.87"/>
<polygon fill="#63b8ff" stroke="#63b8ff" points="935.18,-78.13 925.36,-74.16 930.57,-83.39 935.18,-78.13"/>
</a>
</g>
</g>
<!-- Node12 -->
<g id="Node000012" class="node">
<title>Node12</title>
<g id="a_Node000012"><a xlink:title=" ">
<polygon fill="#e0e0e0" stroke="#999999" points="1058,-74 975,-74 975,-55 1058,-55 1058,-74"/>
<text text-anchor="middle" x="1016.5" y="-62" font-family="Helvetica,sans-Serif" font-size="10.00">QHBoxLayout</text>
</a>
</g>
</g>
<!-- Node1&#45;&gt;Node12 -->
<g id="edge24_Node000001_Node000012" class="edge">
<title>Node1&#45;&gt;Node12</title>
<g id="a_edge24_Node000001_Node000012"><a xlink:title=" ">
<path fill="none" stroke="#63b8ff" d="M1035.24,-164.76C1032.04,-155.88 1027.27,-141.66 1024.5,-129 1021.27,-114.21 1019.21,-97.17 1017.99,-84.47"/>
<polygon fill="#63b8ff" stroke="#63b8ff" points="1021.45,-83.87 1017.1,-74.21 1014.48,-84.48 1021.45,-83.87"/>
</a>
</g>
</g>
<!-- Node13 -->
<g id="Node000013" class="node">
<title>Node13</title>
<g id="a_Node000013"><a xlink:title=" ">
<polygon fill="#e0e0e0" stroke="#999999" points="1126.5,-74 1076.5,-74 1076.5,-55 1126.5,-55 1126.5,-74"/>
<text text-anchor="middle" x="1101.5" y="-62" font-family="Helvetica,sans-Serif" font-size="10.00">QLabel</text>
</a>
</g>
</g>
<!-- Node1&#45;&gt;Node13 -->
<g id="edge25_Node000001_Node000013" class="edge">
<title>Node1&#45;&gt;Node13</title>
<g id="a_edge25_Node000001_Node000013"><a xlink:title=" ">
<path fill="none" stroke="#63b8ff" d="M1040.7,-164.84C1044.15,-152.19 1051.58,-128.19 1062.5,-110 1068.68,-99.69 1077.36,-89.51 1084.96,-81.5"/>
<polygon fill="#63b8ff" stroke="#63b8ff" points="1087.55,-83.86 1092.07,-74.28 1082.56,-78.95 1087.55,-83.86"/>
</a>
</g>
</g>
<!-- Node14 -->
<g id="Node000014" class="node">
<title>Node14</title>
<g id="a_Node000014"><a xlink:title=" ">
<polygon fill="#e0e0e0" stroke="#999999" points="1230.5,-74 1144.5,-74 1144.5,-55 1230.5,-55 1230.5,-74"/>
<text text-anchor="middle" x="1187.5" y="-62" font-family="Helvetica,sans-Serif" font-size="10.00">QMessageBox</text>
</a>
</g>
</g>
<!-- Node1&#45;&gt;Node14 -->
<g id="edge31_Node000001_Node000014" class="edge">
<title>Node1&#45;&gt;Node14</title>
<g id="a_edge31_Node000001_Node000014"><a xlink:title=" ">
<path fill="none" stroke="#63b8ff" d="M1045.39,-164.82C1056.11,-151.71 1077.93,-126.64 1100.5,-110 1117.74,-97.3 1139.13,-86.3 1156.39,-78.42"/>
<polygon fill="#63b8ff" stroke="#63b8ff" points="1158.29,-81.4 1166.01,-74.15 1155.45,-75.01 1158.29,-81.4"/>
</a>
</g>
</g>
<!-- Node21 -->
<g id="Node000021" class="node">
<title>Node21</title>
<g id="a_Node000021"><a xlink:href="report_8h.html" target="_top" xlink:title=" ">
<polygon fill="white" stroke="#666666" points="1304,-74 1249,-74 1249,-55 1304,-55 1304,-74"/>
<text text-anchor="middle" x="1276.5" y="-62" font-family="Helvetica,sans-Serif" font-size="10.00">report.h</text>
</a>
</g>
</g>
<!-- Node1&#45;&gt;Node21 -->
<g id="edge35_Node000001_Node000021" class="edge">
<title>Node1&#45;&gt;Node21</title>
<g id="a_edge35_Node000001_Node000021"><a xlink:title=" ">
<path fill="none" stroke="#63b8ff" d="M1050.46,-164.88C1071.94,-149.49 1116.4,-118.16 1133.5,-110 1152.27,-101.04 1203.41,-85.9 1239.15,-75.81"/>
<polygon fill="#63b8ff" stroke="#63b8ff" points="1240.1,-79.18 1248.78,-73.1 1238.2,-72.44 1240.1,-79.18"/>
</a>
</g>
</g>
<!-- Node22 -->
<g id="Node000022" class="node">
<title>Node22</title>
<g id="a_Node000022"><a xlink:title=" ">
<polygon fill="#e0e0e0" stroke="#999999" points="1306,-129 1229,-129 1229,-110 1306,-110 1306,-129"/>
<text text-anchor="middle" x="1267.5" y="-117" font-family="Helvetica,sans-Serif" font-size="10.00">QComboBox</text>
</a>
</g>
</g>
<!-- Node1&#45;&gt;Node22 -->
<g id="edge28_Node000001_Node000022" class="edge">
<title>Node1&#45;&gt;Node22</title>
<g id="a_edge28_Node000001_Node000022"><a xlink:title=" ">
<path fill="none" stroke="#63b8ff" d="M1075.29,-164.98C1114.74,-155.86 1177.48,-141.33 1220.48,-131.38"/>
<polygon fill="#63b8ff" stroke="#63b8ff" points="1221.47,-134.75 1230.42,-129.08 1219.89,-127.93 1221.47,-134.75"/>
</a>
</g>
</g>
<!-- Node23 -->
<g id="Node000023" class="node">
<title>Node23</title>
<g id="a_Node000023"><a xlink:title=" ">
<polygon fill="#e0e0e0" stroke="#999999" points="1397,-129 1324,-129 1324,-110 1397,-110 1397,-129"/>
<text text-anchor="middle" x="1360.5" y="-117" font-family="Helvetica,sans-Serif" font-size="10.00">QFileDialog</text>
</a>
</g>
</g>
<!-- Node1&#45;&gt;Node23 -->
<g id="edge32_Node000001_Node000023" class="edge">
<title>Node1&#45;&gt;Node23</title>
<g id="a_edge32_Node000001_Node000023"><a xlink:title=" ">
<path fill="none" stroke="#63b8ff" d="M1094.28,-165C1148.09,-156.69 1232.09,-143.46 1313.74,-129.27"/>
<polygon fill="#63b8ff" stroke="#63b8ff" points="1314.43,-132.71 1323.68,-127.54 1313.23,-125.81 1314.43,-132.71"/>
</a>
</g>
</g>
<!-- Node24 -->
<g id="Node000024" class="node">
<title>Node24</title>
<g id="a_Node000024"><a xlink:title=" ">
<polygon fill="#e0e0e0" stroke="#999999" points="1483.5,-129 1415.5,-129 1415.5,-110 1483.5,-110 1483.5,-129"/>
<text text-anchor="middle" x="1449.5" y="-117" font-family="Helvetica,sans-Serif" font-size="10.00">QSqlQuery</text>
</a>
</g>
</g>
<!-- Node1&#45;&gt;Node24 -->
<g id="edge33_Node000001_Node000024" class="edge">
<title>Node1&#45;&gt;Node24</title>
<g id="a_edge33_Node000001_Node000024"><a xlink:title=" ">
<path fill="none" stroke="#63b8ff" d="M1096.69,-167.82C1167.33,-160.63 1290.29,-147.13 1405.24,-129.09"/>
<polygon fill="#63b8ff" stroke="#63b8ff" points="1405.94,-132.53 1415.27,-127.51 1404.85,-125.61 1405.94,-132.53"/>
</a>
</g>
</g>
<!-- Node25 -->
<g id="Node000025" class="node">
<title>Node25</title>
<g id="a_Node000025"><a xlink:title=" ">
<polygon fill="#e0e0e0" stroke="#999999" points="1557.5,-129 1501.5,-129 1501.5,-110 1557.5,-110 1557.5,-129"/>
<text text-anchor="middle" x="1529.5" y="-117" font-family="Helvetica,sans-Serif" font-size="10.00">QDebug</text>
</a>
</g>
</g>
<!-- Node1&#45;&gt;Node25 -->
<g id="edge34_Node000001_Node000025" class="edge">
<title>Node1&#45;&gt;Node25</title>
<g id="a_edge34_Node000001_Node000025"><a xlink:title=" ">
<path fill="none" stroke="#63b8ff" d="M1096.86,-170.18C1181.63,-164.83 1343.92,-152.59 1491.17,-129.02"/>
<polygon fill="#63b8ff" stroke="#63b8ff" points="1491.98,-132.43 1501.29,-127.37 1490.86,-125.52 1491.98,-132.43"/>
</a>
</g>
</g>
<!-- Node26 -->
<g id="Node000026" class="node">
<title>Node26</title>
<g id="a_Node000026"><a xlink:href="delegate_8h.html" target="_top" xlink:title=" ">
<polygon fill="white" stroke="#666666" points="1210.5,-129 1142.5,-129 1142.5,-110 1210.5,-110 1210.5,-129"/>
<text text-anchor="middle" x="1176.5" y="-117" font-family="Helvetica,sans-Serif" font-size="10.00">delegate.h</text>
</a>
</g>
</g>
<!-- Node1&#45;&gt;Node26 -->
<g id="edge36_Node000001_Node000026" class="edge">
<title>Node1&#45;&gt;Node26</title>
<g id="a_edge36_Node000001_Node000026"><a xlink:title=" ">
<path fill="none" stroke="#63b8ff" d="M1060.67,-164.98C1083.27,-156.3 1118.56,-142.75 1144.25,-132.88"/>
<polygon fill="#63b8ff" stroke="#63b8ff" points="1145.84,-136.02 1153.92,-129.17 1143.33,-129.49 1145.84,-136.02"/>
</a>
</g>
</g>
<!-- Node3 -->
<g id="Node000003" class="node">
<title>Node3</title>
<g id="a_Node000003"><a xlink:title=" ">
<polygon fill="#e0e0e0" stroke="#999999" points="307,-74 248,-74 248,-55 307,-55 307,-74"/>
<text text-anchor="middle" x="277.5" y="-62" font-family="Helvetica,sans-Serif" font-size="10.00">QWidget</text>
</a>
</g>
</g>
<!-- Node2&#45;&gt;Node3 -->
<g id="edge2_Node000002_Node000003" class="edge">
<title>Node2&#45;&gt;Node3</title>
<g id="a_edge2_Node000002_Node000003"><a xlink:title=" ">
<path fill="none" stroke="#63b8ff" d="M674.87,-115.17C602.66,-109.34 453.59,-95.91 317.44,-73.98"/>
<polygon fill="#63b8ff" stroke="#63b8ff" points="317.68,-70.47 307.25,-72.32 316.56,-77.38 317.68,-70.47"/>
</a>
</g>
</g>
<!-- Node2&#45;&gt;Node4 -->
<g id="edge3_Node000002_Node000004" class="edge">
<title>Node2&#45;&gt;Node4</title>
<g id="a_edge3_Node000002_Node000004"><a xlink:title=" ">
<path fill="none" stroke="#63b8ff" d="M674.81,-117.53C571.78,-114.82 305.43,-105.24 73.2,-73.88"/>
<polygon fill="#63b8ff" stroke="#63b8ff" points="73.59,-70.4 63.21,-72.52 72.64,-77.34 73.59,-70.4"/>
</a>
</g>
</g>
<!-- Node2&#45;&gt;Node5 -->
<g id="edge4_Node000002_Node000005" class="edge">
<title>Node2&#45;&gt;Node5</title>
<g id="a_edge4_Node000002_Node000005"><a xlink:title=" ">
<path fill="none" stroke="#63b8ff" d="M674.78,-116.92C581.29,-113.15 354.95,-101.86 155.73,-73.99"/>
<polygon fill="#63b8ff" stroke="#63b8ff" points="156.05,-70.5 145.66,-72.57 155.07,-77.43 156.05,-70.5"/>
</a>
</g>
</g>
<!-- Node2&#45;&gt;Node6 -->
<g id="edge5_Node000002_Node000006" class="edge">
<title>Node2&#45;&gt;Node6</title>
<g id="a_edge5_Node000002_Node000006"><a xlink:title=" ">
<path fill="none" stroke="#63b8ff" d="M674.98,-115.07C576.73,-107.23 339.22,-87.71 239.92,-74.03"/>
<polygon fill="#63b8ff" stroke="#63b8ff" points="240.31,-70.55 229.91,-72.6 239.32,-77.48 240.31,-70.55"/>
</a>
</g>
</g>
<!-- Node7 -->
<g id="Node000007" class="node">
<title>Node7</title>
<g id="a_Node000007"><a xlink:title=" ">
<polygon fill="#e0e0e0" stroke="#999999" points="399.5,-74 325.5,-74 325.5,-55 399.5,-55 399.5,-74"/>
<text text-anchor="middle" x="362.5" y="-62" font-family="Helvetica,sans-Serif" font-size="10.00">QTableView</text>
</a>
</g>
</g>
<!-- Node2&#45;&gt;Node7 -->
<g id="edge6_Node000002_Node000007" class="edge">
<title>Node2&#45;&gt;Node7</title>
<g id="a_edge6_Node000002_Node000007"><a xlink:title=" ">
<path fill="none" stroke="#63b8ff" d="M674.78,-112.79C616.61,-105.06 510.33,-90.52 409.67,-74.14"/>
<polygon fill="#63b8ff" stroke="#63b8ff" points="410.07,-70.66 399.63,-72.49 408.94,-77.56 410.07,-70.66"/>
</a>
</g>
</g>
<!-- Node8 -->
<g id="Node000008" class="node">
<title>Node8</title>
<g id="a_Node000008"><a xlink:title=" ">
<polygon fill="#e0e0e0" stroke="#999999" points="515.5,-74 417.5,-74 417.5,-55 515.5,-55 515.5,-74"/>
<text text-anchor="middle" x="466.5" y="-62" font-family="Helvetica,sans-Serif" font-size="10.00">QSqlQueryModel</text>
</a>
</g>
</g>
<!-- Node2&#45;&gt;Node8 -->
<g id="edge7_Node000002_Node000008" class="edge">
<title>Node2&#45;&gt;Node8</title>
<g id="a_edge7_Node000002_Node000008"><a xlink:title=" ">
<path fill="none" stroke="#63b8ff" d="M678.01,-109.98C634.33,-100.8 564.69,-86.15 517.35,-76.19"/>
<polygon fill="#63b8ff" stroke="#63b8ff" points="517.81,-72.72 507.31,-74.08 516.37,-79.57 517.81,-72.72"/>
</a>
</g>
</g>
<!-- Node9 -->
<g id="Node000009" class="node">
<title>Node9</title>
<g id="a_Node000009"><a xlink:title=" ">
<polygon fill="#e0e0e0" stroke="#999999" points="757.5,-74 631.5,-74 631.5,-55 757.5,-55 757.5,-74"/>
<text text-anchor="middle" x="694.5" y="-62" font-family="Helvetica,sans-Serif" font-size="10.00">QSortFilterProxyModel</text>
</a>
</g>
</g>
<!-- Node2&#45;&gt;Node9 -->
<g id="edge8_Node000002_Node000009" class="edge">
<title>Node2&#45;&gt;Node9</title>
<g id="a_edge8_Node000002_Node000009"><a xlink:title=" ">
<path fill="none" stroke="#63b8ff" d="M714.54,-109.75C711.29,-102.57 706.58,-92.18 702.55,-83.27"/>
<polygon fill="#63b8ff" stroke="#63b8ff" points="705.7,-81.75 698.39,-74.09 699.33,-84.64 705.7,-81.75"/>
</a>
</g>
</g>
<!-- Node2&#45;&gt;Node10 -->
<g id="edge9_Node000002_Node000010" class="edge">
<title>Node2&#45;&gt;Node10</title>
<g id="a_edge9_Node000002_Node000010"><a xlink:title=" ">
<path fill="none" stroke="#63b8ff" d="M734.08,-109.98C749.27,-101.69 772.6,-88.94 790.4,-79.22"/>
<polygon fill="#63b8ff" stroke="#63b8ff" points="792.53,-82.04 799.63,-74.17 789.18,-75.89 792.53,-82.04"/>
</a>
</g>
</g>
<!-- Node2&#45;&gt;Node11 -->
<g id="edge10_Node000002_Node000011" class="edge">
<title>Node2&#45;&gt;Node11</title>
<g id="a_edge10_Node000002_Node000011"><a xlink:title=" ">
<path fill="none" stroke="#63b8ff" d="M750.15,-109.98C783.66,-100.97 836.7,-86.7 873.64,-76.76"/>
<polygon fill="#63b8ff" stroke="#63b8ff" points="874.85,-80.06 883.6,-74.08 873.03,-73.3 874.85,-80.06"/>
</a>
</g>
</g>
<!-- Node2&#45;&gt;Node12 -->
<g id="edge11_Node000002_Node000012" class="edge">
<title>Node2&#45;&gt;Node12</title>
<g id="a_edge11_Node000002_Node000012"><a xlink:title=" ">
<path fill="none" stroke="#63b8ff" d="M762.15,-110.74C815.99,-101.16 907.39,-84.91 964.72,-74.71"/>
<polygon fill="#63b8ff" stroke="#63b8ff" points="965.43,-78.14 974.66,-72.94 964.2,-71.25 965.43,-78.14"/>
</a>
</g>
</g>
<!-- Node2&#45;&gt;Node13 -->
<g id="edge12_Node000002_Node000013" class="edge">
<title>Node2&#45;&gt;Node13</title>
<g id="a_edge12_Node000002_Node000013"><a xlink:title=" ">
<path fill="none" stroke="#63b8ff" d="M762.14,-114.49C828.3,-108.06 957.79,-94.09 1066.5,-74 1066.6,-73.98 1066.7,-73.96 1066.8,-73.94"/>
<polygon fill="#63b8ff" stroke="#63b8ff" points="1067.26,-77.42 1076.34,-71.96 1065.83,-70.57 1067.26,-77.42"/>
</a>
</g>
</g>
<!-- Node2&#45;&gt;Node14 -->
<g id="edge13_Node000002_Node000014" class="edge">
<title>Node2&#45;&gt;Node14</title>
<g id="a_edge13_Node000002_Node000014"><a xlink:title=" ">
<path fill="none" stroke="#63b8ff" d="M762.12,-114.65C836.34,-107.93 992.15,-93.05 1134.2,-74.11"/>
<polygon fill="#63b8ff" stroke="#63b8ff" points="1134.95,-77.54 1144.4,-72.74 1134.02,-70.6 1134.95,-77.54"/>
</a>
</g>
</g>
<!-- Node15 -->
<g id="Node000015" class="node">
<title>Node15</title>
<g id="a_Node000015"><a xlink:href="InventoryManager_8h.html" target="_top" xlink:title=" ">
<polygon fill="white" stroke="#666666" points="1436.5,-74 1322.5,-74 1322.5,-55 1436.5,-55 1436.5,-74"/>
<text text-anchor="middle" x="1379.5" y="-62" font-family="Helvetica,sans-Serif" font-size="10.00">InventoryManager.h</text>
</a>
</g>
</g>
<!-- Node2&#45;&gt;Node15 -->
<g id="edge14_Node000002_Node000015" class="edge">
<title>Node2&#45;&gt;Node15</title>
<g id="a_edge14_Node000002_Node000015"><a xlink:title=" ">
<path fill="none" stroke="#63b8ff" d="M762.24,-116.03C859.25,-110.38 1099.97,-95.42 1312.2,-74.08"/>
<polygon fill="#63b8ff" stroke="#63b8ff" points="1312.69,-77.55 1322.28,-73.06 1311.98,-70.58 1312.69,-77.55"/>
</a>
</g>
</g>
<!-- Node19 -->
<g id="Node000019" class="node">
<title>Node19</title>
<g id="a_Node000019"><a xlink:href="component_8h.html" target="_top" xlink:title=" ">
<polygon fill="white" stroke="#666666" points="613.5,-74 533.5,-74 533.5,-55 613.5,-55 613.5,-74"/>
<text text-anchor="middle" x="573.5" y="-62" font-family="Helvetica,sans-Serif" font-size="10.00">component.h</text>
</a>
</g>
</g>
<!-- Node2&#45;&gt;Node19 -->
<g id="edge18_Node000002_Node000019" class="edge">
<title>Node2&#45;&gt;Node19</title>
<g id="a_edge18_Node000002_Node000019"><a xlink:title=" ">
<path fill="none" stroke="#63b8ff" d="M695.2,-109.98C671.25,-101.23 633.72,-87.51 606.67,-77.62"/>
<polygon fill="#63b8ff" stroke="#63b8ff" points="607.81,-74.32 597.22,-74.17 605.41,-80.89 607.81,-74.32"/>
</a>
</g>
</g>
<!-- Node2&#45;&gt;Node21 -->
<g id="edge20_Node000002_Node000021" class="edge">
<title>Node2&#45;&gt;Node21</title>
<g id="a_edge20_Node000002_Node000021"><a xlink:title=" ">
<path fill="none" stroke="#63b8ff" d="M762.32,-116.84C850.62,-113.04 1056.33,-101.93 1238.66,-73.89"/>
<polygon fill="#63b8ff" stroke="#63b8ff" points="1239.36,-77.33 1248.7,-72.33 1238.28,-70.41 1239.36,-77.33"/>
</a>
</g>
</g>
<!-- Node16 -->
<g id="Node000016" class="node">
<title>Node16</title>
<g id="a_Node000016"><a xlink:title=" ">
<polygon fill="#e0e0e0" stroke="#999999" points="1398.5,-19 1342.5,-19 1342.5,0 1398.5,0 1398.5,-19"/>
<text text-anchor="middle" x="1370.5" y="-7" font-family="Helvetica,sans-Serif" font-size="10.00">QObject</text>
</a>
</g>
</g>
<!-- Node15&#45;&gt;Node16 -->
<g id="edge15_Node000015_Node000016" class="edge">
<title>Node15&#45;&gt;Node16</title>
<g id="a_edge15_Node000015_Node000016"><a xlink:title=" ">
<path fill="none" stroke="#63b8ff" d="M1378.01,-54.75C1376.83,-47.8 1375.14,-37.85 1373.66,-29.13"/>
<polygon fill="#63b8ff" stroke="#63b8ff" points="1377.08,-28.36 1371.96,-19.09 1370.18,-29.53 1377.08,-28.36"/>
</a>
</g>
</g>
<!-- Node17 -->
<g id="Node000017" class="node">
<title>Node17</title>
<g id="a_Node000017"><a xlink:title=" ">
<polygon fill="#e0e0e0" stroke="#999999" points="1306,-19 1265,-19 1265,0 1306,0 1306,-19"/>
<text text-anchor="middle" x="1285.5" y="-7" font-family="Helvetica,sans-Serif" font-size="10.00">QList</text>
</a>
</g>
</g>
<!-- Node15&#45;&gt;Node17 -->
<g id="edge16_Node000015_Node000017" class="edge">
<title>Node15&#45;&gt;Node17</title>
<g id="a_edge16_Node000015_Node000017"><a xlink:title=" ">
<path fill="none" stroke="#63b8ff" d="M1364.4,-54.98C1349.68,-46.69 1327.08,-33.94 1309.83,-24.22"/>
<polygon fill="#63b8ff" stroke="#63b8ff" points="1311.31,-21.03 1300.88,-19.17 1307.87,-27.13 1311.31,-21.03"/>
</a>
</g>
</g>
<!-- Node18 -->
<g id="Node000018" class="node">
<title>Node18</title>
<g id="a_Node000018"><a xlink:title=" ">
<polygon fill="#e0e0e0" stroke="#999999" points="1502.5,-19 1416.5,-19 1416.5,0 1502.5,0 1502.5,-19"/>
<text text-anchor="middle" x="1459.5" y="-7" font-family="Helvetica,sans-Serif" font-size="10.00">QSqlDatabase</text>
</a>
</g>
</g>
<!-- Node15&#45;&gt;Node18 -->
<g id="edge17_Node000015_Node000018" class="edge">
<title>Node15&#45;&gt;Node18</title>
<g id="a_edge17_Node000015_Node000018"><a xlink:title=" ">
<path fill="none" stroke="#63b8ff" d="M1392.35,-54.98C1404.64,-46.84 1423.41,-34.41 1437.98,-24.76"/>
<polygon fill="#63b8ff" stroke="#63b8ff" points="1440.01,-27.61 1446.41,-19.17 1436.14,-21.78 1440.01,-27.61"/>
</a>
</g>
</g>
<!-- Node20 -->
<g id="Node000020" class="node">
<title>Node20</title>
<g id="a_Node000020"><a xlink:title=" ">
<polygon fill="#e0e0e0" stroke="#999999" points="928,-19 875,-19 875,0 928,0 928,-19"/>
<text text-anchor="middle" x="901.5" y="-7" font-family="Helvetica,sans-Serif" font-size="10.00">QString</text>
</a>
</g>
</g>
<!-- Node19&#45;&gt;Node20 -->
<g id="edge19_Node000019_Node000020" class="edge">
<title>Node19&#45;&gt;Node20</title>
<g id="a_edge19_Node000019_Node000020"><a xlink:title=" ">
<path fill="none" stroke="#63b8ff" d="M613.6,-56.5C616.61,-55.99 619.6,-55.48 622.5,-55 709.36,-40.54 811.61,-24.48 864.94,-16.17"/>
<polygon fill="#63b8ff" stroke="#63b8ff" points="865.59,-19.61 874.94,-14.61 864.52,-12.69 865.59,-19.61"/>
</a>
</g>
</g>
<!-- Node21&#45;&gt;Node17 -->
<g id="edge22_Node000021_Node000017" class="edge">
<title>Node21&#45;&gt;Node17</title>
<g id="a_edge22_Node000021_Node000017"><a xlink:title=" ">
<path fill="none" stroke="#63b8ff" d="M1277.99,-54.75C1279.17,-47.8 1280.86,-37.85 1282.34,-29.13"/>
<polygon fill="#63b8ff" stroke="#63b8ff" points="1285.82,-29.53 1284.04,-19.09 1278.92,-28.36 1285.82,-29.53"/>
</a>
</g>
</g>
<!-- Node21&#45;&gt;Node20 -->
<g id="edge21_Node000021_Node000020" class="edge">
<title>Node21&#45;&gt;Node20</title>
<g id="a_edge21_Node000021_Node000020"><a xlink:title=" ">
<path fill="none" stroke="#63b8ff" d="M1248.68,-56.81C1245.59,-56.16 1242.48,-55.54 1239.5,-55 1130.75,-35.4 1000.85,-20.72 938.49,-14.21"/>
<polygon fill="#63b8ff" stroke="#63b8ff" points="938.67,-10.71 928.36,-13.16 937.95,-17.67 938.67,-10.71"/>
</a>
</g>
</g>
<!-- Node26&#45;&gt;Node15 -->
<g id="edge38_Node000026_Node000015" class="edge">
<title>Node26&#45;&gt;Node15</title>
<g id="a_edge38_Node000026_Node000015"><a xlink:title=" ">
<path fill="none" stroke="#63b8ff" d="M1209.12,-109.98C1243.79,-100.93 1298.76,-86.58 1336.85,-76.64"/>
<polygon fill="#63b8ff" stroke="#63b8ff" points="1337.84,-79.99 1346.63,-74.08 1336.07,-73.22 1337.84,-79.99"/>
</a>
</g>
</g>
<!-- Node27 -->
<g id="Node000027" class="node">
<title>Node27</title>
<g id="a_Node000027"><a xlink:title=" ">
<polygon fill="#e0e0e0" stroke="#999999" points="1576.5,-74 1454.5,-74 1454.5,-55 1576.5,-55 1576.5,-74"/>
<text text-anchor="middle" x="1515.5" y="-62" font-family="Helvetica,sans-Serif" font-size="10.00">QStyledItemDelegate</text>
</a>
</g>
</g>
<!-- Node26&#45;&gt;Node27 -->
<g id="edge37_Node000026_Node000027" class="edge">
<title>Node26&#45;&gt;Node27</title>
<g id="a_edge37_Node000026_Node000027"><a xlink:title=" ">
<path fill="none" stroke="#63b8ff" d="M1210.58,-111.77C1213.93,-111.15 1217.28,-110.55 1220.5,-110 1296.74,-96.89 1384.44,-83.93 1444.27,-75.41"/>
<polygon fill="#63b8ff" stroke="#63b8ff" points="1444.96,-78.85 1454.36,-73.97 1443.97,-71.92 1444.96,-78.85"/>
</a>
</g>
</g>
</g>
</svg>
